<svg xmlns="http://www.w3.org/2000/svg" width="56" height="56" viewBox="0 0 56 56" fill="none"><circle cx="28" cy="28" r="28" fill="white"></circle><path d="M22.5375 15.45C22.4563 15.5625 22.4375 15.7687 22.4375 16.4187V17.25H25.625H28.8125V16.4187C28.8125 15.7687 28.7938 15.5625 28.7125 15.45L28.6188 15.3125H25.625H22.6313L22.5375 15.45Z" fill="#423DF9"></path><path d="M18.6935 18.3248C18.4185 18.3998 18.1747 18.5873 18.031 18.8311C17.8622 19.1123 16.8122 23.4561 16.8997 23.5061C16.9685 23.5436 18.8247 23.6936 20.8122 23.8123C23.756 23.9936 27.6247 23.9936 30.5622 23.8123C32.6372 23.6873 34.406 23.5436 34.4747 23.5061C34.5622 23.4561 33.5122 19.1186 33.3435 18.8311C33.1935 18.5748 32.9622 18.4061 32.6497 18.3186C32.331 18.2311 19.006 18.2311 18.6935 18.3248Z" fill="#423DF9"></path><path d="M14.9062 22.4689C14.7875 22.5814 14.75 22.6877 14.75 22.8939C14.75 23.2752 14.9313 23.4377 15.425 23.4814L15.7938 23.5127L15.925 22.9814C16 22.6814 16.0625 22.4127 16.0625 22.3752C16.0625 22.3377 15.8625 22.3127 15.5625 22.3127C15.1063 22.3127 15.0438 22.3314 14.9062 22.4689Z" fill="#423DF9"></path><path d="M35.3125 22.3752C35.3125 22.4127 35.375 22.6814 35.45 22.9814L35.5813 23.5127L35.9563 23.4814C36.2375 23.4564 36.3687 23.4127 36.475 23.3002C36.7 23.0689 36.7 22.6939 36.4688 22.4689C36.3313 22.3314 36.2688 22.3127 35.8125 22.3127C35.5125 22.3127 35.3125 22.3377 35.3125 22.3752Z" fill="#423DF9"></path><path d="M15.475 25.3683L14.6 26.2433L15.85 26.2621C17.05 26.2808 17.1063 26.2871 17.45 26.4496C18.1875 26.7933 18.7313 27.5121 18.8875 28.3496C18.925 28.5558 18.9375 28.8308 18.9125 28.9621C18.8563 29.2683 18.4938 29.6683 18.2 29.7496C18.0625 29.7871 17.1313 29.8121 15.9875 29.8121H14V30.2121C14 30.4433 14.0563 30.7933 14.1313 31.0371C14.2438 31.3933 14.325 31.5183 14.65 31.8496C15.2812 32.4746 14.8188 32.4371 21.2938 32.4371H26.875V32.2933C26.875 32.1558 27.0813 31.2433 27.1562 31.0496C27.1938 30.9496 27.0063 30.9433 24.2688 30.9246C20.9875 30.9058 21.1063 30.9183 20.6188 30.4308C20.2875 30.0996 19.625 28.7558 19.625 28.4121C19.625 28.0683 19.85 27.6308 20.1188 27.4558L20.3313 27.3121H25.025H29.725L30.0625 27.0558C31.2125 26.1933 32.625 25.6496 34.125 25.4933C34.7188 25.4308 35.65 25.4558 35.9688 25.5433C36.0375 25.5621 35.8625 25.3371 35.5562 25.0308L35.0188 24.4933L33.3375 24.6183C27.0938 25.0996 23.6375 25.0808 16.8125 24.5246L16.3438 24.4871L15.475 25.3683Z" fill="#423DF9"></path><path d="M34.2184 26.4812C32.9934 26.5937 31.6621 27.1062 30.6559 27.8562C27.1496 30.4687 26.7809 35.575 29.8746 38.6187C33.1496 41.8437 38.5371 41.1937 40.9434 37.2875C42.8559 34.175 42.0809 30.0812 39.1559 27.8812C38.5996 27.4625 37.4934 26.9187 36.8059 26.725C35.9934 26.4937 35.0496 26.4062 34.2184 26.4812ZM35.2434 28.5375C35.3496 28.675 35.3746 28.7937 35.3746 29.2187V29.7375L35.8309 29.7625C36.5934 29.8 37.2246 30.2312 37.5496 30.9312C37.7684 31.4062 37.7809 31.9625 37.5684 32.1312C37.3496 32.3062 37.0371 32.2875 36.8809 32.0875C36.8059 31.9937 36.7496 31.8437 36.7496 31.7562C36.7496 31.5187 36.4996 31.0625 36.2934 30.9125C36.1309 30.7937 36.0121 30.7812 35.0434 30.7625C34.4559 30.75 33.8809 30.7562 33.7684 30.7812C33.4934 30.8312 33.1434 31.1875 33.0621 31.5C32.9496 31.925 33.1871 32.475 33.5871 32.7062C33.6746 32.7562 34.1496 32.7937 34.9684 32.8125C36.0684 32.8437 36.2559 32.8625 36.5121 32.9812C36.9246 33.1687 37.3434 33.5812 37.5434 33.9937C37.6871 34.2875 37.7184 34.425 37.7184 34.8437C37.7184 35.2625 37.6871 35.4 37.5434 35.6937C37.1996 36.3937 36.4621 36.875 35.7184 36.875H35.3746V37.4062C35.3746 37.8937 35.3621 37.9562 35.2184 38.0937C35.0184 38.3 34.7309 38.3 34.5309 38.0937C34.3871 37.9562 34.3746 37.8937 34.3746 37.4062V36.875H34.0309C32.9996 36.875 32.0621 35.9687 32.0371 34.9562C32.0309 34.6687 32.0559 34.5937 32.1809 34.4937C32.3746 34.3375 32.7121 34.3375 32.8621 34.5062C32.9309 34.575 32.9996 34.7625 33.0246 34.9187C33.0746 35.2937 33.2496 35.5687 33.5496 35.7375C33.7809 35.8625 33.8809 35.875 34.8684 35.875C35.8121 35.875 35.9684 35.8625 36.1809 35.75C36.8684 35.4 36.9121 34.3937 36.2621 33.9875C36.0496 33.8562 35.9434 33.8437 34.8121 33.8125C33.6621 33.7812 33.5746 33.7687 33.2496 33.6187C32.7559 33.3875 32.4684 33.1125 32.2434 32.65C31.8746 31.9062 31.9934 31.05 32.5434 30.4375C32.9309 30.0062 33.3496 29.8 33.9246 29.7625L34.3746 29.7312V29.2062C34.3746 28.7312 34.3871 28.6687 34.5309 28.5312C34.7434 28.3125 35.0684 28.3187 35.2434 28.5375Z" fill="#423DF9"></path><path d="M14 28.025V28.8125H15.975H17.95L17.9062 28.5437C17.8375 28.1375 17.5688 27.7 17.25 27.4812L16.9688 27.2812L15.4875 27.2625L14 27.2437V28.025Z" fill="#423DF9"></path><path d="M20.625 28.4062C20.625 28.5688 21.2562 29.6813 21.4187 29.8125C21.575 29.9312 21.6687 29.9375 24.6 29.9375H27.6187L27.8437 29.5437C27.975 29.3313 28.15 29.0562 28.2375 28.9375C28.325 28.8188 28.4687 28.625 28.55 28.5125L28.7 28.3125H24.6625C21.1437 28.3125 20.625 28.325 20.625 28.4062Z" fill="#423DF9"></path><path d="M16.1375 34.5437L16.1562 35.6562H17.625H19.0938L19.1125 34.5437L19.125 33.4375H17.625H16.125L16.1375 34.5437Z" fill="#423DF9"></path></svg>