<svg xmlns="http://www.w3.org/2000/svg" width="56" height="56" viewBox="0 0 56 56" fill="none"><circle cx="28" cy="28" r="28" fill="#423DF9"></circle><path d="M27.2877 13.5749C27.1689 13.8936 27.0377 14.2436 27.0002 14.3499C26.9377 14.5186 26.8939 14.5499 26.6439 14.5874C26.4877 14.6061 26.1314 14.6249 25.8502 14.6249C25.5689 14.6249 25.3002 14.6561 25.2502 14.6874C25.1439 14.7624 25.2002 14.8186 26.0189 15.4811L26.4939 15.8686L26.4064 16.1686C26.1064 17.2311 26.0564 17.4561 26.1189 17.5186C26.1627 17.5624 26.3877 17.4436 26.8627 17.1374C27.2314 16.8874 27.5564 16.6874 27.5814 16.6874C27.6064 16.6874 27.9377 16.8874 28.3189 17.1311C28.7314 17.3999 29.0314 17.5561 29.0627 17.5249C29.1002 17.4874 29.0314 17.1436 28.9002 16.6624C28.7814 16.2249 28.6877 15.8561 28.7002 15.8499C28.7127 15.8436 29.0064 15.5999 29.3627 15.3186C29.8502 14.9249 29.9877 14.7811 29.9377 14.7186C29.8939 14.6686 29.6189 14.6311 29.0877 14.6124C28.5314 14.5874 28.2877 14.5561 28.2502 14.4999C28.2252 14.4561 28.0814 14.0999 27.9314 13.7061C27.7877 13.3186 27.6314 12.9999 27.5939 12.9999C27.5502 12.9999 27.4127 13.2624 27.2877 13.5749Z" fill="white"></path><path d="M16.9688 17.7C16.95 17.7438 16.8125 18.1062 16.6625 18.5L16.3938 19.2188L15.7125 19.2562C15.3375 19.2812 14.9563 19.3 14.8625 19.3062C14.7625 19.3062 14.6875 19.35 14.6875 19.3937C14.6875 19.4375 14.9688 19.7 15.3063 19.975C15.65 20.2437 15.9312 20.5125 15.9312 20.5625C15.9375 20.6125 15.8563 20.95 15.75 21.3125C15.55 22.0375 15.525 22.1875 15.6375 22.1875C15.675 22.1875 16.0188 21.9875 16.3938 21.7438L17.0812 21.3062L17.7438 21.7438C18.1125 21.9875 18.4438 22.1875 18.4875 22.1875C18.6 22.1875 18.5812 22.075 18.3625 21.25C18.2563 20.8375 18.1813 20.4875 18.1938 20.4812C18.2062 20.4688 18.4938 20.2375 18.8313 19.975C19.1625 19.7062 19.4375 19.45 19.4375 19.4062C19.4375 19.3187 18.9125 19.25 18.25 19.25C17.975 19.25 17.8063 19.2188 17.7563 19.1688C17.7188 19.1187 17.5688 18.7625 17.425 18.375C17.1688 17.7 17.0375 17.5125 16.9688 17.7Z" fill="white"></path><path d="M38.0062 17.7312C37.9749 17.8 37.8374 18.1312 37.7124 18.475C37.5874 18.8125 37.4562 19.1312 37.4187 19.1688C37.3812 19.225 37.1749 19.25 36.8499 19.2562C36.2124 19.2625 35.7499 19.325 35.7374 19.4062C35.7312 19.4375 36.0124 19.7062 36.3687 19.9937C36.8937 20.425 37.0062 20.5375 36.9749 20.65C36.9562 20.7188 36.8562 21.0875 36.7562 21.4563C36.6062 21.9937 36.5874 22.1375 36.6562 22.1625C36.6999 22.1812 37.0499 21.9937 37.4249 21.75L38.1187 21.3062L38.7749 21.7438C39.1374 21.9875 39.4812 22.1875 39.5374 22.1875C39.6562 22.1875 39.6562 22.1625 39.3812 21.175L39.1999 20.5125L39.7687 20.05C40.0749 19.8 40.3749 19.5625 40.4312 19.5187C40.6312 19.375 40.3999 19.3062 39.5874 19.2625L38.7874 19.2188L38.4999 18.4875C38.1812 17.6625 38.1062 17.55 38.0062 17.7312Z" fill="white"></path><path d="M22.3059 18.1C21.6184 18.3062 21.0434 18.9 20.8059 19.6375C20.5309 20.5 20.7746 21.525 21.4246 22.2562C22.1371 23.0625 23.5184 23.725 25.2809 24.1188L26.0309 24.2875L26.0496 27.425L26.0621 30.5625H27.5934H29.1246V27.4062V24.25L29.2996 24.2125C31.3621 23.725 32.3934 23.2875 33.0934 22.5938C33.6059 22.0938 33.7746 21.7312 33.7996 21.0938C33.8309 20.4437 33.6746 20.0062 33.2496 19.5437C32.9059 19.1625 32.4934 18.9187 31.9684 18.7812C30.9684 18.525 30.0621 18.825 29.1746 19.7C28.5559 20.3125 28.1434 20.9812 27.5559 22.3L27.4621 22.5125L27.1121 21.8C26.3746 20.3313 25.3934 19.0625 24.5496 18.5C23.8621 18.0437 22.9871 17.8875 22.3059 18.1ZM23.6121 19.5625C24.0746 19.8 24.6559 20.3938 25.1621 21.1687C25.6121 21.8562 26.1059 22.7875 26.0496 22.8438C25.9871 22.9062 24.6184 22.55 24.0121 22.3125C23.3934 22.075 22.6434 21.5938 22.4059 21.275C22.0434 20.8 21.9746 20.3187 22.2059 19.875C22.4684 19.3562 22.9684 19.2437 23.6121 19.5625ZM31.9184 20.2312C32.2184 20.3875 32.4371 20.7063 32.4371 20.9875C32.4371 21.6438 31.4809 22.2437 29.6871 22.7C29.2934 22.8 28.9371 22.8688 28.8871 22.8625C28.7684 22.8375 29.4934 21.425 29.8621 20.9688C30.5309 20.15 31.2559 19.8875 31.9184 20.2312Z" fill="white"></path><path d="M16.5813 23.875C16.2063 24.1 16.1875 24.2 16.1875 25.95C16.1875 27.4062 16.2 27.5437 16.3125 27.7312C16.5625 28.1375 16.3813 28.125 20.9375 28.125H25.0625L25.05 26.6125L25.0312 25.1062L24.5 24.9625C23.5625 24.7125 22.7 24.3687 21.9875 23.9562L21.6375 23.75H19.2062C16.9125 23.75 16.7688 23.7562 16.5813 23.875Z" fill="white"></path><path d="M32.8125 24.0375C32.2687 24.3563 31.5938 24.6312 30.75 24.875L30.1562 25.05L30.1375 26.5875L30.125 28.125H34.2625C38.2063 28.125 38.4125 28.1187 38.6 28.0063C38.9688 27.7812 39 27.6187 39 25.925C39 24.2188 38.9688 24.0875 38.5563 23.8625C38.3625 23.7562 38.1562 23.75 35.8125 23.7562L33.2812 23.7625L32.8125 24.0375Z" fill="white"></path><path d="M18.2502 34.6125C18.2502 40.8375 18.2252 40.475 18.7502 41C19.1564 41.4125 19.4564 41.5 20.4502 41.5H21.2502L21.2627 36.475L21.2814 31.45L21.4689 31.175C21.5939 31 21.7752 30.85 21.9939 30.7312L22.3377 30.5625H23.7002H25.0627V29.8438V29.125H21.6564H18.2502V34.6125Z" fill="white"></path><path d="M30.125 29.8438V30.5625H33.5313H36.9375V29.8438V29.125H33.5313H30.125V29.8438Z" fill="white"></path><path d="M22.3563 31.675C22.2563 31.7812 22.25 32.2063 22.25 36.5437C22.25 41.0625 22.2563 41.3 22.3625 41.3937C22.425 41.4563 22.5688 41.5 22.675 41.5H22.8688L22.8875 37.225L22.9063 32.95L23.0938 32.675C23.2188 32.5 23.4 32.35 23.6188 32.2312L23.9625 32.0625H31.825H39.6875V31.9125C39.6875 31.5437 40.1938 31.5625 30.9313 31.5625C22.8 31.5625 22.45 31.5687 22.3563 31.675Z" fill="white"></path><path d="M23.9813 33.175C23.8813 33.2812 23.875 33.7063 23.875 38.0437C23.875 42.5625 23.8813 42.8 23.9875 42.8937C24.0938 42.9937 24.7812 43 32.6062 43C40.7625 43 41.1125 42.9937 41.2063 42.8875C41.3062 42.7812 41.3125 42.3562 41.3125 38.0187C41.3125 33.5 41.3062 33.2625 41.2 33.1687C41.0938 33.0687 40.4062 33.0625 32.5813 33.0625C24.425 33.0625 24.075 33.0687 23.9813 33.175ZM38.8063 34.225C38.9187 34.3187 39.025 34.4875 39.0625 34.6312C39.15 34.95 39.3 35.1 39.6188 35.1875C39.7625 35.225 39.9312 35.3312 40.025 35.4437L40.1875 35.6375V38.0312V40.425L40.025 40.6187C39.9312 40.7313 39.7625 40.8375 39.6188 40.875C39.3 40.9625 39.15 41.1125 39.0625 41.4312C39.025 41.575 38.9187 41.7437 38.8063 41.8375L38.6125 42H32.5938H26.575L26.3813 41.8375C26.2687 41.7437 26.1625 41.575 26.125 41.4312C26.0375 41.1125 25.8875 40.9625 25.5688 40.875C25.425 40.8375 25.2563 40.7313 25.1625 40.6187L25 40.425V38.0312V35.6375L25.1625 35.4437C25.2563 35.3312 25.425 35.225 25.5688 35.1875C25.8875 35.1 26.0375 34.95 26.125 34.6312C26.1625 34.4875 26.2687 34.3187 26.3813 34.225L26.575 34.0625H32.5938H38.6125L38.8063 34.225Z" fill="white"></path><path d="M26.9438 35.2937C26.8 35.575 26.4875 35.8812 26.2062 36.025L26 36.1312V38.0312V39.9375L26.2375 40.0562C26.5125 40.2 26.8188 40.5125 26.9625 40.7938L27.0688 41H32.5938H38.1188L38.225 40.7938C38.3688 40.5125 38.675 40.2 38.9563 40.0562L39.1875 39.9375V38.0312V36.125L38.9563 36.0062C38.675 35.8625 38.3688 35.55 38.225 35.2625L38.1188 35.0625H32.5938H27.0625L26.9438 35.2937ZM32.9188 35.5125C33 35.5875 33.0625 35.7 33.0625 35.7562C33.0625 35.825 33.15 35.9187 33.2688 35.975C33.7375 36.2125 34.1625 36.7937 34.0875 37.0938C34.0375 37.2938 33.7812 37.5 33.5813 37.5C33.4375 37.5 33.325 37.4062 33.0188 37.0375C32.7812 36.75 32.125 36.8562 32.125 37.1875C32.125 37.3563 32.2375 37.4188 32.8063 37.5562C33.5563 37.7437 33.8938 37.9813 34.0938 38.45C34.2812 38.9125 34.1625 39.4562 33.8 39.7937C33.7188 39.8687 33.5188 39.9875 33.3563 40.0625C33.1813 40.1438 33.0625 40.2312 33.0625 40.2937C33.0625 40.4688 32.8063 40.6875 32.6 40.6875C32.3875 40.6875 32.125 40.475 32.125 40.3C32.125 40.2312 32.0188 40.1375 31.8313 40.0375C31.4688 39.8562 31.225 39.6125 31.1 39.3C30.9688 38.9875 30.975 38.8 31.125 38.6375C31.4062 38.3375 31.7812 38.425 31.975 38.8375C32.0312 38.95 32.1312 39.075 32.2 39.1187C32.3625 39.2188 32.7625 39.225 33 39.125C33.4 38.9562 33.1312 38.6312 32.4875 38.5C32.0875 38.425 31.6813 38.25 31.475 38.0687C31.275 37.8875 31.125 37.5187 31.125 37.1875C31.125 36.6687 31.3812 36.2875 31.9313 35.9875C32.0375 35.9313 32.125 35.8312 32.125 35.775C32.125 35.7125 32.1875 35.6 32.2625 35.5187C32.4375 35.3312 32.725 35.3312 32.9188 35.5125ZM27.7688 37.4312C28.3375 37.65 28.3312 38.4125 27.7625 38.6312C27.5312 38.7188 27.275 38.6437 27.0938 38.425C26.9 38.1937 26.8875 37.8937 27.0688 37.6625C27.275 37.4 27.5 37.3312 27.7688 37.4312ZM38.0813 37.625C38.3 37.875 38.3063 38.1688 38.0938 38.425C37.5688 39.05 36.6313 38.3 37.1313 37.6625C37.4 37.325 37.7875 37.3062 38.0813 37.625Z" fill="white"></path></svg>