<svg xmlns="http://www.w3.org/2000/svg" width="56" height="56" viewBox="0 0 56 56" fill="none"><circle cx="28" cy="28" r="28" fill="white"></circle><path d="M36.7186 15.9064C36.0686 16.0501 35.2311 16.4814 34.7311 16.9439C33.7686 17.8251 33.2998 18.8814 33.2998 20.1939C33.2936 22.2001 34.7123 23.9751 36.6623 24.4064C37.4061 24.5751 38.4373 24.5126 39.1123 24.2626C42.1436 23.1314 42.9686 19.3189 40.6623 17.0439C40.2123 16.6001 39.6248 16.2501 38.9686 16.0251C38.3373 15.8189 37.3811 15.7689 36.7186 15.9064ZM37.8686 16.1564C38.0873 16.2626 38.1248 16.3564 38.1248 16.7501C38.1248 17.0376 38.1373 17.0564 38.3373 17.1251C38.8748 17.3001 39.4186 18.0251 39.4811 18.6626C39.5123 18.9564 39.4998 19.0064 39.3561 19.1501C39.1436 19.3626 38.8623 19.3626 38.6561 19.1564C38.5686 19.0751 38.4998 18.9314 38.4998 18.8439C38.4998 18.3814 38.1186 18.0001 37.6561 18.0001C37.0123 18.0001 36.6061 18.6939 36.9373 19.2314C37.1123 19.5251 37.3186 19.6314 37.8061 19.6939C38.3686 19.7626 38.6561 19.9126 39.0248 20.3189C39.8373 21.2251 39.5373 22.6501 38.4186 23.1751C38.1248 23.3126 38.1248 23.3126 38.1248 23.6314C38.1248 23.8814 38.0936 23.9751 37.9686 24.0939C37.8186 24.2439 37.6123 24.2876 37.4061 24.2126C37.2561 24.1501 37.1248 23.8501 37.1248 23.5501C37.1248 23.2876 37.1123 23.2689 36.8936 23.1939C36.5498 23.0689 36.0436 22.5314 35.9186 22.1626C35.7623 21.7001 35.7811 21.3439 35.9686 21.1564C36.2873 20.8314 36.7186 21.0564 36.8186 21.5939C36.8998 22.0439 37.1998 22.3126 37.6061 22.3126C38.0186 22.3126 38.2686 22.1439 38.4061 21.7876C38.5123 21.5126 38.5123 21.4876 38.4061 21.2126C38.2748 20.8626 38.0373 20.7064 37.5686 20.6564C37.0686 20.6001 36.7373 20.4689 36.4123 20.1814C35.5873 19.4501 35.5873 18.1751 36.4123 17.4439C36.5686 17.3064 36.7936 17.1626 36.9123 17.1251C37.1186 17.0564 37.1248 17.0376 37.1248 16.7376C37.1248 16.4814 37.1561 16.4001 37.3061 16.2439C37.5123 16.0376 37.6186 16.0251 37.8686 16.1564Z" fill="#423DF9"></path><path d="M14 20.4062V22.3125H23.35H32.7L32.6562 22.1688C32.3813 21.325 32.3 20.875 32.3 20.1562C32.3062 19.625 32.3375 19.275 32.425 18.95L32.5375 18.5H23.2688H14V20.4062ZM15.775 19.7562C16 19.8625 16.1 20.1875 15.975 20.425C15.925 20.525 15.8313 20.625 15.7812 20.65C15.4375 20.7812 15.0625 20.5375 15.0625 20.1875C15.0625 19.9625 15.3 19.6875 15.4937 19.6875C15.5625 19.6875 15.6875 19.7188 15.775 19.7562ZM17.9562 19.7562C18.4313 19.975 18.2625 20.6875 17.7313 20.6875C17.5063 20.6875 17.25 20.4375 17.25 20.2188C17.25 20.0375 17.5563 19.6875 17.7125 19.6875C17.7625 19.6875 17.875 19.7188 17.9562 19.7562ZM20.275 19.8187C20.4625 19.9625 20.4813 20.1688 20.3438 20.4312C20.1875 20.7375 19.8375 20.7812 19.5813 20.525C19.4563 20.4 19.4313 20.325 19.4625 20.1688C19.5062 19.9312 19.7625 19.6875 19.9625 19.6875C20.0438 19.6875 20.1813 19.7437 20.275 19.8187Z" fill="#423DF9"></path><path d="M14 31.75V40.1875H27.2812H40.5625V32.4313C40.5625 28.1687 40.5438 24.6875 40.5188 24.7C39.05 25.4312 38.9 25.4688 37.5938 25.4625C36.675 25.4625 36.55 25.45 36.0625 25.2875C35.1 24.975 34.3062 24.4563 33.6438 23.7188L33.2812 23.3125H23.6438H14V31.75ZM19.6937 25.3313C19.8187 25.425 19.9375 25.65 19.9375 25.7812C19.9375 25.8375 19.8563 25.9688 19.7562 26.0687L19.575 26.25H17.7812H15.9875L15.8062 26.0687C15.6125 25.8687 15.5875 25.7562 15.7 25.5437C15.85 25.2562 15.875 25.2562 17.7812 25.2562C19.1125 25.2562 19.6188 25.275 19.6937 25.3313ZM25.8688 27.5312C26.1625 27.6812 26.2188 28.05 25.9875 28.2937L25.8562 28.4375H20.9C16.2812 28.4375 15.9438 28.4312 15.8188 28.325C15.75 28.2688 15.6688 28.1312 15.65 28.0188C15.6187 27.85 15.6438 27.7875 15.8 27.625L15.9875 27.4375H20.8438C24.975 27.4375 25.7188 27.45 25.8688 27.5312ZM38.4062 28.4688L38.5625 28.6187V33.4562C38.5625 38.2563 38.5625 38.3 38.4312 38.4625L38.3062 38.625H36.2812H34.2563L34.1313 38.4625C34 38.3 34 38.2563 34 33.4562V28.6187L34.1562 28.4688L34.3062 28.3125H36.2812H38.2563L38.4062 28.4688ZM18.9 30.0062C19.025 30.1062 19.0625 30.1875 19.0625 30.375C19.0625 30.5625 19.025 30.6438 18.9 30.7437C18.7438 30.8687 18.6562 30.875 17.4 30.875C15.9563 30.875 15.8062 30.85 15.6812 30.5562C15.5938 30.3313 15.6938 30.05 15.8938 29.95C15.975 29.9125 16.575 29.8812 17.3813 29.8812C18.6562 29.875 18.7438 29.8812 18.9 30.0062ZM21.8438 30.0312C21.9437 30.125 22 30.2562 22 30.375C22 30.4937 21.9437 30.625 21.8438 30.7188C21.7 30.8687 21.65 30.875 21 30.875C20.35 30.875 20.3 30.8687 20.1562 30.7188C20.0563 30.625 20 30.4937 20 30.375C20 30.2562 20.0563 30.125 20.1562 30.0312C20.3 29.8812 20.35 29.875 21 29.875C21.65 29.875 21.7 29.8812 21.8438 30.0312ZM32.8438 30.7188L33 30.8687V34.5812C33 38.2437 33 38.3 32.8687 38.4625L32.7437 38.625H30.7125C28.7875 38.625 28.6813 38.6187 28.5688 38.5063C28.5 38.4375 28.425 38.2875 28.4062 38.175C28.3875 38.0625 28.375 36.3687 28.3875 34.4187L28.4062 30.8625L28.5813 30.7125L28.7563 30.5625H30.725H32.6938L32.8438 30.7188ZM27.2375 32.375C27.3125 32.4437 27.3875 32.5687 27.4062 32.6437C27.425 32.7188 27.4313 34.0437 27.425 35.5812L27.4062 38.3875L27.2563 38.5063C27.1188 38.6187 26.9875 38.625 25.1188 38.625C23.225 38.625 23.1188 38.6187 23.0063 38.5063C22.9375 38.4375 22.8625 38.2875 22.8438 38.175C22.825 38.0625 22.8125 36.75 22.825 35.2625L22.8438 32.55L23.0188 32.4L23.1938 32.25H25.15C27.025 32.25 27.1062 32.2562 27.2375 32.375Z" fill="#423DF9"></path><path d="M35 33.4688V37.625H36.2812H37.5625V33.4688V29.3125H36.2812H35V33.4688Z" fill="#423DF9"></path><path d="M29.4187 31.6062C29.3938 31.625 29.375 32.9937 29.375 34.6375V37.625H30.6875H32V34.5937V31.5625H30.7313C30.0312 31.5625 29.4375 31.5812 29.4187 31.6062Z" fill="#423DF9"></path><path d="M23.8125 35.4375V37.625H25.125H26.4375V35.4375V33.25H25.125H23.8125V35.4375Z" fill="#423DF9"></path></svg>