<svg xmlns="http://www.w3.org/2000/svg" width="67" height="58" viewBox="0 0 67 58" fill="none"><path d="M3.77344 9.71082L3.5 9.97333V24.7499V39.5264L3.77344 39.7889C4.30937 40.3358 4.4625 40.2593 7.32812 37.8749L9.94219 35.6874H11.9766H14V34.8124V33.9374H11.6594H9.30781L7.33906 35.578C6.24531 36.4749 5.3375 37.2186 5.30469 37.2186C5.27188 37.2186 5.25 31.3561 5.25 24.203V11.1874H21.875H38.5V14.6874V18.1874H39.375H40.25V14.0858V9.97333L39.9766 9.71082L39.7141 9.43739H21.875H4.03594L3.77344 9.71082Z" fill="#423DF9"></path><path d="M16.0234 20.2108L15.75 20.4733V33.0624V45.6514L16.0234 45.9139L16.2859 46.1874H31.1828H46.0688L48.6937 48.3749C51.5375 50.7593 51.6906 50.8358 52.2266 50.2889L52.5 50.0264V35.2499V20.4733L52.2266 20.2108L51.9641 19.9374H34.125H16.2859L16.0234 20.2108ZM34.7266 24.5858C34.9562 24.8046 35 24.9577 35 25.5155V26.1718H35.9078C36.6844 26.1718 36.9031 26.2155 37.4172 26.4671C38.1938 26.8718 38.6313 27.4843 38.6969 28.2936C38.7406 28.8186 38.7078 28.9171 38.4672 29.1686C38.3031 29.3218 38.0625 29.453 37.9203 29.453C37.5375 29.453 37.1109 29.0702 37.0234 28.6546C36.8922 28.0311 36.6953 27.9218 35.7984 27.9218H35V30.0546V32.1874H35.8312C36.8813 32.1874 37.3953 32.3405 37.9422 32.8108C38.6531 33.4124 38.7406 33.7843 38.6969 36.2561L38.6641 38.3999L38.3359 38.8811C37.8109 39.6139 37.2203 39.8764 36.0172 39.9311L35 39.9749V40.6311C35 41.1671 34.9562 41.3202 34.7266 41.5389C34.3766 41.8999 33.8734 41.8999 33.5234 41.5389C33.2937 41.3202 33.25 41.1671 33.25 40.6311V39.9749L32.2437 39.9311C31.4234 39.8983 31.1281 39.8436 30.7344 39.6249C30.0562 39.2421 29.6187 38.5858 29.5531 37.8311C29.5094 37.3061 29.5422 37.2077 29.7828 36.9561C29.9469 36.803 30.1875 36.6718 30.3297 36.6718C30.7125 36.6718 31.1391 37.0546 31.2266 37.4702C31.3578 38.0936 31.5547 38.203 32.4516 38.203H33.25V36.0702V33.9374H32.4187C31.3687 33.9374 30.8547 33.7843 30.3078 33.3139C29.5969 32.7124 29.5094 32.3405 29.5531 29.8686L29.5859 27.7249L29.9141 27.2436C30.4281 26.5108 31.1937 26.1718 32.3422 26.1718H33.25V25.5155C33.25 24.9577 33.2937 24.8046 33.5234 24.5858C33.6875 24.4108 33.9172 24.3124 34.125 24.3124C34.3328 24.3124 34.5625 24.4108 34.7266 24.5858Z" fill="#423DF9"></path><path d="M31.4672 28.1186C31.3141 28.2936 31.2812 28.5999 31.2812 30.0764C31.2812 32.1983 31.2812 32.1874 32.4625 32.1874H33.25V30.0546V27.9218H32.4516C31.8062 27.9218 31.6094 27.9655 31.4672 28.1186Z" fill="#423DF9"></path><path d="M35 36.0702V38.203H35.7984C36.9688 38.203 36.9688 38.2139 36.9688 36.0483C36.9688 33.9264 36.9688 33.9374 35.7875 33.9374H35V36.0702Z" fill="#423DF9"></path><circle cx="49" cy="18" r="18" fill="#423DF9" fill-opacity="0.2"></circle></svg>