<svg xmlns="http://www.w3.org/2000/svg" width="64" height="58" viewBox="0 0 64 58" fill="none"><path d="M18.4406 8.0375C18.2984 8.23438 18.2656 8.59531 18.2656 9.73281V11.1875H23.8438H29.4219V9.73281C29.4219 8.59531 29.3891 8.23438 29.2469 8.0375L29.0828 7.79688H23.8438H18.6047L18.4406 8.0375Z" fill="#423DF9"></path><path d="M11.7145 13.0687C11.2333 13.1999 10.8067 13.528 10.5551 13.9546C10.2598 14.4468 8.42233 22.0483 8.57545 22.1358C8.69576 22.2015 11.9442 22.464 15.4223 22.6718C20.5739 22.989 27.3442 22.989 32.4848 22.6718C36.1161 22.453 39.2114 22.2015 39.3317 22.1358C39.4848 22.0483 37.6473 14.4577 37.352 13.9546C37.0895 13.5062 36.6848 13.2108 36.138 13.0577C35.5801 12.9046 12.2614 12.9046 11.7145 13.0687Z" fill="#423DF9"></path><path d="M5.08594 20.3203C4.87812 20.5172 4.8125 20.7031 4.8125 21.064C4.8125 21.7312 5.12969 22.0156 5.99375 22.0922L6.63906 22.1469L6.86875 21.2172C7 20.6922 7.10938 20.2219 7.10938 20.1562C7.10938 20.0906 6.75937 20.0469 6.23438 20.0469C5.43594 20.0469 5.32656 20.0797 5.08594 20.3203Z" fill="#423DF9"></path><path d="M40.7969 20.1562C40.7969 20.2219 40.9062 20.6922 41.0375 21.2172L41.2672 22.1469L41.9234 22.0922C42.4156 22.0484 42.6453 21.9719 42.8312 21.775C43.225 21.3703 43.225 20.714 42.8203 20.3203C42.5797 20.0797 42.4703 20.0469 41.6719 20.0469C41.1469 20.0469 40.7969 20.0906 40.7969 20.1562Z" fill="#423DF9"></path><path d="M6.08125 25.3953L4.55 26.9265L6.7375 26.9594C8.8375 26.9922 8.93594 27.0031 9.5375 27.2875C10.8281 27.889 11.7797 29.1469 12.0531 30.6125C12.1187 30.9734 12.1406 31.4547 12.0969 31.6844C11.9984 32.2203 11.3641 32.9203 10.85 33.0625C10.6094 33.1281 8.97969 33.1719 6.97812 33.1719H3.5V33.8719C3.5 34.2765 3.59844 34.889 3.72969 35.3156C3.92656 35.939 4.06875 36.1578 4.6375 36.7375C5.74219 37.8312 4.93281 37.7656 16.2641 37.7656H26.0312V37.514C26.0312 37.2734 26.3922 35.6765 26.5234 35.3375C26.5891 35.1625 26.2609 35.1515 21.4703 35.1187C15.7281 35.0859 15.9359 35.1078 15.0828 34.2547C14.5031 33.675 13.3438 31.3234 13.3438 30.7219C13.3438 30.1203 13.7375 29.3547 14.2078 29.0484L14.5797 28.7969H22.7937H31.0187L31.6094 28.3484C33.6219 26.839 36.0938 25.8875 38.7188 25.614C39.7578 25.5047 41.3875 25.5484 41.9453 25.7015C42.0656 25.7344 41.7594 25.3406 41.2234 24.8047L40.2828 23.864L37.3406 24.0828C26.4141 24.925 20.3656 24.8922 8.42188 23.9187L7.60156 23.8531L6.08125 25.3953Z" fill="#423DF9"></path><path d="M38.8826 27.3421C36.7389 27.539 34.4092 28.4359 32.6483 29.7484C26.5123 34.3203 25.867 43.2562 31.2811 48.5828C37.0123 54.2265 46.4404 53.089 50.6514 46.2531C53.9983 40.8062 52.642 33.6421 47.5233 29.7921C46.5498 29.0593 44.6139 28.1078 43.4108 27.7687C41.9889 27.364 40.3373 27.2109 38.8826 27.3421ZM40.6764 30.9406C40.8623 31.1812 40.9061 31.389 40.9061 32.1328V33.0406L41.7045 33.0843C43.0389 33.1499 44.1436 33.9046 44.7123 35.1296C45.0951 35.9609 45.117 36.9343 44.7451 37.2296C44.3623 37.5359 43.8154 37.5031 43.542 37.1531C43.4108 36.989 43.3123 36.7265 43.3123 36.5734C43.3123 36.1578 42.8748 35.3593 42.5139 35.0968C42.2295 34.889 42.0217 34.8671 40.3264 34.8343C39.2983 34.8124 38.292 34.8234 38.0951 34.8671C37.6139 34.9546 37.0014 35.5781 36.8592 36.1249C36.6623 36.8687 37.0779 37.8312 37.7779 38.2359C37.9311 38.3234 38.7623 38.389 40.1951 38.4218C42.1201 38.4765 42.4483 38.5093 42.8967 38.7171C43.6186 39.0453 44.3514 39.7671 44.7014 40.489C44.9529 41.0031 45.0076 41.2437 45.0076 41.9765C45.0076 42.7093 44.9529 42.9499 44.7014 43.464C44.0998 44.689 42.8092 45.5312 41.5076 45.5312H40.9061V46.4609C40.9061 47.314 40.8842 47.4234 40.6326 47.664C40.2826 48.0249 39.7795 48.0249 39.4295 47.664C39.1779 47.4234 39.1561 47.314 39.1561 46.4609V45.5312H38.5545C36.7498 45.5312 35.1092 43.9453 35.0654 42.1734C35.0545 41.6703 35.0983 41.539 35.317 41.364C35.6561 41.0906 36.2467 41.0906 36.5092 41.3859C36.6295 41.5062 36.7498 41.8343 36.7936 42.1078C36.8811 42.764 37.1873 43.2453 37.7123 43.5406C38.117 43.7593 38.292 43.7812 40.0201 43.7812C41.6717 43.7812 41.9451 43.7593 42.317 43.5624C43.5201 42.9499 43.5967 41.189 42.4592 40.4781C42.0873 40.2484 41.9014 40.2265 39.9217 40.1718C37.9092 40.1171 37.7561 40.0953 37.1873 39.8328C36.3233 39.4281 35.8201 38.9468 35.4264 38.1374C34.7811 36.8359 34.9889 35.3374 35.9514 34.2656C36.6295 33.5109 37.3623 33.1499 38.3686 33.0843L39.1561 33.0296V32.1109C39.1561 31.2796 39.1779 31.1703 39.4295 30.9296C39.8014 30.5468 40.3701 30.5578 40.6764 30.9406Z" fill="#423DF9"></path><path d="M3.5 30.0438V31.4219H6.95625H10.4125L10.3359 30.9516C10.2156 30.2406 9.74531 29.475 9.1875 29.0922L8.69531 28.7422L6.10312 28.7094L3.5 28.6766V30.0438Z" fill="#423DF9"></path><path d="M15.0938 30.7109C15.0938 30.9953 16.1984 32.9422 16.4828 33.1719C16.7563 33.3797 16.9203 33.3906 22.05 33.3906H27.3328L27.7266 32.7016C27.9563 32.3297 28.2625 31.8484 28.4156 31.6406C28.5687 31.4328 28.8203 31.0938 28.9625 30.8969L29.225 30.5469H22.1594C16.0016 30.5469 15.0938 30.5688 15.0938 30.7109Z" fill="#423DF9"></path><path d="M7.24062 41.4516L7.27344 43.3984H9.84375H12.4141L12.4469 41.4516L12.4688 39.5156H9.84375H7.21875L7.24062 41.4516Z" fill="#423DF9"></path><circle cx="46" cy="18" r="18" fill="#423DF9" fill-opacity="0.2"></circle></svg>