<svg xmlns="http://www.w3.org/2000/svg" width="68" height="67" viewBox="0 0 68 67" fill="none"><path d="M13.9236 15.4733C9.12199 16.239 5.69855 20.3952 5.93918 25.153C6.04855 27.3405 6.67199 28.9811 8.09387 30.764C9.11105 32.0436 11.2111 33.378 12.8626 33.7936C15.1267 34.3733 17.1392 34.1874 19.2392 33.2249L19.8298 32.9515L20.1032 33.2686C21.0329 34.3952 21.5142 34.8874 22.1704 35.3796C25.7689 38.0811 30.5267 38.2343 34.2345 35.7733C34.6392 35.4999 35.4048 34.8327 35.9189 34.2968L36.8595 33.3015L37.7345 33.5858C38.9923 33.9796 40.0314 34.1108 41.2345 34.0452C42.5251 33.9686 43.4329 33.739 44.6032 33.1921C47.2173 31.989 49.022 29.8343 49.7767 27.0233C50.1486 25.678 50.1157 23.5452 49.722 22.2218C49.2189 20.5593 48.5845 19.4436 47.4798 18.2843C46.2548 17.0155 45.1173 16.3046 43.422 15.7577C42.1642 15.353 40.1407 15.2546 38.872 15.539C37.122 15.9218 35.6236 16.6765 34.4095 17.7921L33.8079 18.339L33.2282 18.0436C31.6423 17.2343 30.2314 16.9061 28.4267 16.9061C26.4907 16.9061 24.7407 17.3765 23.1876 18.3171L22.4767 18.7436L21.7657 18.0655C20.5189 16.8733 19.1736 16.1186 17.5548 15.703C16.5814 15.4515 14.7986 15.3421 13.9236 15.4733ZM16.3189 18.4811C17.522 18.6999 18.6704 19.2796 19.5564 20.1327C20.2017 20.7452 20.2782 20.8546 20.1579 21.0296C19.1845 22.4624 18.6048 23.753 18.3204 25.1968C18.0907 26.3015 18.1454 28.7624 18.4079 29.6921L18.572 30.2718L17.8939 30.578C16.9861 30.9827 16.1767 31.1577 15.2032 31.1577C13.4423 31.1577 11.9767 30.5452 10.7079 29.2765C9.43918 28.0077 8.82668 26.5421 8.82668 24.7811C8.82668 24.3327 8.88137 23.6874 8.95793 23.3593C9.52668 20.9421 11.6157 18.9296 14.0111 18.4921C15.0501 18.3061 15.3017 18.3061 16.3189 18.4811ZM42.197 18.4921C44.5048 19.039 46.4407 20.9858 46.9876 23.3374C47.2173 24.289 47.1407 25.8858 46.8236 26.7827C46.1017 28.839 44.4064 30.4249 42.372 30.9608C41.4861 31.1905 39.9329 31.1686 39.0142 30.9171C38.6095 30.8077 38.2486 30.6874 38.2157 30.6655C38.1939 30.6327 38.2814 30.2171 38.4126 29.7468C38.6314 29.003 38.6642 28.6421 38.6532 27.1327C38.6532 25.5577 38.6204 25.2843 38.3579 24.4202C37.9751 23.1624 37.3954 22.014 36.6845 21.0624L36.1048 20.3077L36.6626 19.8046C38.0298 18.5796 40.2829 18.0436 42.197 18.4921ZM30.2095 20.0671C32.8892 20.7561 34.9126 22.7796 35.6017 25.4374C35.8314 26.3343 35.8314 28.0952 35.6017 28.9921C34.9782 31.4202 33.0642 33.4546 30.6798 34.2311C28.7767 34.8436 26.4032 34.5593 24.6314 33.5093C23.6579 32.9296 22.5423 31.7483 22.0064 30.7093C20.847 28.489 20.8032 26.1483 21.8861 23.928C22.2579 23.1624 22.5204 22.8124 23.2861 22.0468C24.2923 21.0515 25.047 20.5811 26.2501 20.1983C27.1689 19.914 27.322 19.8921 28.4486 19.8702C29.0611 19.8593 29.6736 19.9358 30.2095 20.0671Z" fill="#08D9C4"></path><path d="M11.7578 36.6047C7.71094 37.2172 4.21094 40.05 2.70156 43.9109C2.05625 45.5734 1.96875 46.3172 1.96875 50.4297C1.96875 53.9297 1.97969 54.1703 2.1875 54.4984C2.61406 55.1984 2.50469 55.1875 8.35625 55.1875H13.65L13.6937 57.6266C13.7266 60.3172 13.7594 60.4484 14.4703 60.875C14.8094 61.0828 15.1375 61.0938 28.4375 61.0938C41.4203 61.0938 42.0766 61.0828 42.4266 60.8969C43.1375 60.5141 43.2031 60.2406 43.2031 57.5719V55.1875H48.1031C52.7625 55.1875 53.0141 55.1766 53.3422 54.9687C54.0203 54.5641 54.0312 54.4875 54.0312 50.4516C54.0312 46.5359 53.9656 45.8141 53.4406 44.2937C52.1063 40.3672 48.7156 37.4359 44.625 36.6594C43.3672 36.4187 38.1391 36.4078 36.8922 36.6484C34.5516 37.0969 32.375 38.2453 30.7891 39.8641L30.2531 40.4219H28.0219H25.7797L25.0031 39.6781C23.5594 38.3109 21.8203 37.3484 19.7969 36.8125C18.9438 36.5828 18.5938 36.5609 15.6406 36.5281C13.8687 36.5172 12.1187 36.55 11.7578 36.6047ZM19.3594 39.7547C20.1906 39.9953 21.6672 40.7172 21.7328 40.9141C21.7547 40.9797 21.4484 41.1437 21.0547 41.275C19.4688 41.8437 17.5 43.2875 16.3625 44.6984C14.7219 46.7547 14.0219 48.5922 13.7156 51.6L13.6609 52.2344H9.275H4.9L4.94375 49.2484L4.9875 46.2734L5.31562 45.3328C6.07031 43.1891 7.51406 41.4719 9.41719 40.4766C11.2 39.5469 11.8234 39.4375 15.5312 39.4812C18.2656 39.5141 18.6156 39.5359 19.3594 39.7547ZM44.6031 39.6562C47.0641 40.2469 49.1312 41.9094 50.2687 44.1953C51.0125 45.7156 51.1 46.1641 51.1547 48.7781C51.1875 50.025 51.1766 51.3156 51.1328 51.6437L51.0672 52.2344H47.1297H43.2031V51.8078C43.2031 51.5672 43.1484 50.9984 43.0828 50.5281C42.6672 47.4875 41.0156 44.6328 38.6203 42.8172C37.7891 42.1937 35.7875 41.1547 34.9891 40.9578C34.6937 40.8812 34.4531 40.7828 34.4531 40.75C34.4531 40.6078 36.1594 39.875 36.9688 39.6672C37.6797 39.4812 38.1719 39.4484 40.7422 39.4484C43.3234 39.4375 43.8047 39.4703 44.6031 39.6562ZM33.7422 43.6812C36.7391 44.4906 39.0359 46.7328 39.9328 49.7187C40.1625 50.4844 40.1844 50.7906 40.2281 54.3344L40.2719 58.1406H28.4484H16.625V55.0453C16.625 53.35 16.6797 51.5344 16.7453 51.0312C17.2266 47.0828 20.3328 43.9766 24.2594 43.4844C24.6641 43.4297 26.7641 43.4078 28.9297 43.4187C32.5609 43.4516 32.9328 43.4734 33.7422 43.6812Z" fill="#08D9C4"></path><circle cx="50" cy="18" r="18" fill="#08D9C4" fill-opacity="0.2"></circle></svg>