<svg xmlns="http://www.w3.org/2000/svg" width="52" height="59" viewBox="0 0 52 59" fill="none"><circle cx="33" cy="18" r="18" fill="#423DF9" fill-opacity="0.1"></circle><path d="M14.2284 10.006C11.9433 10.6154 10.3792 13.0326 10.755 15.3685C11.3745 19.2177 15.894 20.8021 18.7987 18.2021C20.4745 16.6888 20.83 13.9974 19.6011 12.0779C18.9511 11.0623 17.7628 10.2091 16.6456 9.95522C16.0159 9.80288 14.8683 9.83334 14.2284 10.006Z" fill="#423DF9"></path><path d="M11.2222 23.0874C9.94255 23.4022 8.90661 24.2452 8.31755 25.4335L7.97224 26.1444L7.94177 33.3046C7.92146 37.2452 7.94177 40.6171 7.97224 40.7999C8.01286 41.003 8.21599 41.3382 8.44958 41.5921C8.97771 42.171 9.54646 42.3436 10.8871 42.3436H11.8824L11.9027 48.6811C11.9332 54.9069 11.9332 55.0288 12.1465 55.303C12.6238 55.9429 13.2941 56.2069 14.0355 56.0343C14.5332 55.9225 15.1019 55.5264 15.2543 55.1811C15.4066 54.846 15.5691 54.8764 15.8535 55.2827C16.5035 56.2272 17.9051 56.3491 18.6465 55.5264C19.0933 55.0389 19.0933 55.11 19.0933 48.61V42.3639L20.3426 42.3233C21.7035 42.2725 21.9676 42.1913 22.516 41.6124C23.1254 40.9827 23.1051 41.2468 23.1355 34.0358C23.1558 30.1866 23.1254 27.0991 23.0644 26.6929C22.8207 24.9257 21.5918 23.5546 19.8551 23.0975C19.073 22.8944 12.0347 22.8843 11.2222 23.0874Z" fill="#423DF9"></path><path d="M32.4991 30.4608C32.2655 30.6944 32.235 31.1514 32.4382 31.4358C32.5499 31.578 32.7429 31.6389 33.2304 31.6795L33.8702 31.7303V34.6249V37.5194L32.7022 37.5702C31.4429 37.6311 31.1382 37.7327 30.6507 38.2506C30.0413 38.8905 30.0616 38.6366 30.0616 46.3553C30.0616 54.0741 30.0413 53.8202 30.6507 54.46C30.803 54.6225 31.0975 54.846 31.3108 54.9475C31.6764 55.1405 31.9202 55.1405 37.2116 55.1202L42.7366 55.0897L43.1733 54.785C43.4069 54.6124 43.7116 54.2772 43.8436 54.0335L44.0772 53.5866V46.3655V39.1342L43.8538 38.6874C43.7116 38.4233 43.4374 38.1085 43.1835 37.9256C42.7569 37.6311 42.6858 37.621 41.528 37.5905L40.3194 37.5499V34.6147V31.6795H40.9085C41.6194 31.6795 41.8429 31.4967 41.8429 30.9381C41.8429 30.2475 41.9241 30.2577 37.0491 30.2577C32.8343 30.2577 32.6921 30.2678 32.4991 30.4608ZM38.8975 34.6249V37.5702H37.1202H35.3429V34.6249V31.6795H37.1202H38.8975V34.6249ZM37.6788 40.678C37.8108 40.81 37.8311 41.5819 37.8311 46.3655V51.9108L37.5874 52.1038C37.2827 52.3475 36.9577 52.3475 36.653 52.1038L36.4093 51.9108L36.3788 46.528C36.3585 43.085 36.3889 41.0538 36.46 40.8811C36.6327 40.4241 37.303 40.3124 37.6788 40.678ZM34.1444 42.821C34.3171 42.9733 34.3272 43.217 34.3272 46.3858C34.3272 50.1741 34.3272 50.1639 33.6569 50.1639C33.2913 50.1639 33.0374 49.971 32.9561 49.6256C32.9257 49.5038 32.9054 47.9499 32.9257 46.1725C32.9561 43.1053 32.9663 42.9327 33.1491 42.7905C33.4233 42.5975 33.9108 42.6077 34.1444 42.821ZM41.071 42.8717C41.2132 43.0647 41.2335 43.5827 41.2335 46.4264C41.2335 49.6256 41.2233 49.7678 41.0304 49.9608C40.9186 50.0725 40.6952 50.1639 40.5225 50.1639C40.3499 50.1639 40.1264 50.0725 40.0147 49.9608C39.8218 49.7678 39.8116 49.6256 39.8116 46.3858C39.8116 42.5975 39.8014 42.6483 40.5327 42.6483C40.8171 42.6483 40.9593 42.7092 41.071 42.8717Z" fill="#423DF9"></path></svg>