<svg xmlns="http://www.w3.org/2000/svg" width="70" height="58" viewBox="0 0 70 58" fill="none"><path d="M32.5393 5.65313C32.1127 5.83906 31.6533 6.38594 31.5658 6.77969C31.3799 7.69844 31.1611 10.0719 31.0955 11.8438C30.8221 20.4844 33.8518 25.7562 41.158 29.3547C42.044 29.7922 42.6018 30 42.8752 30C43.1486 30 43.7065 29.7922 44.5924 29.3547C50.9471 26.2266 53.9658 21.9391 54.5893 15.1687C54.7424 13.4188 54.6549 10.3016 54.3705 8.15781C54.1955 6.79062 54.1299 6.55 53.8674 6.2C53.3096 5.46719 53.8783 5.5 42.8533 5.5C34.8033 5.51094 32.8018 5.53281 32.5393 5.65313ZM51.0455 9.73281C51.2096 11.1438 51.144 15.2891 50.9252 16.4922C50.4111 19.3469 49.394 21.3922 47.6002 23.1641C46.6924 24.0719 45.0846 25.2094 43.7283 25.8984L42.8752 26.3359L42.033 25.8984C40.6877 25.2094 39.058 24.0828 38.1611 23.1859C36.3893 21.4359 35.3393 19.3469 34.8252 16.4922C34.6065 15.2891 34.5408 11.1438 34.7049 9.73281L34.8033 9H42.8752H50.9471L51.0455 9.73281Z" fill="#08D9C4"></path><path d="M45.6643 11.7782C45.1502 12.0079 44.9643 12.2813 43.5861 14.7969C42.8752 16.0875 42.2408 17.2141 42.1861 17.2907C42.1096 17.3891 41.858 17.2141 41.2127 16.6016C40.2721 15.6938 40.0314 15.5625 39.3424 15.5625C38.6971 15.5625 38.1721 15.8797 37.8768 16.4375C37.3189 17.4875 37.5705 18.0016 39.7143 20.1235C41.7924 22.1797 42.2408 22.3985 43.2471 21.9063C43.8049 21.6438 43.7502 21.7204 46.1127 17.4766C47.9939 14.0969 48.0596 13.9547 48.0705 13.3532C48.0705 12.686 47.8846 12.336 47.3377 11.9204C46.9658 11.6469 46.1018 11.5704 45.6643 11.7782Z" fill="#08D9C4"></path><path d="M14.2734 26.6532C13.3547 26.9375 12.5891 27.5719 12.2063 28.3485C12.0641 28.6219 11.3422 30.6782 10.5984 32.9094L9.25312 36.9782L7.65625 37.0219C6.25625 37.0657 6.00469 37.0985 5.52344 37.3282C4.83438 37.6672 4.17812 38.3235 3.82812 39.0235L3.55469 39.5704V43.125V46.6797L3.85 47.2375C4.2875 48.0688 4.61563 48.4079 5.38125 48.8235L6.07031 49.1954L8.32344 49.2282L10.5766 49.2719L10.7078 49.8188C11.1453 51.7438 12.7859 53.5157 14.7437 54.1938C15.7828 54.5438 17.4672 54.5438 18.5062 54.1938C20.4641 53.5157 22.1047 51.7438 22.5531 49.8079L22.6734 49.25H28H33.3266L33.4469 49.8079C33.8953 51.7438 35.5359 53.5157 37.4937 54.1938C38.5328 54.5438 40.2172 54.5438 41.2562 54.1938C43.2141 53.5157 44.8328 51.7657 45.2812 49.8297L45.4125 49.2719L47.6656 49.2282L49.9297 49.1954L50.6187 48.8235C51.3844 48.4079 51.7125 48.0688 52.15 47.2375L52.4453 46.6797V43.8907C52.4453 40.7297 52.4125 40.5547 51.5266 39.5922C50.7609 38.761 50.3125 38.6407 45.5656 37.8641L41.3109 37.1641L38.1719 32.45C36.4219 29.836 34.8359 27.5829 34.6062 27.375C34.3766 27.1782 33.9719 26.9157 33.6984 26.7844C33.1953 26.5547 33.0969 26.5547 23.9531 26.5329C16.7344 26.5219 14.6125 26.5438 14.2734 26.6532ZM22.75 33.5V36.9891L19.3703 37.0219C16.1438 37.0547 15.9688 37.0657 15.6844 37.2844C15.1047 37.711 14.9297 38.061 14.9297 38.75C14.9297 39.4391 15.1047 39.7891 15.6844 40.2157C15.9797 40.4454 16.0562 40.4454 25.375 40.4454C34.6938 40.4454 34.7703 40.4454 35.0656 40.2157C35.6453 39.7891 35.8203 39.4391 35.8203 38.75C35.8203 38.061 35.6453 37.711 35.0656 37.2844C34.7812 37.0657 34.6172 37.0547 30.5047 37.0219L26.25 36.9891V33.5V30H29.2906L32.3203 30.011L35.6562 34.9985C37.4937 37.7547 39.1234 40.0954 39.2766 40.2047C39.4734 40.3469 40.7969 40.6094 44.275 41.1891L49 41.9766V43.8579V45.75H46.9547H44.8984L44.6359 45.2907C43.9797 44.1422 42.5906 43.0157 41.2562 42.5563C40.2172 42.2063 38.5328 42.2063 37.4937 42.5563C36.1594 43.0157 34.7703 44.1422 34.1141 45.2907L33.8516 45.75H28H22.1484L21.8859 45.2907C21.2297 44.1422 19.8406 43.0157 18.5062 42.5563C17.4672 42.2063 15.7828 42.2063 14.7437 42.5563C13.4094 43.0157 12.0203 44.1422 11.3641 45.2907L11.1016 45.75H9.05625H7V43.125V40.5H8.925C11.0687 40.5 11.3969 40.4235 11.8562 39.8C12.0094 39.6032 12.775 37.4594 13.6828 34.725L15.2578 30H18.9984H22.75V33.5ZM17.4344 45.8813C18.375 46.1657 19.25 47.3688 19.25 48.375C19.25 49.7313 17.9812 51 16.625 51C15.2688 51 14 49.7313 14 48.375C14 47.686 14.2516 47.1282 14.8203 46.5704C15.5859 45.7938 16.4062 45.586 17.4344 45.8813ZM40.1844 45.8813C41.125 46.1657 42 47.3688 42 48.375C42 49.7313 40.7313 51 39.375 51C38.0187 51 36.75 49.7313 36.75 48.375C36.75 47.686 37.0016 47.1282 37.5703 46.5704C38.3359 45.7938 39.1562 45.586 40.1844 45.8813Z" fill="#08D9C4"></path><circle cx="52" cy="18" r="18" fill="#08D9C4" fill-opacity="0.2"></circle></svg>