<svg xmlns="http://www.w3.org/2000/svg" width="57" height="59" viewBox="0 0 57 59" fill="none"><circle cx="39" cy="18" r="18" fill="#423DF9" fill-opacity="0.1"></circle><path d="M24.3344 7.15229C20.7695 7.8937 18.0883 10.3921 17.1539 13.8554C16.8289 15.0234 16.8289 17.2578 17.1539 18.4257C18.0172 21.6148 20.5766 24.1539 23.7656 24.9968C24.8727 25.2812 26.9852 25.3117 28.0617 25.0476C32.0531 24.0624 34.8766 20.6804 35.1102 16.5976C35.3539 12.332 32.4492 8.3812 28.2852 7.29448C27.2289 7.02026 25.3094 6.94917 24.3344 7.15229Z" fill="#423DF9"></path><path d="M14.4729 26.9872C13.3861 27.363 12.5432 28.0536 12.0861 28.9372C11.9033 29.313 7.83066 39.3575 7.5666 40.109C7.37363 40.6676 7.37363 41.7747 7.5666 42.3536C7.65801 42.5973 7.87129 42.9934 8.0541 43.227C8.23691 43.4708 9.74004 44.8012 11.3955 46.2028C14.2088 48.559 14.4627 48.752 14.9502 48.8434C15.2346 48.9044 15.4885 48.9247 15.5189 48.8942C15.5799 48.8434 17.2658 43.6942 17.2658 43.5825C17.2658 43.5317 16.89 43.3895 16.433 43.2676C15.7932 43.0848 15.3971 43.0442 14.7268 43.0747L13.8635 43.1051L13.8025 41.6325C13.7721 40.82 13.7619 40.1395 13.7822 40.1192C13.7924 40.0989 14.1174 40.0583 14.4932 40.0278C15.1736 39.977 15.1838 39.977 15.59 39.4794C16.1182 38.8192 17.4588 37.6411 18.3424 37.0419C21.8057 34.7262 26.1932 34.0965 30.1643 35.3559C32.49 36.0973 34.9072 37.6817 36.2986 39.3778L36.7963 39.9872L37.4971 40.0278C37.883 40.0583 38.208 40.0989 38.2182 40.1192C38.2385 40.1395 38.2283 40.82 38.1979 41.6325L38.1369 43.1051L37.2736 43.0747C36.6033 43.0442 36.2072 43.0848 35.5674 43.2676C35.1103 43.3895 34.7346 43.5317 34.7346 43.5825C34.7346 43.6231 35.1205 44.8419 35.5979 46.2739L36.451 48.8942L36.8775 48.8637C37.1111 48.8434 37.3854 48.7926 37.4768 48.7622C37.8018 48.6301 43.7229 43.552 44.0072 43.1559C44.1596 42.9426 44.3525 42.5669 44.4338 42.3333C44.6268 41.795 44.6268 40.6575 44.4338 40.1192C44.251 39.5809 40.3713 29.9731 40.0564 29.252C39.5689 28.1551 38.7361 27.4036 37.5986 27.0176C36.9791 26.8044 36.8268 26.8044 25.9799 26.8044C15.8135 26.8145 14.94 26.8247 14.4729 26.9872Z" fill="#423DF9"></path><path d="M23.8678 37.9664C22.3037 38.3117 21.1662 38.8094 19.8459 39.7133C18.9623 40.3227 18.5967 40.6883 18.7998 40.7594C18.8811 40.7898 19.4092 40.9422 19.9881 41.1148C20.567 41.2773 21.0647 41.4398 21.1053 41.4805C21.1358 41.5109 20.9631 42.1406 20.7193 42.882C20.4756 43.6234 20.0897 44.832 19.8459 45.5633L19.4193 46.9141L20.2928 46.9039H21.1764L21.5217 46.1727C22.4256 44.2734 24.6295 43.1156 26.7217 43.4305C28.3467 43.6844 29.7889 44.7406 30.4795 46.1727L30.8248 46.9039H31.7084L32.5819 46.9141L32.1553 45.5633C31.9115 44.832 31.5256 43.6234 31.2819 42.882C31.0381 42.1406 30.8553 41.5109 30.8959 41.4805C30.9264 41.45 31.4647 41.2773 32.0842 41.0945C32.7139 40.9117 33.2319 40.7187 33.242 40.668C33.2522 40.5258 32.1553 39.6523 31.3834 39.2156C29.6772 38.2305 28.3365 37.8648 26.2545 37.8141C25.0358 37.7836 24.5584 37.8141 23.8678 37.9664Z" fill="#423DF9"></path><path d="M25.2383 46.5996C24.5477 46.9043 23.9688 47.7473 23.9688 48.4379C23.9688 49.2402 24.6391 50.0832 25.4516 50.327C25.9492 50.4691 26.0508 50.4691 26.5484 50.327C27.3609 50.0832 28.0312 49.2402 28.0312 48.4379C28.0312 48.0621 27.7875 47.4832 27.493 47.148C26.8836 46.4473 26.0203 46.2441 25.2383 46.5996Z" fill="#423DF9"></path><path d="M18.0273 51.1797C17.6719 52.2664 17.6109 52.3883 17.4281 52.3477C16.6766 52.175 16.0469 52.1344 16.0469 52.2461C16.0469 52.5203 16.9102 54.0742 17.4789 54.8258C18.9312 56.7555 21.0336 58.1672 23.3492 58.7563C23.8672 58.8883 24.3344 59 24.3852 59C24.4359 59 24.4766 57.7102 24.4766 56.1258V53.2617L23.7758 52.9367C22.8414 52.5 21.9578 51.6164 21.5109 50.6719L21.1758 49.9711H19.8047L18.4234 49.9609L18.0273 51.1797Z" fill="#423DF9"></path><path d="M30.4992 50.6617C30.0523 51.5961 29.1586 52.4898 28.2242 52.9367L27.5234 53.2617V56.1258C27.5234 57.7102 27.5641 59 27.6148 59C27.6656 59 28.1328 58.8883 28.6711 58.7563C31.5961 58.0148 34.1758 55.9227 35.5469 53.1906C35.9937 52.2867 36.0445 52.0531 35.7805 52.1344C35.6789 52.1547 35.3945 52.2055 35.1406 52.2461C34.8867 52.2867 34.6125 52.3273 34.5312 52.3578C34.4094 52.3883 34.2773 52.1242 33.9727 51.1797L33.5766 49.9609H32.1953H30.8242L30.4992 50.6617Z" fill="#423DF9"></path></svg>