<svg xmlns="http://www.w3.org/2000/svg" width="67" height="58" viewBox="0 0 67 58" fill="none"><g clip-path="url(#clip0_262_366)"><path d="M26.1953 2.10934C20.8469 2.95152 16.6031 6.80153 15.3016 11.975C14.9844 13.2547 14.8969 15.9125 15.1266 17.2578C15.6734 20.3968 17.3906 23.2843 19.8516 25.2312C20.3656 25.6468 20.7703 25.9968 20.7594 26.0078C20.7375 26.0296 20.2672 26.2156 19.7094 26.4343C12.9938 29.0156 7.74375 34.9765 5.96094 42.0203C5.425 44.1859 5.31563 45.3343 5.30469 48.9218C5.30469 51.8531 5.32656 52.3343 5.50156 52.914C6.08125 54.7843 7.42656 56.414 9.07813 57.2234C10.7516 58.0437 9.63594 58 28 58C46.3641 58 45.2484 58.0437 46.9219 57.2234C48.5516 56.425 49.8969 54.8171 50.4766 52.9687C50.7281 52.1812 50.8266 47.9156 50.6516 45.8265C49.8859 37.0328 44.5047 29.7593 36.3344 26.4453L35.2078 25.9859L35.9516 25.4062C38.5547 23.3718 40.3047 20.4625 40.8734 17.2578C41.125 15.7812 41.0266 13.2328 40.6547 11.8437C39.3531 7.00933 35.6563 3.4109 30.8438 2.31715C29.7609 2.06559 27.2016 1.95621 26.1953 2.10934ZM29.6953 5.44527C31.5766 5.7734 33.1844 6.58278 34.5844 7.89528C36.6406 9.82027 37.5922 11.8875 37.7016 14.6437C37.7891 16.7984 37.3953 18.3734 36.2906 20.2437C35.8422 21.0203 34.1688 22.7156 33.3156 23.2734C30.6906 24.9796 27.1906 25.2968 24.2594 24.0828C22.5641 23.3828 20.5953 21.7203 19.7094 20.2328C17.7844 17.0281 17.7625 13.2437 19.6219 10.039C20.2016 9.05465 22.0063 7.22808 22.9688 6.67027C25.0469 5.46715 27.3766 5.04058 29.6953 5.44527ZM30.1875 28.2609C36.6406 29.0593 42.0656 32.7453 45.15 38.4218C45.675 39.4062 46.3203 40.9156 46.2438 41.0031C46.2109 41.0359 45.8719 40.9812 45.5109 40.8828C44.7563 40.6859 43.1266 40.6531 42.5688 40.8171C42.2188 40.9265 42.2078 40.9156 41.9344 40.3578C40.1406 36.8031 36.7609 33.9265 32.9219 32.6906C31.0625 32.0781 30.0344 31.925 28 31.925C25.9656 31.925 24.9375 32.0781 23.0781 32.6796C19.25 33.9156 15.8594 36.814 14.0656 40.3578C13.7922 40.9156 13.7813 40.9265 13.4313 40.8171C12.8734 40.6531 11.2438 40.6859 10.4891 40.8828C10.1281 40.9812 9.78906 41.0359 9.75625 41.0031C9.67969 40.9156 10.325 39.4062 10.85 38.4218C13.7922 33.0078 19.1625 29.2015 25.0469 28.3703C25.4953 28.3046 25.9875 28.2281 26.1406 28.2062C26.7641 28.1187 29.3234 28.1515 30.1875 28.2609ZM30.7672 35.4687C32.9766 35.9609 34.8688 37.0109 36.5969 38.6953C37.7125 39.789 38.7078 41.1453 39.2547 42.3265L39.5063 42.8843L39.2328 43.464C38.9047 44.1859 38.7188 44.8093 38.7188 45.2796C38.7188 46.0015 38.8719 45.9687 35.7547 45.9687H32.9328L32.6375 45.3671C32.2984 44.6343 31.325 43.5515 30.6578 43.1578C29.0828 42.239 26.9172 42.239 25.3422 43.1578C24.675 43.5515 23.7016 44.6343 23.3625 45.3671L23.0672 45.9687H20.2453C17.1281 45.9687 17.2813 46.0015 17.2813 45.2796C17.2813 44.7984 17.0953 44.164 16.7563 43.464L16.4719 42.8843L16.9313 41.9765C18.8016 38.3343 22.3344 35.8187 26.3813 35.25C27.3984 35.1078 29.6516 35.2171 30.7672 35.4687ZM13.2125 44.2734C13.3875 44.3828 13.6609 44.6781 13.8031 44.9187C14.0547 45.3562 14.0547 45.4328 14.0875 48.7578C14.1094 50.6281 14.0984 52.4546 14.0547 52.8265C13.9672 53.6687 13.6719 54.139 13.0156 54.4781C12.4031 54.7953 11.55 54.7515 10.6969 54.3578C9.85469 53.975 9.35156 53.4937 8.94688 52.6625L8.58594 51.9406L8.55313 49.6C8.52031 47.489 8.53125 47.2046 8.73906 46.5265C9.34063 44.5578 11.6813 43.3765 13.2125 44.2734ZM45.4672 44.3609C46.2875 44.7875 46.9875 45.6187 47.2609 46.5265C47.4688 47.2046 47.4797 47.489 47.4469 49.6L47.4141 51.9406L47.0531 52.6625C46.6484 53.4937 46.1453 53.975 45.3031 54.3578C43.6297 55.1343 42.1422 54.5 41.9453 52.9359C41.9016 52.6187 41.8906 50.7921 41.9125 48.8671C41.9453 45.039 41.9563 45.0171 42.6234 44.3828C43.2031 43.8578 44.4391 43.8468 45.4672 44.3609ZM28.875 45.914C29.925 46.4609 30.1656 47.9046 29.3672 48.8015C28.6563 49.589 27.5625 49.6546 26.7859 48.9546C25.8344 48.1015 25.9656 46.625 27.0594 45.9578C27.475 45.7062 28.4266 45.6843 28.875 45.914ZM23.45 49.9281C23.8547 50.7921 24.7953 51.7218 25.6703 52.1484L26.3594 52.4765V53.5921V54.7187H21.6563H16.9641L17.1391 54.2484C17.2594 53.9093 17.325 53.1984 17.3578 51.514L17.4234 49.25L20.2781 49.2609H23.1328L23.45 49.9281ZM38.6422 51.514C38.675 53.1984 38.7406 53.9093 38.8609 54.2484L39.0359 54.7187H34.3438H29.6406V53.5921V52.4765L30.3078 52.1703C31.1719 51.7656 32.1344 50.8031 32.55 49.9281L32.8672 49.2609H35.7219L38.5766 49.25L38.6422 51.514Z" fill="#08D9C4"></path><path d="M24.0846 15.0046C23.3627 15.464 23.0783 16.4593 23.4611 17.203C23.8111 17.8812 25.2658 18.8108 26.4361 19.1171C27.2346 19.3249 28.7658 19.3249 29.5643 19.1171C30.7346 18.8108 32.1893 17.8812 32.5393 17.203C32.9221 16.4593 32.6377 15.453 31.9158 15.0155C31.3689 14.6874 30.7674 14.7312 30.1439 15.1468C29.0721 15.8687 28.7549 15.9999 28.033 15.9999C27.2127 15.9999 26.7533 15.8249 26.0752 15.278C25.4408 14.753 24.6533 14.6546 24.0846 15.0046Z" fill="#08D9C4"></path></g><circle cx="49" cy="18" r="18" fill="#08D9C4" fill-opacity="0.2"></circle><defs><clipPath id="clip0_262_366"><rect width="56" height="56" fill="white" transform="translate(0 2)"></rect></clipPath></defs></svg>