<svg xmlns="http://www.w3.org/2000/svg" width="40" height="30" viewBox="0 0 40 30" fill="none"><path fill-rule="evenodd" clip-rule="evenodd" d="M5 0C3.67392 0 2.40215 0.526784 1.46447 1.46447C0.526784 2.40215 0 3.67392 0 5V12.5C0 13.8261 0.526784 15.0979 1.46447 16.0355C2.40215 16.9732 3.67392 17.5 5 17.5H12.5C12.5 19.4891 11.7098 21.3968 10.3033 22.8033C8.89678 24.2098 6.98912 25 5 25H2.5C1.83696 25 1.20107 25.2634 0.732234 25.7322C0.263393 26.2011 0 26.837 0 27.5C0 28.163 0.263393 28.7989 0.732234 29.2678C1.20107 29.7366 1.83696 30 2.5 30H5C8.31521 30 11.4946 28.683 13.8388 26.3388C16.183 23.9946 17.5 20.8152 17.5 17.5V5C17.5 3.67392 16.9732 2.40215 16.0355 1.46447C15.0979 0.526784 13.8261 0 12.5 0H5ZM27.5 0C26.1739 0 24.9021 0.526784 23.9645 1.46447C23.0268 2.40215 22.5 3.67392 22.5 5V12.5C22.5 13.8261 23.0268 15.0979 23.9645 16.0355C24.9021 16.9732 26.1739 17.5 27.5 17.5H35C35 19.4891 34.2098 21.3968 32.8033 22.8033C31.3968 24.2098 29.4891 25 27.5 25H25C24.337 25 23.7011 25.2634 23.2322 25.7322C22.7634 26.2011 22.5 26.837 22.5 27.5C22.5 28.163 22.7634 28.7989 23.2322 29.2678C23.7011 29.7366 24.337 30 25 30H27.5C30.8152 30 33.9946 28.683 36.3388 26.3388C38.683 23.9946 40 20.8152 40 17.5V5C40 3.67392 39.4732 2.40215 38.5355 1.46447C37.5979 0.526784 36.3261 0 35 0H27.5Z" fill="#08D9C4" fill-opacity="0.2"></path></svg>