<svg xmlns="http://www.w3.org/2000/svg" width="67" height="58" viewBox="0 0 67 58" fill="none"><path d="M26.7428 5.63127C26.4475 5.68596 25.8022 5.92659 25.31 6.15627C21.5584 7.9719 20.7272 13.0031 23.7022 15.9453C26.6881 18.8985 31.6537 18.0672 33.4803 14.3047C35.6897 9.73284 31.7741 4.67971 26.7428 5.63127Z" fill="#423DF9"></path><path d="M17.3692 23.1641C17.0848 23.2407 16.6364 23.4266 16.3848 23.5798C15.8489 23.897 9.19886 29.3985 8.33479 30.2516C6.56292 31.9688 6.57386 34.8016 8.35667 36.5407C8.98011 37.1641 9.76761 37.5907 10.566 37.7657C10.9051 37.8423 12.7098 37.8751 15.4989 37.8532C19.7426 37.8204 19.9067 37.8095 20.191 37.5907C20.7707 37.1641 20.9457 36.8141 20.9457 36.1251C20.9457 35.436 20.7707 35.086 20.191 34.6595C19.9067 34.4407 19.7207 34.4298 15.4004 34.3751L10.916 34.3204L10.7082 34.0579C10.4457 33.7407 10.4457 33.2595 10.6973 32.9751C10.7957 32.8548 12.1082 31.7391 13.5957 30.5032C16.5489 28.0532 16.691 27.9766 17.227 28.5235C17.5004 28.786 17.5004 28.8188 17.5004 30.711C17.5004 32.6251 17.5004 32.6251 17.752 32.6251C17.9051 32.6251 18.091 32.4829 18.266 32.2204C19.0535 31.061 20.9567 29.486 22.5317 28.6876C24.3145 27.7907 25.8676 27.4407 28.0004 27.4407C30.1223 27.4407 31.6754 27.7907 33.4692 28.6876C35.0332 29.4751 36.9364 31.061 37.7348 32.2204C37.9098 32.4829 38.0957 32.6251 38.2598 32.6251C38.5004 32.6251 38.5004 32.6251 38.5004 30.711C38.5004 28.8188 38.5004 28.786 38.7739 28.5235C39.3098 27.9766 39.4629 28.0532 42.3504 30.4485C43.816 31.6626 45.1176 32.7673 45.2598 32.9204C45.5551 33.2485 45.566 33.7188 45.2926 34.0579L45.0848 34.3204L40.6004 34.3751C36.2801 34.4298 36.0942 34.4407 35.8098 34.6595C35.2301 35.086 35.0551 35.436 35.0551 36.1251C35.0551 36.8141 35.2301 37.1641 35.8098 37.5907C36.0942 37.8095 36.2582 37.8204 40.502 37.8532C43.2473 37.8751 45.0957 37.8423 45.4239 37.7657C47.7426 37.2735 49.3176 34.9766 48.9239 32.6688C48.7598 31.6954 48.3332 30.9079 47.5895 30.186C46.6707 29.2891 40.1848 23.9079 39.6379 23.5907C38.6207 22.9891 38.8176 23.0001 27.9457 23.011C20.0489 23.022 17.7739 23.0548 17.3692 23.1641Z" fill="#423DF9"></path><path d="M26.1738 29.2781C24.052 29.6828 21.9957 30.7656 20.5738 32.2203L20.1035 32.7125L20.6066 32.9422C20.891 33.0625 21.252 33.2594 21.4051 33.3906L21.6785 33.6094L22.3129 33.0297C25.4191 30.1859 30.5816 30.1859 33.6879 33.0297L34.3223 33.6094L34.5957 33.3906C34.7488 33.2594 35.1098 33.0625 35.4051 32.9313L35.9191 32.7016L35.1754 32.0016C33.8629 30.7547 32.3316 29.9125 30.527 29.4422C29.4441 29.1469 27.2676 29.0703 26.1738 29.2781Z" fill="#423DF9"></path><path d="M26.5234 32.7781C25.2984 33.0625 24.1172 33.6969 23.1109 34.6266C22.8484 34.8672 22.6406 35.1406 22.6406 35.2391C22.6516 35.3375 23.4937 36.0484 24.5984 36.8578L26.5453 38.3125L26.9172 38.1156C27.1578 37.9953 27.5406 37.9297 28 37.9297C28.4594 37.9297 28.8422 37.9953 29.0828 38.1156L29.4547 38.3125L31.4016 36.8578C32.4734 36.0703 33.3484 35.3375 33.3594 35.25C33.3594 35.0312 32.3094 34.0687 31.5766 33.6312C30.1328 32.7672 28.0766 32.4172 26.5234 32.7781Z" fill="#423DF9"></path><path d="M22.116 38.0828C21.9191 38.3781 21.5801 38.7391 21.3613 38.8813L20.9785 39.1328L21.0441 40.0078C21.077 40.4891 21.1863 41.1781 21.2957 41.5391L21.5035 42.1953L23.7785 42.2281L26.0535 42.25L25.8348 41.9547C25.4957 41.4625 25.3426 40.85 25.4082 40.2375L25.4738 39.6797L24.1066 38.6625C23.352 38.1047 22.6848 37.6234 22.6082 37.6016C22.5316 37.5687 22.3129 37.7875 22.116 38.0828Z" fill="#423DF9"></path><path d="M31.9592 38.6077L30.5264 39.6796L30.592 40.2265C30.6248 40.5218 30.6576 40.7843 30.6686 40.7843C30.6686 40.7952 30.9748 40.7624 31.3357 40.6968C31.6967 40.6421 32.6373 40.6093 33.4357 40.6312C35.0764 40.664 34.9998 40.7187 34.9998 39.6796C34.9998 39.1765 34.967 39.1109 34.5732 38.8265C34.3436 38.6515 34.0154 38.3015 33.8514 38.0281C33.6873 37.7656 33.5123 37.5468 33.4686 37.5468C33.4357 37.5468 32.7467 38.0281 31.9592 38.6077Z" fill="#423DF9"></path><path d="M17.5443 40.4782C17.6209 41.4516 17.96 42.8626 18.1131 42.8298C18.1678 42.8188 18.4631 42.7094 18.7584 42.5891C19.0646 42.4688 19.3818 42.3485 19.4803 42.3157C19.6443 42.2719 19.6443 42.2063 19.5131 41.7141C19.4365 41.4079 19.3381 40.8173 19.2943 40.3907L19.2178 39.6251H18.3428H17.4678L17.5443 40.4782Z" fill="#423DF9"></path><path d="M27.399 39.8984C26.8521 40.4344 27.2349 41.375 28.0005 41.375C28.449 41.375 28.8755 40.9484 28.8755 40.5C28.8755 40.0516 28.449 39.625 28.0005 39.625C27.7927 39.625 27.563 39.7234 27.399 39.8984Z" fill="#423DF9"></path><path d="M36.7504 39.9205C36.7504 40.0955 36.7176 40.4017 36.6848 40.6205L36.6191 41.0142L37.4176 41.2986C37.866 41.4517 38.2379 41.5611 38.2707 41.5392C38.3363 41.4626 38.4895 40.5001 38.4895 40.0298L38.5004 39.6251H37.6254H36.7504V39.9205Z" fill="#423DF9"></path><path d="M30.9424 42.5235C29.958 42.7094 28.744 43.136 27.8361 43.6063L27.1799 43.9454L23.3299 44C19.6658 44.0547 19.469 44.0657 19.1846 44.2844C18.6049 44.711 18.4299 45.061 18.4299 45.75C18.4299 46.4391 18.6049 46.7891 19.1846 47.2157C19.469 47.4344 19.6549 47.4454 23.5377 47.5L27.5846 47.5547L27.7924 47.8172C28.0768 48.1672 28.0549 48.6594 27.7268 48.9766L27.4643 49.25H22.8268H18.1783L13.169 46.9422C10.4018 45.6735 7.95176 44.5907 7.71114 44.525C6.11426 44.0985 4.75801 45.7829 5.41426 47.3688C5.5127 47.5875 5.67676 47.8719 5.79708 47.9922C6.16895 48.386 17.4564 53.9313 18.4299 54.2047C19.294 54.4344 19.3924 54.4454 28.908 54.4782L38.5002 54.511V49.1079C38.5002 44.9079 38.4674 43.6719 38.3689 43.5954C38.1064 43.3985 36.8049 42.9063 35.9299 42.6766C34.7815 42.3704 32.1674 42.2938 30.9424 42.5235Z" fill="#423DF9"></path><path d="M40.25 49.25V54.5H45.5H50.75V49.25V44H45.5H40.25V49.25ZM43.75 51.875V52.75H42.875H42V51.875V51H42.875H43.75V51.875Z" fill="#423DF9"></path><circle cx="49" cy="18" r="18" fill="#423DF9" fill-opacity="0.2"></circle></svg>