<svg xmlns="http://www.w3.org/2000/svg" width="314" height="160" viewBox="0 0 314 160" fill="none"><g clip-path="url(#clip0_668_1845)"><path d="M186.27 49.9859C187.172 47.7097 187.359 45.5412 186.159 43.4439C184.484 40.5186 181.07 39.5222 177.973 41.0006C176.892 41.5163 175.972 42.2531 175.142 43.1166C172.055 46.3286 169.044 49.6134 165.894 52.7666C165.252 53.4097 164.701 53.6963 163.772 53.4301C162.126 52.9585 160.44 52.6299 158.77 52.2432C158.422 52.1625 157.988 52.2132 157.85 51.7732C157.71 51.327 158.105 51.127 158.352 50.8734C162.117 47.0086 165.884 43.1463 169.65 39.2826C170.819 38.0829 171.947 36.8369 173.355 35.9018C177.756 32.9806 182.381 32.579 187.027 35.1014C191.685 37.6301 193.817 41.7594 193.762 47.0313C193.741 48.9755 193.288 50.8406 192.56 52.6293C192.323 53.2126 192.451 53.672 192.568 54.2445C192.928 56.0039 194.078 56.7052 195.673 57.2332C199.661 58.5532 203.583 60.072 207.587 61.3534C207.895 61.4519 208.208 61.5348 208.561 61.6374C208.962 60.5935 208.923 59.5174 209.069 58.4834C210.154 50.8001 211.195 43.1104 212.248 35.4224C213.5 26.2766 214.784 17.135 215.982 7.98204C216.425 4.59547 219.198 0.365813 224.038 0.0190859C225.068 -0.0548 226.08 0.102672 227.093 0.204213C234.737 0.969902 242.378 1.76696 250.02 2.54999C255.833 3.14541 261.647 3.7204 267.458 4.33109C271.847 4.79236 276.234 5.27613 280.634 5.62904C282.74 5.79807 284.569 6.49586 285.992 8.18368C287.548 10.0306 288.314 12.0899 288.068 14.4943C287.931 15.835 287.734 17.1697 287.553 18.5056C286.839 23.7678 286.126 29.0302 285.402 34.291C284.65 39.7542 283.886 45.2158 283.125 50.6779C282.427 55.695 281.724 60.7112 281.028 65.7284C280.059 72.7283 279.09 79.7285 278.129 86.7297C277.529 91.1005 276.95 95.4742 276.352 99.8453C275.477 106.24 274.591 112.633 273.715 119.027C273.183 122.912 272.608 126.792 272.15 130.686C271.651 134.93 268.013 138.361 263.683 138.085C260.338 137.871 257.004 137.547 253.672 137.198C248.348 136.642 243.021 136.123 237.697 135.577C233.551 135.152 229.408 134.699 225.262 134.277C222.254 133.971 219.242 133.71 216.234 133.402C213.064 133.078 209.891 132.768 206.73 132.368C202.196 131.794 199.415 127.797 200.091 123.006C201.335 114.189 202.553 105.37 203.773 96.5499C204.815 89.0239 205.844 81.496 206.878 73.9689C206.9 73.8069 206.9 73.6397 206.941 73.4829C207.053 73.0515 206.94 72.8482 206.468 72.7009C202.191 71.3674 198.273 69.2693 194.446 66.985C193.605 66.4829 192.746 65.9965 191.963 65.413C190.656 64.4395 189.198 63.8697 187.626 63.5153C186.592 63.2823 185.552 63.0404 184.555 62.6865C183.914 62.4584 183.51 62.5558 183.053 63.0412C181.092 65.1249 179.099 67.1774 177.119 69.2425C175.931 70.482 174.742 71.7144 173.292 72.6691C167.472 76.5008 159.865 75.2006 155.677 69.6394C155.505 69.4111 155.336 69.1791 155.186 68.936C154.22 67.3669 154.432 65.735 155.738 64.6387C157.033 63.552 158.942 63.565 160.24 64.6915C160.546 64.9571 160.83 65.2638 161.064 65.5938C163.505 69.0235 168.306 68.6758 170.749 66.1651C172.545 64.3196 174.318 62.4522 176.099 60.5925C176.578 60.0928 177.041 59.5781 177.526 59.0842C177.786 58.8188 177.866 58.5577 177.684 58.2098C177.199 57.2792 177.427 56.3641 177.866 55.5129C178.908 53.4976 180.319 51.741 181.956 50.1919C183.287 48.9334 184.574 48.9144 186.27 49.9859H186.27ZM242.048 32.7965C242.256 32.8236 242.418 32.9189 242.462 33.1336C242.548 33.5538 242.868 33.5292 243.179 33.5284C243.043 35.5518 243.606 37.4994 243.823 39.4844C243.881 40.0138 244.223 40.1077 244.678 40.1389C246.644 40.2739 248.546 40.723 250.415 41.3409C254.402 42.6595 257.603 44.9894 259.776 48.6255C260.461 49.7727 261.11 50.9535 261.788 52.0956C263.38 54.7757 264.58 57.611 265.713 60.4903C265.948 61.0895 266.266 61.695 265.709 62.3191C265.44 62.6212 265.708 62.9426 265.811 63.2365C266.652 65.6299 267.311 68.0702 267.689 70.5803C268.232 74.1902 267.616 77.3897 264.988 80.2112C261.87 83.5594 258.949 87.0915 255.556 90.1798C255.196 90.5078 255.032 90.8489 255.093 91.3579C255.446 94.3193 255.772 97.284 256.104 100.248C256.562 104.349 257.013 108.451 257.473 112.552C257.773 115.232 258.1 117.909 258.375 120.591C258.431 121.136 258.585 121.423 259.165 121.415C259.49 121.411 259.815 121.49 260.141 121.505C262.003 121.589 263.065 120.724 263.33 118.862C263.669 116.476 263.975 114.085 264.297 111.697C265.135 105.462 265.924 99.2209 266.826 92.996C267.657 87.2566 268.29 81.4912 269.195 75.7614C269.73 72.3738 270.079 68.9571 270.544 65.5581C271.315 59.9343 272.115 54.3147 272.897 48.6925C273.685 43.0291 274.473 37.3655 275.247 31.7002C275.718 28.2604 276.132 24.8125 276.629 21.3766C276.925 19.3248 275.687 18.5471 274.254 18.3595C273.606 18.2745 272.958 18.182 272.307 18.1201C265.474 17.4689 258.64 16.8203 251.805 16.1786C250.259 16.0335 248.711 15.9165 247.163 15.7925C246.906 15.772 246.544 15.609 246.594 16.1264C246.134 15.5972 245.497 15.2321 245.163 14.5849C245.393 14.4685 245.635 14.4904 245.881 14.5154C249.497 14.8821 253.111 15.2612 256.729 15.6067C261.446 16.0571 266.165 16.4787 270.882 16.9164C272.101 17.0295 273.331 17.0842 274.534 17.2929C276.913 17.7055 278 19.1925 277.708 21.5512C277.467 23.4966 277.172 25.435 276.91 27.3779C276.382 31.3031 275.867 35.2302 275.333 39.1549C274.822 42.9183 274.301 46.6807 273.773 50.4418C273.178 54.6829 272.514 58.9152 271.981 63.1638C271.397 67.812 270.687 72.4415 270.052 77.0818C269.703 79.6288 269.342 82.1744 269.003 84.7226C268.453 88.8511 267.927 92.9825 267.372 97.1105C266.763 101.643 266.132 106.173 265.512 110.704C265.13 113.496 264.808 116.297 264.352 119.076C263.94 121.593 262.575 122.677 260.018 122.567C258.184 122.488 256.355 122.278 254.527 122.092C251.073 121.741 247.622 121.363 244.17 120.999C240.637 120.626 237.104 120.247 233.569 119.89C230.644 119.594 227.716 119.33 224.789 119.048C220.846 118.669 216.903 118.287 212.96 117.905C211.66 117.779 210.347 117.724 209.062 117.504C206.515 117.067 205.358 115.375 205.768 112.842C205.906 111.995 206.072 111.153 206.187 110.303C207.018 104.154 207.835 98.0016 208.665 91.8516C209.135 88.3715 209.624 84.8939 210.1 81.4145C210.42 79.0683 210.737 76.7215 211.043 74.3734C211.151 73.5403 211.072 73.4437 210.272 73.3363C209.746 73.2658 209.21 73.2608 208.689 73.1655C208.261 73.087 208.077 73.2462 208.018 73.6387C207.988 73.8405 207.952 74.0416 207.925 74.2438C207.632 76.4701 207.351 78.6978 207.046 80.9224C206.268 86.5861 205.481 92.2482 204.696 97.9106C204.079 102.36 203.455 106.808 202.839 111.257C202.251 115.504 201.595 119.743 201.108 124.002C200.715 127.434 203.161 130.845 206.602 131.264C207.616 131.388 208.625 131.545 209.64 131.648C214.069 132.097 218.5 132.526 222.929 132.974C227.48 133.434 232.029 133.903 236.578 134.377C239.503 134.681 242.437 134.897 245.361 135.191C249.587 135.615 253.804 136.13 258.033 136.525C261.766 136.874 264.906 134.679 265.781 131.031C265.999 130.121 266.117 129.184 266.242 128.254C266.939 123.116 267.612 117.975 268.315 112.838C269.168 106.609 270.089 100.388 270.893 94.1532C271.571 88.8967 272.36 83.6556 272.958 78.3874C273.408 74.4302 274.085 70.499 274.635 66.5527C275.311 61.6991 275.952 56.8408 276.624 51.9868C277.268 47.3353 277.945 42.6882 278.584 38.036C279.106 34.2336 279.591 30.4262 280.098 26.6217C280.679 22.2507 281.318 17.8867 281.835 13.508C282.217 10.2614 279.663 6.88098 276.826 6.46016C275.897 6.32229 274.97 6.16606 274.037 6.0736C270.42 5.71511 266.797 5.40697 263.183 5.02805C256.563 4.33398 249.95 3.58109 243.33 2.89403C237.602 2.29943 231.869 1.75499 226.136 1.20663C225.122 1.10962 224.081 0.988683 223.085 1.26503C219.828 2.16859 217.75 4.28011 217.206 7.6221C216.464 12.1743 215.892 16.7546 215.264 21.325C214.407 27.5544 213.572 33.7866 212.716 40.0161C211.866 46.2046 210.981 52.3885 210.169 58.5819C210.051 59.4774 209.767 60.3838 209.919 61.4793C211.24 60.2309 212.28 58.9323 213.375 57.6862C213.517 57.5248 213.523 57.3163 213.551 57.1122C213.971 54.0375 214.408 50.965 214.816 47.8889C215.257 44.5702 215.652 41.2453 216.104 37.9281C216.705 33.5185 217.348 29.1146 217.96 24.7065C218.387 21.6326 218.778 18.5537 219.212 15.481C219.506 13.3994 220.933 12.21 223.014 12.2967C224.033 12.3392 225.049 12.4499 226.066 12.5297C225.907 12.8827 225.747 13.2356 225.587 13.5885C224.569 13.5315 223.55 13.4298 222.532 13.4294C221.309 13.4287 220.636 14.0011 220.396 15.1874C220.251 15.9064 220.174 16.6395 220.072 17.367C219.295 22.9062 218.511 28.4443 217.747 33.9853C217.026 39.2027 216.327 44.423 215.619 49.6421C215.421 51.1008 215.226 52.5598 215.029 54.0187C216.504 52.3488 217.829 50.6478 219.134 48.9323C222.272 44.8088 226.242 41.8868 231.267 40.4681C231.849 40.3038 232.593 40.3746 232.977 39.935C233.402 39.4469 233.082 38.6659 233.27 38.0412C233.42 37.5428 233.149 37.395 232.742 37.2908C230.363 36.683 229.049 35.0094 228.325 32.7887C228.111 32.1334 227.958 31.442 227.896 30.7564C227.595 27.4037 227.808 24.0764 228.499 20.7808C228.836 20.8324 229.228 20.6698 229.485 21.0336C229.206 23.0533 228.973 25.0773 228.86 27.1141C228.737 29.3361 228.863 31.5269 229.84 33.5719C230.937 35.8694 232.684 36.6578 235.162 36.083C236.128 35.8589 237.01 35.4601 237.858 34.9638C238.244 34.7374 238.667 34.4148 239.063 34.8569C239.513 35.3588 239.093 35.7672 238.774 36.1276C238.424 36.5234 238.056 36.9117 237.649 37.2468C236.706 38.0247 235.741 38.7774 234.77 39.5214C234.428 39.7839 234.124 40.0512 234.229 40.5242C234.51 41.797 235.719 43.2991 237.214 43.3641C239.073 43.445 240.466 42.6248 241.789 41.4137C242.613 40.6592 242.824 39.9426 242.634 38.8624C242.283 36.8625 241.898 34.8509 242.048 32.7963L242.048 32.7965ZM221.536 64.2323C222.39 61.9166 223.196 59.6933 224.036 57.4829C224.226 56.9847 224.243 56.0615 224.903 56.2074C225.668 56.3764 225.271 57.2546 225.186 57.7834C224.848 59.8852 224.72 62.007 224.605 64.1217C224.417 67.5881 224.372 71.0628 224.287 74.5344C224.244 76.3322 224.305 78.1346 224.207 79.9287C224.127 81.3998 224.103 82.8682 224.119 84.3381C224.133 85.7421 224.394 86.0109 225.74 86.0639C228.026 86.1539 230.312 86.2424 232.599 86.2953C236.929 86.3949 241.265 86.2494 245.587 86.585C246.637 86.6665 247.232 86.2736 247.771 85.4262C249.437 82.8072 251.152 80.2178 252.889 77.6452C253.372 76.9307 253.645 76.215 253.534 75.3575C253.271 73.3246 253.319 71.2795 253.315 69.2371C253.314 68.7286 253.199 68.2741 252.922 67.8475C251.157 65.1299 249.919 62.1358 248.446 59.265C248.335 59.0485 248.246 58.8163 248.18 58.5819C248.112 58.3398 248.106 58.0703 248.349 57.9225C248.632 57.7512 248.908 57.8321 249.106 58.0905C249.228 58.251 249.335 58.4312 249.412 58.6178C250.307 60.7737 251.562 62.749 252.535 64.8659C252.722 65.2737 252.949 65.6636 253.162 66.0594C253.309 66.3331 253.495 66.5415 253.839 66.3508C254.497 65.9857 255.275 66.0359 255.95 65.7474C258.618 64.6069 261.274 63.4389 263.811 62.0238C264.733 61.5094 264.772 61.3588 264.44 60.3531C264.389 60.1979 264.334 60.0437 264.281 59.8893C262.813 55.6452 260.601 51.7933 258.081 48.1027C256.835 46.2782 255.175 44.8977 253.293 43.8004C250.673 42.2735 247.787 41.5778 244.797 41.2154C244.001 41.1188 243.407 41.1758 242.853 41.8471C241.902 42.9984 240.715 43.8367 239.245 44.2689C236.894 44.9603 235.074 44.2965 233.793 42.2069C233.14 41.1419 233.061 41.1147 231.836 41.4759C230.028 42.0096 228.302 42.7464 226.637 43.6233C225.033 44.4682 223.625 45.5901 222.382 46.8988C219.785 49.631 217.663 52.7406 215.412 55.7476C214.974 56.3315 214.981 56.7997 215.39 57.3954C217.04 59.7979 218.981 61.9441 221.054 63.9799C221.134 64.0591 221.261 64.0913 221.536 64.2319L221.536 64.2323ZM254.049 91.6753C252.925 92.5849 252.061 93.3243 251.363 94.2405C250.448 95.4431 249.541 96.6529 248.608 97.8421C247.348 99.4482 245.828 100.742 243.87 101.397C241.092 102.327 239.452 101.651 238.052 99.6961C237.316 98.6678 237.28 97.833 237.939 96.7406C238.282 96.1735 238.771 95.7351 239.22 95.2606C239.93 94.5088 240.647 93.7643 241.48 92.8932C240.759 92.8218 240.236 92.771 239.713 92.718C239.24 92.6701 238.816 92.5046 238.623 92.0441C238.404 91.5203 238.806 91.2161 239.121 90.8987C239.9 90.1161 240.886 89.7415 241.926 89.4769C243.216 89.1489 244.452 88.7071 245.661 87.7996C244.019 87.6527 242.56 87.5654 241.095 87.5379C236.438 87.451 231.781 87.3474 227.124 87.2432C226.595 87.2314 226.064 87.1873 225.537 87.135C224.565 87.0389 224.466 87.0731 224.403 88.0514C224.235 90.662 223.857 93.2492 223.584 95.848C223.251 99.015 222.902 102.181 222.547 105.345C222.118 109.159 221.672 112.971 221.244 116.785C221.159 117.535 221.223 117.595 222.01 117.681C224.08 117.907 226.149 118.145 228.222 118.344C230.417 118.555 232.614 118.745 234.813 118.905C235.738 118.972 235.739 118.925 235.832 117.988C236.05 115.794 236.33 113.604 236.469 111.405C236.577 109.703 236.988 108.001 236.601 106.281C236.494 105.805 236.434 105.316 236.383 104.829C236.346 104.48 236.197 104.004 236.682 103.898C237.157 103.795 237.255 104.244 237.331 104.611C237.422 105.051 237.51 105.491 237.586 105.933C238.318 110.158 239.178 114.357 240.116 118.54C240.327 119.477 240.364 119.476 241.322 119.604C245.815 120.207 250.335 120.553 254.84 121.049C255.671 121.141 256.511 121.147 257.385 121.194C256.271 111.334 255.171 101.606 254.049 91.6753H254.049ZM223.074 77.0529C223.129 75.5913 223.197 73.9584 223.25 72.3249C223.287 71.1813 223.259 70.0338 223.344 68.8941C223.402 68.1152 222.843 67.8001 222.381 67.4606C221.899 67.107 221.711 67.7324 221.414 67.9435C221.083 68.1786 220.804 68.4855 220.496 68.7548C218.619 70.4001 216.722 72.0021 214.298 72.8352C213.617 73.0691 212.675 72.9977 212.31 73.5844C211.956 74.1532 212.05 75.0006 211.95 75.7263C211.249 80.8242 210.544 85.9213 209.852 91.0202C209.154 96.1594 208.469 101.3 207.78 106.441C207.46 108.829 207.106 111.214 206.842 113.609C206.662 115.245 207.452 116.239 209.038 116.409C212.449 116.774 215.866 117.085 219.281 117.419C220.205 117.509 220.142 117.363 220.224 116.6C220.749 111.727 221.309 106.857 221.85 101.986C222.396 97.0741 222.933 92.1611 223.477 87.2492C223.508 86.9683 223.655 86.642 223.415 86.434C222.964 86.0435 223.079 85.5459 223.077 85.0726C223.069 82.4569 223.073 79.8414 223.073 77.0527L223.074 77.0529ZM262.941 137.016C263.976 136.979 264.948 136.923 265.887 136.653C268.778 135.823 270.383 133.846 270.95 130.941C271.349 128.897 271.573 126.829 271.851 124.767C272.281 121.573 272.752 118.384 273.191 115.191C273.658 111.797 274.103 108.4 274.566 105.006C275.063 101.368 275.574 97.7325 276.071 94.095C276.635 89.9722 277.186 85.8478 277.751 81.7253C278.084 79.3003 278.506 76.8851 278.759 74.4523C279.186 70.3514 279.85 66.2836 280.407 62.2019C280.908 58.5251 281.44 54.8502 281.96 51.1751C282.687 46.0452 283.323 40.9025 284.028 35.7695C284.878 29.5837 285.76 23.4025 286.625 17.2188C286.823 15.8034 287.037 14.3878 286.945 12.9512C286.775 10.2892 285.402 8.44228 283.029 7.33275C282.287 6.98623 281.474 6.76973 280.589 6.83309C280.679 7.3181 280.946 7.53336 281.135 7.78659C282.629 9.78729 283.206 12.0643 282.9 14.4941C282.426 18.2575 281.832 22.0059 281.349 25.7697C280.778 30.2202 280.122 34.66 279.516 39.1059C278.992 42.9464 278.497 46.7905 277.968 50.6301C277.428 54.5506 276.852 58.4661 276.31 62.3862C275.785 66.1849 275.287 69.9875 274.77 73.7873C274.312 77.1421 273.838 80.4946 273.383 83.8498C272.781 88.2972 272.207 92.7485 271.591 97.1938C270.745 103.296 269.81 109.385 269.028 115.495C268.421 120.23 267.722 124.951 267.185 129.696C266.872 132.467 265.685 134.856 263.265 136.469C263.135 136.556 262.979 136.625 262.941 137.015L262.941 137.016ZM254.992 67.326C255.63 68.451 256.236 69.4639 256.671 70.5625C257.131 71.7249 257.143 72.8676 256.51 73.9803C256.308 74.3346 256.141 74.7111 255.915 75.0489C253.306 78.9504 250.793 82.9149 248.129 86.7809C247.03 88.375 245.621 89.4294 243.806 89.9951C242.989 90.2498 242.157 90.4603 241.35 90.7449C240.887 90.9084 240.352 91.0209 240.062 91.5385C240.432 91.7494 240.762 91.6629 241.075 91.6928C241.4 91.7238 241.73 91.709 242.052 91.7515C243.2 91.9034 243.341 92.2377 242.663 93.145C242.073 93.9348 241.357 94.6041 240.639 95.2712C239.98 95.8833 239.339 96.5119 238.839 97.2673C238.5 97.7804 238.377 98.3325 238.712 98.8792C239.313 99.8624 240.116 100.6 241.342 100.634C242.844 100.675 244.245 100.369 245.494 99.4443C246.799 98.4778 247.723 97.1823 248.718 95.9427C249.714 94.7026 250.575 93.3472 251.767 92.2738C256.387 88.1135 260.68 83.6457 264.669 78.8728C266.197 77.0449 266.95 75.0628 266.812 72.6943C266.626 69.484 265.794 66.4249 264.752 63.4086C264.56 62.853 264.209 62.938 263.81 63.1642C261.012 64.7503 258.116 66.1306 254.992 67.326ZM188.819 50.0171C188.576 50.9157 188.732 51.5547 188.889 52.1821C189.125 53.1312 189.392 54.0734 189.668 55.012C189.883 55.7433 189.756 56.3383 189.192 56.8955C187.884 58.186 186.614 59.5147 185.342 60.8403C185.137 61.054 184.757 61.1926 184.903 61.6814C186.172 62.0165 187.466 62.3703 188.767 62.698C189.644 62.9188 190.468 63.2303 191.238 63.7229C194.297 65.6795 197.378 67.6013 200.668 69.1572C202.88 70.2032 205.08 71.2952 207.472 71.8751C210.64 72.6431 213.712 72.587 216.465 70.5318C217.773 69.5552 219.072 68.5641 220.264 67.443C220.731 67.003 221.178 66.5413 221.648 66.0765C219.195 63.6986 216.751 61.4168 214.884 58.6151C214.634 58.2403 214.398 58.2471 214.112 58.5592C213.313 59.4326 212.509 60.3017 211.709 61.1743C210.09 62.9383 210.479 63.4674 207.218 62.3631C202.546 60.7809 197.904 59.1092 193.237 57.5124C192.564 57.2823 192.279 56.9102 192.121 56.2417C191.821 54.9691 191.296 53.7673 190.713 52.5963C190.262 51.6882 189.654 50.8953 188.82 50.0175L188.819 50.0171ZM191.574 51.739C191.753 51.5404 191.827 51.4892 191.856 51.4191C191.951 51.1941 192.053 50.9679 192.109 50.732C192.581 48.7765 192.74 46.8229 192.537 44.7921C191.956 38.9984 186.292 34.4668 181.036 34.6297C177.511 34.7388 174.567 35.889 172.127 38.3136C168.534 41.8824 165.028 45.5379 161.492 49.1625C161.036 49.6293 160.612 50.1275 160.184 50.6206C159.702 51.176 159.736 51.3074 160.42 51.4901C161.563 51.7951 162.717 52.0605 163.854 52.3876C164.408 52.5472 164.782 52.3757 165.153 51.9831C167.876 49.1074 170.685 46.3139 173.311 43.3461C174.675 41.8052 176.257 40.5626 178.214 39.7818C182.971 37.8839 187.912 41.2821 188.024 46.3975C188.043 47.2835 187.996 48.1671 187.736 49.2194C188.997 48.6436 189.718 49.1864 190.324 49.9849C190.738 50.53 191.12 51.099 191.575 51.739H191.574ZM187.487 50.2291C186.962 50.6325 186.807 51.066 186.661 51.4717C185.784 53.918 184.163 55.8473 182.406 57.6882C181.821 58.3014 181.134 58.7319 180.288 58.8077C179.416 58.8859 178.785 59.3051 178.203 59.9316C176.229 62.0541 174.234 64.1572 172.22 66.2404C171.598 66.8831 170.925 67.4831 170.177 67.9881C167.962 69.4829 164.273 69.5025 162.046 68.0329C161.215 67.4849 160.573 66.7661 159.976 65.9744C159.115 64.8314 157.591 64.6492 156.49 65.4807C155.53 66.2051 155.448 67.4181 156.276 68.6555C156.322 68.7232 156.375 68.7851 156.425 68.8506C159.361 72.7651 164.08 74.5802 169.136 73.3376C171.435 72.7725 173.317 71.5315 174.945 69.8685C177.086 67.6814 179.195 65.4625 181.334 63.274C183.504 61.0546 185.681 58.8413 187.887 56.6571C188.446 56.1026 188.619 55.5548 188.404 54.7972C187.994 53.3461 187.725 51.8609 187.487 50.2286V50.2291ZM179.681 57.7724C180.404 57.7982 181.029 57.4426 181.578 56.9258C182.92 55.6636 184.004 54.1921 185.006 52.6582C185.23 52.3164 185.351 51.9305 185.359 51.5074C185.378 50.5137 184.71 50.008 183.764 50.3382C183.539 50.4171 183.315 50.5434 183.132 50.6982C181.251 52.2968 179.706 54.1667 178.712 56.4406C178.273 57.448 178.542 57.783 179.681 57.7724H179.681ZM237.46 112.022C237.279 113.703 237.032 115.381 236.931 117.067C236.782 119.577 236.469 118.971 238.841 119.336C238.947 119.352 239.066 119.275 239.217 119.229C238.668 116.818 238.321 114.379 237.46 112.022ZM254.571 68.9245C254.522 70.9214 254.364 72.9176 254.615 75.1067C256.233 72.3257 256.545 72.2307 254.571 68.9245Z" fill="#120E78"></path><path d="M81.318 42.9051C86.7786 42.5039 92.2391 42.1017 97.6999 41.7017C101.001 41.4598 104.301 41.1822 107.605 40.9924C111.246 40.7833 114.843 43.7429 115.418 47.4386C115.738 49.4956 115.906 51.5768 116.131 53.6483C116.751 59.3761 117.37 65.1043 117.981 70.8332C118.441 75.14 118.883 79.4487 119.342 83.7558C119.932 89.2817 120.531 94.8064 121.128 100.332C121.164 100.656 121.241 100.977 121.268 101.302C121.3 101.697 121.45 101.861 121.883 101.839C123.203 101.769 124.409 101.572 125.483 100.613C126.819 99.4191 128.325 98.4134 129.852 97.4601C130.58 97.0053 131.326 96.5704 132.189 96.426C132.724 96.3364 133.268 96.3252 133.62 96.8567C133.972 97.3885 133.779 97.895 133.447 98.3319C132.981 98.9451 132.461 99.5172 131.936 100.141C132.456 100.688 133.096 100.49 133.658 100.423C134.833 100.28 135.997 100.053 137.164 99.8501C138.014 99.7021 138.866 99.6429 139.728 99.7238C141.691 99.9085 142.553 101.274 141.725 103.091C140.651 105.448 138.936 107.231 136.454 108.102C134.117 108.922 131.681 109.308 129.214 108.931C126.88 108.573 124.777 109.327 122.634 109.993C122.113 110.155 122.227 110.525 122.264 110.88C122.471 112.872 122.683 114.863 122.896 116.854C123.601 123.435 124.304 130.017 125.017 136.597C125.378 139.928 125.764 143.256 126.13 146.586C126.201 147.235 126.263 147.889 126.275 148.541C126.343 152.392 123.716 155.52 119.883 155.993C117.29 156.314 114.675 156.459 112.068 156.664C107.097 157.054 102.127 157.438 97.1548 157.81C91.083 158.266 85.0102 158.709 78.9376 159.152C75.1068 159.432 71.2759 159.716 67.4435 159.974C65.163 160.128 63.065 159.606 61.2415 158.164C59.3526 156.669 58.5329 154.634 58.2947 152.313C57.4443 144.022 56.6097 135.729 55.7525 127.439C54.9456 119.636 54.1284 111.834 53.2963 104.034C52.5293 96.8437 51.7177 89.658 50.9616 82.4667C50.4063 77.1851 49.9163 71.8965 49.3835 66.6124C48.9573 62.3846 48.5066 58.1591 48.0744 53.9319C47.8787 52.0185 48.1194 50.1883 49.1053 48.4901C50.3431 46.358 52.2011 45.0873 54.616 44.8526C58.1934 44.5048 61.7877 44.3317 65.3748 44.0842C65.2982 44.5773 65.5684 45.1285 65.1265 45.5601C64.9135 45.2478 64.6012 45.2131 64.2593 45.2381C62.5896 45.3601 60.9162 45.4439 59.2511 45.6106C58.36 45.7 57.4876 45.9225 56.7218 46.4579C54.5295 47.9901 53.6807 50.1119 53.9544 52.721C54.2269 55.3194 54.5309 57.9143 54.8133 60.5116C55.1927 64.0022 55.5737 67.4926 55.9374 70.9849C56.3139 74.5991 56.669 78.2158 57.0362 81.831C57.3908 85.3241 57.7397 88.8178 58.1081 92.3094C58.4766 95.801 58.8776 99.2891 59.2426 102.781C59.6077 106.273 59.9368 109.769 60.2978 113.262C60.7428 117.567 61.2095 121.869 61.6577 126.173C62.0257 129.706 62.3797 133.241 62.7411 136.775C63.219 141.446 63.6938 146.117 64.1795 150.787C64.3019 151.964 64.3931 153.157 64.9087 154.247C65.9295 156.403 67.4514 157.988 69.8832 158.515C70.7782 158.709 71.673 158.637 72.5672 158.571C75.4587 158.36 78.3485 158.123 81.2402 157.913C83.8879 157.72 86.5389 157.568 89.1856 157.362C94.8035 156.924 100.419 156.459 106.037 156.012C110.514 155.656 114.994 155.333 119.47 154.953C122.859 154.666 125.337 151.906 125.225 148.505C125.176 146.999 124.936 145.499 124.772 143.998C124.241 139.127 123.7 134.258 123.171 129.387C122.778 125.775 122.4 122.161 122.013 118.548C121.761 116.193 121.506 113.839 121.25 111.484C121.232 111.322 121.184 111.164 121.158 111.003C121.101 110.637 120.895 110.519 120.552 110.639C119.481 111.014 118.331 111.161 117.34 111.763C117.218 111.763 117.09 111.739 116.975 111.767C113.096 112.702 109.324 114.054 105.38 114.729C104.999 114.794 104.965 115.051 104.982 115.358C105.021 116.047 105.216 116.725 105.133 117.423C104.812 117.511 104.49 117.6 104.168 117.688C104.124 117.078 104.107 116.465 104.03 115.858C103.921 114.992 103.897 114.97 103.053 115.151C101.243 115.54 99.4169 115.613 97.5754 115.515C96.1173 115.437 94.7733 115.018 93.533 114.251C89.8307 111.963 86.4712 109.271 83.6479 105.936C82.7374 104.861 82.7186 104.877 81.6126 105.679C81.5465 105.727 81.4797 105.774 81.4138 105.822C80.9395 106.169 80.5384 106.17 80.1848 105.629C79.5393 104.642 78.878 103.665 78.2047 102.697C77.5191 101.712 76.9899 100.607 76.0047 99.6732C75.8247 100.354 76.0843 100.834 76.2336 101.309C76.795 103.098 77.4149 104.872 77.8195 106.704C78.5935 110.209 79.3872 113.716 78.8962 117.351C78.7925 118.118 78.6918 118.885 78.5898 119.652C78.1968 119.646 77.8038 119.639 77.4108 119.633C77.5695 118.422 77.8527 117.233 77.9124 116.003C78.0769 112.614 77.4632 109.335 76.5407 106.106C75.2977 101.756 73.9768 97.4275 72.7103 93.0835C72.264 91.5528 71.9956 89.9867 71.9236 88.3875C71.7205 83.8771 74.2481 79.334 78.551 77.6377C80.0721 77.0381 81.5926 76.4493 83.1812 76.0861C83.795 75.9457 83.9926 75.682 84.0099 75.1132C84.0535 73.6862 84.3305 72.2715 84.2444 70.8369C84.5838 70.834 84.9233 70.8311 85.2627 70.828C85.3931 71.1865 85.3359 71.5574 85.3132 71.9202C85.2315 73.2227 85.1619 74.5273 85.0245 75.8242C84.9559 76.4706 85.1754 76.8945 85.6575 77.2953C87.5721 78.8861 89.4606 80.5116 91.5844 81.8236C92.6239 82.4657 93.6886 83.0796 94.8629 83.4534C95.5944 83.6862 95.7325 83.5688 95.6471 82.7843C95.5546 81.934 95.4246 81.0922 95.1601 80.2679C94.6856 78.7887 93.9091 77.4204 93.4646 75.9517C93.1113 74.784 92.4435 74.0986 91.481 73.5017C90.228 72.7249 89.1375 71.7332 88.118 70.6699C87.905 70.4476 87.5987 70.2093 87.8866 69.8359C88.1271 69.5243 88.3944 69.6842 88.6485 69.8149C89.6812 70.3459 90.8188 70.5318 91.9357 70.7289C94.6664 71.2111 96.5008 70.1267 97.5185 67.5271C98.0814 66.089 98.167 64.5865 98.0768 63.0704C98.0163 62.0558 97.8894 61.0454 97.7924 60.033C98.1323 60.072 98.4345 59.9633 98.721 59.794C99.2546 61.6228 99.3479 63.4935 99.1213 65.3666C98.7456 68.4727 97.6553 71.0804 94.1925 71.8639C93.8385 71.9439 93.767 72.1864 93.7862 72.5053C93.8327 73.2813 93.9233 74.0507 94.1223 74.803C94.255 75.3047 94.5205 75.6054 95.0906 75.7534C96.3933 76.0917 97.6188 76.6549 98.8112 77.2885C100.657 78.2692 101.839 79.7242 102.168 81.8226C102.379 83.1725 102.933 84.3836 103.616 85.5592C104.372 86.8627 105.08 88.1963 105.765 89.5393C106.788 91.5451 107.277 93.6666 107.006 95.929C106.865 97.1027 106.71 98.2721 106.466 99.4328C106.226 100.574 105.945 101.717 105.885 103.023C109.371 102.816 112.774 102.552 116.169 102.191C117.156 102.296 118.119 102.043 119.097 101.999C120.169 101.952 120.16 101.934 120.132 100.869C120.089 99.2728 119.761 97.7095 119.597 96.1269C119.251 92.7985 118.895 89.4712 118.538 86.1441C118.16 82.614 117.774 79.0849 117.395 75.5551C117.02 72.0659 116.649 68.5763 116.279 65.0866C115.904 61.5562 115.537 58.0249 115.157 54.4951C114.93 52.3854 114.735 50.2706 114.434 48.1713C113.964 44.8992 112.006 42.7848 108.967 42.2039C107.795 41.9797 106.605 42.1147 105.424 42.2098C101.723 42.5076 98.0227 42.8288 94.3194 43.106C91.5922 43.3101 88.8551 43.3996 86.1337 43.658C84.674 43.7965 83.1902 43.728 81.7521 44.0892C81.2817 43.8141 81.3201 43.3524 81.3182 42.9056L81.318 42.9051ZM101.867 103.269C102.52 103.239 103.172 103.193 103.825 103.182C104.455 103.172 104.81 102.921 104.866 102.253C104.975 100.948 105.346 99.6858 105.547 98.3975C105.779 96.9143 106.15 95.4475 105.979 93.9093C105.77 92.0372 105.075 90.3586 104.158 88.7507C102.843 86.4421 101.546 84.1293 100.971 81.4944C100.674 80.1288 99.8118 79.1763 98.6438 78.481C98.0834 78.1472 97.5061 77.8368 96.9153 77.5613C96.4449 77.3419 95.8481 76.866 95.4514 77.1958C94.9694 77.5964 95.5901 78.1349 95.7319 78.61C95.9185 79.2351 96.177 79.839 96.3596 80.4652C96.5999 81.2886 96.7725 82.1259 96.7597 82.9952C96.7355 84.6376 96.3365 84.9693 94.7316 84.5336C93.4225 84.1782 92.2098 83.5719 91.0867 82.821C88.8101 81.299 86.6355 79.6376 84.6725 77.7231C84.1063 77.171 83.5511 77.0053 82.8022 77.2222C80.911 77.77 79.1081 78.5291 77.3699 79.4419C76.7544 79.7651 76.2175 80.214 75.7588 80.7456C73.9225 82.8745 72.9887 85.3627 72.9871 88.1555C72.9854 90.9881 73.7801 93.6383 75.1856 96.0916C76.7827 98.8792 78.6107 101.519 80.4631 104.141C80.9044 104.765 80.9232 104.756 81.5994 104.257C82.7731 103.391 83.9934 102.58 85.1045 101.639C87.0665 99.9789 89.1567 98.4661 90.9259 96.5783C91.9658 95.4687 92.0255 95.4799 91.114 94.2042C89.4744 91.9096 87.5968 89.8053 85.7913 87.6436C85.5217 87.3209 84.9892 86.9636 85.48 86.5222C85.9723 86.0792 86.2793 86.6681 86.5489 86.9578C88.7779 89.3527 90.8235 91.897 92.6511 94.6129C92.8999 94.9825 93.2434 95.3839 93.1701 95.827C93.0625 96.4763 93.452 96.8189 93.8023 97.1984C95.1593 98.6683 96.6513 100.033 97.8603 101.614C98.9064 102.983 100.088 103.561 101.744 103.27C101.783 103.263 101.825 103.269 101.866 103.269H101.867ZM129.629 107.944C131.698 107.958 133.618 107.947 135.478 107.361C137.873 106.606 139.552 105 140.673 102.809C141.278 101.627 140.75 100.794 139.435 100.713C138.699 100.668 137.972 100.756 137.244 100.892C135.559 101.206 133.877 101.563 132.147 101.492C131.598 101.47 131.081 101.365 130.809 100.806C130.522 100.216 130.748 99.7339 131.119 99.2592C131.422 98.87 131.785 98.5554 132.16 98.244C132.313 98.1167 132.478 97.9309 132.375 97.7181C132.275 97.5086 132.031 97.5262 131.837 97.5668C131.684 97.599 131.537 97.6849 131.4 97.7675C130.684 98.1984 129.945 98.5969 129.265 99.0792C127.934 100.024 126.632 101.012 125.326 101.993C124.722 102.446 124.072 102.728 123.304 102.769C122.489 102.812 121.679 102.932 120.865 102.994C118.178 103.199 115.488 103.375 112.802 103.596C108.772 103.927 104.738 104.196 100.7 104.417C99.5884 104.478 98.7485 104.123 98.0006 103.296C96.2205 101.328 94.3702 99.4222 92.5801 97.462C92.2266 97.0748 92.0191 96.9863 91.6151 97.3776C89.3245 99.5979 86.8574 101.611 84.3198 103.541C83.4928 104.17 83.522 104.192 84.2077 105.012C86.8288 108.143 90.0224 110.621 93.3488 112.93C94.8873 113.998 96.643 114.46 98.5491 114.477C101.317 114.501 103.982 113.893 106.655 113.333C112.213 112.168 117.607 110.398 123.034 108.761C125.254 108.091 127.451 107.587 129.629 107.944L129.629 107.944ZM55.1638 45.8465C54.2234 45.9246 53.3366 46.0855 52.5078 46.5654C50.2841 47.8528 49.3133 49.8649 49.1486 52.3378C49.0258 54.1824 49.3342 56.0063 49.4997 57.8336C49.761 60.7187 50.1095 63.5959 50.4115 66.4774C50.6837 69.0748 50.9391 71.674 51.2099 74.2715C51.5866 77.8837 51.9738 81.4948 52.3514 85.1068C52.6356 87.8257 52.9037 90.5465 53.1933 93.2648C53.4786 95.9426 53.7936 98.6176 54.0741 101.296C54.4312 104.705 54.7588 108.118 55.1136 111.527C55.4854 115.099 55.8782 118.668 56.2545 122.238C56.6223 125.729 56.9751 129.22 57.3452 132.71C57.7196 136.241 58.1137 139.769 58.4871 143.3C58.826 146.506 59.096 149.72 59.4932 152.918C59.9182 156.343 62.5595 158.722 66.3524 158.84C66.585 158.847 66.8548 158.876 66.9708 158.536C66.5983 158.184 66.2104 157.827 65.8331 157.459C64.3749 156.036 63.4865 154.292 63.2493 152.293C62.8357 148.809 62.5351 145.311 62.1943 141.817C61.9287 139.095 61.7475 136.363 61.3968 133.652C60.8518 129.442 60.5141 125.211 60.0162 120.996C59.686 118.2 59.448 115.394 59.1588 112.592C58.7901 109.02 58.4093 105.449 58.0377 101.877C57.7547 99.1579 57.4878 96.4365 57.1958 93.718C56.9212 91.1621 56.6042 88.6106 56.3406 86.0535C56.0475 83.2111 55.8128 80.363 55.518 77.5209C55.0635 73.1381 54.5796 68.7582 54.108 64.3772C53.8852 62.3084 53.6328 60.2423 53.4472 58.1702C53.2507 55.9765 52.7692 53.8068 52.8707 51.5878C52.9531 49.7866 53.3934 48.1184 54.683 46.7674C54.9025 46.5375 55.1793 46.3285 55.1642 45.8465H55.1638ZM75.8682 99.4181C75.8509 99.3921 75.8333 99.3663 75.816 99.3403C75.7947 99.3632 75.7582 99.3847 75.7563 99.409C75.7545 99.4334 75.7869 99.4606 75.8044 99.4864C75.8257 99.4635 75.8472 99.4408 75.8684 99.4179L75.8682 99.4181Z" fill="#120E78"></path><path d="M81.3205 42.9053C81.3224 43.3521 81.284 43.8138 81.7544 44.0889C81.8384 44.6503 81.948 45.2096 81.9982 45.7741C82.0413 46.2586 82.2752 46.4182 82.7223 46.3208C82.9995 46.2603 83.2707 46.1707 83.5488 46.1148C84.7815 45.8667 85.9651 45.397 87.231 45.2998C89.5722 45.1202 91.7239 45.7685 93.8126 46.7558C94.9578 47.2972 95.9352 48.0889 97.0016 48.7462C99.608 51.7411 100.104 55.1336 98.9144 58.8492C98.817 59.1534 98.7852 59.4786 98.7229 59.7942C98.4364 59.9634 98.1344 60.0722 97.7942 60.0332C97.448 58.8605 97.1485 57.6717 96.7448 56.5195C96.1674 54.8721 95.1052 53.582 93.5236 52.4277C93.3672 54.8143 92.2001 56.5119 90.789 58.0775C89.6816 59.3063 88.3054 60.1929 86.8878 61.0028C85.7527 61.6513 84.6213 62.1526 83.2096 61.5338C82.2444 61.1107 81.4586 61.5875 81.0808 62.4287C80.6513 63.3853 80.8986 64.2862 81.7827 64.8963C82.3243 65.27 82.9446 65.4752 83.5657 65.6828C84.4533 65.9796 85.0372 66.6121 85.14 67.5361C85.2614 68.6258 85.448 69.7232 85.2643 70.8286C84.9249 70.8315 84.5854 70.8344 84.246 70.8373C83.9738 70.7605 83.7052 70.6664 83.4288 70.6098C78.4651 69.5936 75.0822 65.9115 74.4497 60.8934C74.2299 59.148 74.2978 57.4243 74.6588 55.6531C73.8096 55.6122 73.0296 55.6475 72.2749 55.5257C69.3475 55.0533 67.1954 53.4489 65.7249 50.8967C65.7373 50.5612 65.5812 50.273 65.4729 49.9694C64.9591 48.5318 64.7913 47.0652 65.1283 45.56C65.5701 45.1285 65.3001 44.577 65.3767 44.0842C66.1526 42.3858 67.1684 40.8747 68.797 39.8776C73.0089 37.2991 78.5725 38.1525 81.3203 42.9055L81.3205 42.9053Z" fill="#040405"></path><path d="M160.06 54.9967C163.736 55.0529 167.09 56.6604 169.742 59.7452C170.447 60.565 170.951 61.4787 170.979 62.6092C171.015 64.0859 170.366 65.1329 168.944 65.7913C167.652 66.3892 166.478 66.1853 165.428 65.2483C165.124 64.9771 164.838 64.6797 164.581 64.3635C161.901 61.063 157.426 60.9264 154.373 64.0544C150.947 67.5643 147.532 71.0857 144.111 74.601C142.914 75.8313 141.693 77.0387 140.52 78.2916C139.532 79.3473 138.743 80.5315 138.484 81.9987C137.601 86.9887 142.001 90.7348 146.812 89.0897C147.997 88.6841 149.002 88.0022 149.868 87.1098C152.317 84.588 154.761 82.0619 157.207 79.5374C158.032 78.686 158.864 77.8415 159.679 76.9805C160.041 76.5972 160.407 76.3923 160.973 76.544C162.826 77.0409 164.695 77.4785 166.548 77.975C167.425 78.2103 167.528 78.5296 166.931 79.1357C162.427 83.7068 158.112 88.4664 153.466 92.8944C148.661 97.4735 140.247 97.7828 135.097 92.4011C131.546 88.691 130.533 82.934 132.646 78.1546C133.296 76.6833 134.134 75.3347 135.253 74.1798C140.147 69.1323 145.013 64.0568 149.967 59.0695C152.605 56.4146 155.859 55.0126 160.059 54.9971L160.06 54.9967ZM165.351 78.9087C164.288 78.4479 163.075 78.38 161.997 77.9298C160.936 77.4867 160.281 77.8592 159.56 78.6311C156.911 81.4691 154.21 84.259 151.511 87.0502C150.398 88.2006 149.197 89.2628 147.696 89.8824C145.206 90.91 142.754 90.9377 140.459 89.3526C136.171 86.3908 136.586 80.9009 139.317 77.9556C140.373 76.8172 141.443 75.691 142.526 74.5783C145.662 71.3573 148.803 68.1414 151.953 64.9338C152.868 64.0017 153.75 63.034 154.812 62.2543C157.948 59.9527 162.304 60.3487 164.959 63.1855C165.404 63.6608 165.774 64.2046 166.343 64.5654C167.013 64.9909 167.7 65.0972 168.441 64.8031C169.692 64.3068 170.204 63.1093 169.699 61.7818C169.138 60.305 168.003 59.2821 166.783 58.3852C162.013 54.877 155.828 55.5721 151.561 59.0716C150.296 60.1097 149.19 61.3169 148.054 62.4939C144.252 66.4354 140.4 70.3297 136.611 74.2849C134.381 76.6131 132.807 79.3116 132.628 82.6216C132.195 90.5748 139.024 96.8526 147.515 94.9514C149.82 94.4353 151.747 93.1947 153.374 91.5467C157.277 87.5903 161.117 83.5705 164.98 79.5743C165.144 79.404 165.361 79.2585 165.35 78.9087H165.351Z" fill="#120E78"></path><path d="M181.703 102.421C186.319 102.642 190.156 102.825 193.992 103.009C194.237 103.021 194.483 103.028 194.726 103.059C195.497 103.154 195.616 103.344 195.382 104.113C195.298 104.386 195.183 104.649 195.078 104.914C192.223 112.078 189.373 119.244 186.501 126.402C186.319 126.857 186.292 127.583 185.628 127.586C185.068 127.588 184.955 126.941 184.723 126.526C183.766 124.817 182.812 123.106 181.881 121.383C181.373 120.442 181.411 120.61 180.634 121.004C177.224 122.732 173.851 124.536 170.27 125.91C162.652 128.832 154.799 130.261 146.63 129.636C139.679 129.104 133.186 127.072 127.199 123.478C126.606 123.122 126.057 122.69 125.499 122.278C125.26 122.101 125.07 121.864 125.242 121.546C125.409 121.24 125.711 121.257 125.998 121.322C126.196 121.366 126.386 121.444 126.578 121.512C131.166 123.125 135.899 123.504 140.714 123.164C151.482 122.404 161.036 118.344 169.895 112.403C171.048 111.63 172.208 110.865 173.338 110.059C174.466 109.255 174.511 109.57 173.702 108.342C172.623 106.705 171.527 105.08 170.44 103.448C170.281 103.211 170.112 102.977 169.982 102.723C169.687 102.146 169.838 101.867 170.482 101.884C171.993 101.924 173.504 101.993 175.014 102.068C177.504 102.192 179.993 102.33 181.702 102.421L181.703 102.421ZM130.467 123.827C130.733 124.257 131.073 124.401 131.396 124.555C136.783 127.125 142.506 128.371 148.426 128.693C153.816 128.986 159.105 128.145 164.285 126.725C169.383 125.328 174.242 123.305 178.852 120.701C179.527 120.32 180.202 119.932 180.903 119.602C181.796 119.183 181.977 119.255 182.454 120.117C183.325 121.69 184.177 123.272 185.047 124.845C185.172 125.071 185.202 125.406 185.638 125.44C186.109 124.326 186.599 123.215 187.051 122.088C189.3 116.479 191.538 110.866 193.78 105.254C193.84 105.103 193.9 104.95 193.938 104.792C194.03 104.413 193.93 104.141 193.492 104.107C192.801 104.053 192.108 103.962 191.416 103.965C188.308 103.977 185.213 103.703 182.112 103.559C178.931 103.41 175.753 103.2 172.568 103.134C171.759 103.117 171.679 103.279 172.13 103.969C173.114 105.473 174.132 106.954 175.113 108.46C175.744 109.429 175.683 109.689 174.748 110.375C172.97 111.681 171.171 112.952 169.299 114.123C164.715 116.989 159.992 119.573 154.845 121.297C150.773 122.662 146.654 123.784 142.333 124.094C139.432 124.303 136.547 124.365 133.653 124.077C132.622 123.974 131.588 123.914 130.467 123.827H130.467Z" fill="#120E78"></path><path d="M133.93 41.7463C130.056 41.4895 126.182 41.2326 122.307 40.9754C122.103 40.9618 121.897 40.9601 121.696 40.9269C121.072 40.8237 120.903 40.6066 121.075 40.0163C121.222 39.5088 121.441 39.0216 121.639 38.5293C124.314 31.8639 126.99 25.1996 129.664 18.5339C129.831 18.1175 129.947 17.6776 130.143 17.276C130.453 16.6385 130.931 16.6133 131.339 17.2131C131.614 17.617 131.834 18.0584 132.074 18.4854C132.896 19.9446 133.709 21.4083 134.537 22.8637C135.011 23.6975 135.026 23.7028 135.814 23.2831C139.315 21.4186 142.927 19.8042 146.653 18.447C153.618 15.91 160.774 14.3666 168.222 14.495C175.433 14.6192 182.161 16.5599 188.429 20.1117C189.245 20.5745 190.029 21.0941 190.821 21.5992C190.989 21.7063 191.142 21.8503 191.27 22.0031C191.411 22.1698 191.428 22.3675 191.308 22.5696C191.193 22.765 191.011 22.8852 190.806 22.8548C190.526 22.8135 190.257 22.7031 189.985 22.6185C185.736 21.2999 181.402 20.6069 176.941 20.8434C170.584 21.1804 164.548 22.7842 158.723 25.3191C153.116 27.7591 147.945 30.949 142.866 34.309C141.971 34.9013 141.995 34.9188 142.596 35.7943C143.844 37.613 145.083 39.4376 146.322 41.2627C146.435 41.4293 146.544 41.6074 146.61 41.7958C146.75 42.1982 146.549 42.4226 146.165 42.4932C146.009 42.5221 145.84 42.4919 145.678 42.4812C141.763 42.2214 137.848 41.9603 133.933 41.6994C133.932 41.7149 133.931 41.7304 133.93 41.7459V41.7463ZM122.241 39.929C129.88 40.4087 137.319 40.8757 144.787 41.3446C144.829 40.7897 144.504 40.5009 144.286 40.1765C143.284 38.6841 142.255 37.2091 141.259 35.7124C140.586 34.7009 140.607 34.5727 141.631 33.8613C142.738 33.0919 143.866 32.3524 145.003 31.6282C150.805 27.9335 156.779 24.587 163.337 22.381C170.592 19.9407 177.967 19.0493 185.55 20.4556C185.834 20.5082 186.13 20.5831 186.586 20.4211C185.751 19.958 185.111 19.5473 184.425 19.2332C181.93 18.0886 179.326 17.2265 176.659 16.6075C172.086 15.5461 167.45 15.3812 162.774 15.8016C156.74 16.344 150.976 17.9131 145.349 20.095C142.104 21.3536 138.983 22.8608 135.925 24.5139C134.665 25.1952 134.592 25.1523 133.876 23.8581C133.044 22.3572 132.195 20.8659 131.344 19.3762C131.213 19.1471 131.158 18.8049 130.657 18.8575C127.892 25.7807 125.108 32.7501 122.241 39.9288V39.929Z" fill="#120E78"></path><path d="M26.2063 84.43C30.4581 84.43 34.7096 84.4265 38.9614 84.435C39.4147 84.4358 40.0137 84.2007 40.1634 84.9165C40.2521 85.3408 39.8651 85.523 38.9317 85.5228C30.4692 85.5206 22.0065 85.5173 13.5441 85.5113C13.1785 85.5111 12.8066 85.5181 12.4497 85.4539C12.1875 85.4066 12.0628 85.171 12.0895 84.8927C12.1118 84.6614 12.2558 84.5085 12.4753 84.4829C12.7981 84.4451 13.1257 84.4368 13.4514 84.4366C17.703 84.434 21.9547 84.4348 26.2063 84.4348C26.2063 84.4331 26.2063 84.4317 26.2063 84.43Z" fill="#120E78"></path><path d="M25.0306 111.633C20.9037 111.633 16.7768 111.633 12.6499 111.632C12.3232 111.632 11.9964 111.625 11.6699 111.612C11.3208 111.598 11.1561 111.404 11.1644 111.06C11.1716 110.76 11.3607 110.621 11.6292 110.597C11.913 110.571 12.2002 110.573 12.4856 110.573C21.0255 110.571 29.5654 110.566 38.1051 110.574C38.5472 110.575 39.2329 110.351 39.2084 111.13C39.1875 111.79 38.5643 111.619 38.1465 111.62C33.7744 111.629 29.4023 111.625 25.0304 111.625V111.633H25.0306Z" fill="#120E78"></path><path d="M15.9654 101.941C20.7431 101.941 25.5207 101.941 30.2984 101.941C30.5843 101.941 30.8701 101.935 31.1558 101.938C31.5257 101.943 31.8042 102.066 31.7881 102.499C31.7749 102.857 31.5383 102.985 31.2184 102.997C30.9738 103.007 30.7285 103.005 30.4835 103.005C20.7241 103.004 10.9646 103.003 1.20517 103.002C1.00102 103.002 0.797081 103.002 0.592935 103.002C0.262049 103.002 0.0267335 102.845 0.00196348 102.516C-0.0236322 102.177 0.203633 101.999 0.530803 101.979C0.856323 101.959 1.18349 101.96 1.51004 101.96C6.32864 101.959 11.147 101.959 15.9656 101.959C15.9656 101.953 15.9656 101.947 15.9656 101.941H15.9654Z" fill="#120E78"></path><path d="M299.585 41.8475C296.726 41.8475 293.867 41.8475 291.008 41.8475C290.804 41.8475 290.599 41.8444 290.395 41.8525C289.971 41.869 289.632 41.7078 289.641 41.26C289.648 40.8907 289.962 40.7172 290.33 40.7037C290.534 40.6963 290.738 40.6971 290.942 40.6971C296.66 40.699 302.377 40.7011 308.095 40.7037C308.421 40.7037 308.75 40.6922 309.074 40.7186C309.421 40.7469 309.748 40.8674 309.715 41.2934C309.685 41.6905 309.38 41.8213 309.019 41.8321C308.774 41.8393 308.529 41.8366 308.284 41.8366C305.385 41.8368 302.485 41.8366 299.585 41.8366V41.8471V41.8475Z" fill="#120E78"></path><path d="M36.6843 94.1321C33.5381 94.133 30.3919 94.133 27.2455 94.1328C27.0412 94.1328 26.8368 94.1321 26.6327 94.1307C26.2202 94.1276 25.7178 94.1588 25.7473 93.5776C25.7766 93.0034 26.296 93.0971 26.6948 93.0851C26.8172 93.0814 26.94 93.0851 27.0624 93.0853C33.3957 93.0882 39.7292 93.0909 46.0625 93.094C46.3077 93.094 46.5527 93.0994 46.7979 93.0983C47.1775 93.0967 47.6023 93.1025 47.6327 93.59C47.6643 94.0995 47.2426 94.1268 46.8586 94.1297C46.6134 94.1315 46.3684 94.1313 46.1231 94.1313C42.9769 94.1313 39.8305 94.1313 36.6843 94.1321Z" fill="#120E78"></path><path d="M298.288 68.3451C295.794 68.3451 293.301 68.3471 290.807 68.344C289.903 68.343 289.477 68.1335 289.587 67.7195C289.763 67.0653 290.343 67.2397 290.808 67.2386C295.794 67.2287 300.781 67.225 305.768 67.2201C305.972 67.2201 306.179 67.2031 306.38 67.2289C306.684 67.2679 306.968 67.4081 306.947 67.7513C306.928 68.0565 306.691 68.2679 306.379 68.31C306.098 68.3479 305.809 68.3366 305.523 68.3368C303.111 68.3384 300.699 68.3376 298.288 68.3376V68.3448V68.3451Z" fill="#120E78"></path><path d="M305.659 58.2909C307.982 58.2909 310.305 58.2907 312.628 58.2909C312.872 58.2909 313.117 58.2911 313.361 58.2961C313.747 58.3037 314.003 58.5122 314.001 58.8843C313.999 59.2271 313.707 59.3294 313.395 59.3356C313.15 59.3404 312.906 59.3526 312.662 59.3532C307.853 59.3653 303.044 59.3761 298.235 59.3872C298.073 59.3876 297.909 59.3973 297.747 59.3866C297.382 59.3622 297.097 59.2106 297.118 58.8019C297.136 58.4608 297.408 58.3303 297.713 58.3056C297.997 58.2827 298.283 58.2915 298.569 58.2913C300.932 58.2905 303.296 58.2909 305.66 58.2907L305.659 58.2909Z" fill="#120E78"></path><path d="M294.365 50.5336C292.2 50.5336 290.035 50.5336 287.871 50.5336C287.667 50.5336 287.462 50.5404 287.258 50.5342C286.845 50.522 286.355 50.5426 286.376 49.9588C286.396 49.385 286.891 49.4247 287.297 49.4247C292.035 49.4251 296.772 49.4288 301.51 49.4341C301.713 49.4344 301.922 49.4341 302.118 49.4783C302.38 49.5375 302.543 49.7237 302.531 50.0015C302.518 50.276 302.344 50.4634 302.081 50.4985C301.759 50.5412 301.43 50.5383 301.103 50.5387C298.857 50.5416 296.611 50.5402 294.365 50.5402V50.5329V50.5336Z" fill="#120E78"></path><path d="M41.3435 119.648C43.0128 119.648 44.6819 119.647 46.3512 119.648C46.5954 119.648 46.8414 119.634 47.0833 119.658C47.3579 119.686 47.5193 119.853 47.5325 120.139C47.5484 120.483 47.3804 120.675 47.0371 120.696C46.7935 120.71 46.5487 120.707 46.3045 120.707C42.8846 120.707 39.4649 120.707 36.045 120.705C35.8008 120.705 35.5556 120.708 35.313 120.686C34.9964 120.657 34.752 120.506 34.7794 120.153C34.805 119.826 35.03 119.657 35.3591 119.655C36.3769 119.65 37.3945 119.649 38.4124 119.648C39.3896 119.647 40.3665 119.648 41.3437 119.648H41.3435Z" fill="#120E78"></path><path d="M288.708 76.0156C289.892 76.0156 291.076 76.0121 292.26 76.0181C292.542 76.0195 292.832 75.9716 293.096 76.1326C293.464 76.357 293.463 76.7873 293.098 77.0211C292.872 77.1662 292.628 77.1301 292.387 77.1301C289.977 77.1311 287.568 77.1319 285.158 77.1291C284.678 77.1284 284.008 77.2327 284.008 76.5675C284.007 75.9062 284.666 76.0028 285.154 76.0043C286.339 76.0082 287.523 76.0055 288.707 76.0055V76.0152L288.708 76.0156Z" fill="#120E78"></path><path d="M145.027 52.4261C144.974 51.5742 144.92 50.7224 144.868 49.8704C144.845 49.4802 144.89 49.0788 145.379 49.074C145.775 49.0701 145.882 49.4242 145.903 49.772C146.02 51.6788 146.136 53.5856 146.247 55.4926C146.254 55.6123 146.242 55.7376 146.213 55.854C146.15 56.1099 145.991 56.3109 145.722 56.3154C145.508 56.3189 145.339 56.1483 145.286 55.945C145.215 55.6723 145.176 55.3873 145.16 55.1056C145.106 54.213 145.07 53.3191 145.027 52.4259L145.027 52.4261Z" fill="#120E78"></path><path d="M181.078 85.4701C181.062 85.828 180.662 86.0499 180.368 85.8932C180.297 85.8555 180.231 85.8028 180.174 85.7459C178.729 84.3094 177.281 82.8751 175.845 81.4293C175.646 81.2287 175.462 80.9734 175.768 80.6967C176.002 80.4841 176.258 80.3993 176.527 80.6292C176.774 80.8407 177.016 81.0597 177.245 81.2909C178.019 82.0728 178.786 82.8614 179.556 83.6476C179.955 84.0552 180.359 84.4582 180.751 84.8729C180.917 85.0485 181.065 85.2448 181.077 85.4701H181.078Z" fill="#120E78"></path><path d="M137.832 63.4756C136.496 63.3745 135.16 63.2763 133.825 63.1702C133.502 63.1444 133.18 63.0971 132.858 63.0513C132.548 63.0069 132.3 62.8751 132.345 62.5104C132.388 62.1614 132.658 62.0673 132.964 62.0555C133.126 62.0493 133.289 62.0549 133.451 62.0681C135.19 62.2103 136.93 62.3471 138.668 62.5048C139.096 62.5436 139.733 62.5238 139.709 63.0907C139.678 63.8261 139.017 63.5617 138.56 63.5413C138.317 63.5303 138.075 63.501 137.832 63.48C137.832 63.4785 137.832 63.4771 137.832 63.4758L137.832 63.4756Z" fill="#120E78"></path><path d="M179.247 75.666C180.781 75.8447 182.316 76.0243 183.85 76.2015C184.091 76.2294 184.34 76.215 184.544 76.3828C184.674 76.4899 184.784 76.6222 184.757 76.7935C184.725 76.9996 184.626 77.2011 184.39 77.2188C184.109 77.2401 183.821 77.231 183.54 77.2027C181.922 77.0407 180.304 76.8692 178.687 76.7012C178.647 76.6971 178.606 76.696 178.566 76.6896C178.162 76.625 177.668 76.5755 177.747 76.0282C177.811 75.576 178.268 75.5995 178.639 75.6189C178.841 75.6294 179.043 75.659 179.245 75.68C179.246 75.6753 179.246 75.6707 179.247 75.666Z" fill="#120E78"></path><path d="M141.409 58.1268C141.401 58.3034 141.361 58.45 141.224 58.5664C141.039 58.7226 140.828 58.7317 140.667 58.5918C139.1 57.2304 137.633 55.7668 136.281 54.1902C136.144 54.0306 136.153 53.8038 136.338 53.6422C136.502 53.5002 136.693 53.4187 136.891 53.5539C137.091 53.6911 137.283 53.8453 137.457 54.015C138.622 55.1528 139.783 56.2957 140.942 57.4393C141.145 57.6389 141.352 57.8384 141.409 58.1268Z" fill="#120E78"></path><path d="M172.274 89.2118C172.279 89.1433 172.298 89.3548 172.24 89.5416C172.178 89.7364 172.008 89.8815 171.791 89.896C171.563 89.9115 171.39 89.7686 171.347 89.5608C171.258 89.1251 171.187 88.6826 171.15 88.2395C171.037 86.9053 170.943 85.5693 170.842 84.2342C170.83 84.0728 170.8 83.911 170.805 83.7502C170.814 83.4454 170.919 83.154 171.25 83.115C171.663 83.0665 171.813 83.3872 171.849 83.7273C171.929 84.4932 171.983 85.2622 172.042 86.0302C172.116 87.0008 172.184 87.9719 172.274 89.2116V89.2118Z" fill="#120E78"></path><path d="M226.066 12.5296C225.048 12.4497 224.032 12.3391 223.014 12.2966C220.932 12.2099 219.505 13.3993 219.211 15.4809C218.777 18.5536 218.387 21.6326 217.96 24.7063C217.348 29.1145 216.704 33.5183 216.104 37.928C215.652 41.2452 215.257 44.57 214.816 47.8887C214.408 50.9649 213.97 54.0373 213.551 57.1121C213.523 57.3162 213.517 57.5246 213.375 57.686C212.28 58.9324 211.24 60.2308 209.918 61.4792C209.767 60.3837 210.051 59.4772 210.169 58.5817C210.98 52.3883 211.866 46.2044 212.716 40.016C213.572 33.7864 214.407 27.5542 215.264 21.3249C215.892 16.7545 216.464 12.1742 217.205 7.62196C217.75 4.27997 219.828 2.16865 223.085 1.26489C224.081 0.98854 225.121 1.10948 226.136 1.20648C231.869 1.75464 237.602 2.29929 243.33 2.89389C249.95 3.58094 256.563 4.33384 263.182 5.02791C266.797 5.40683 270.419 5.71496 274.036 6.07345C274.97 6.16592 275.897 6.32215 276.826 6.46001C279.663 6.88104 282.217 10.2612 281.834 13.5079C281.318 17.8865 280.679 22.2505 280.097 26.6216C279.591 30.4261 279.106 34.2337 278.584 38.0359C277.945 42.6882 277.268 47.3352 276.624 51.9867C275.952 56.8407 275.311 61.6992 274.634 66.5525C274.085 70.4988 273.408 74.43 272.958 78.3873C272.36 83.6555 271.571 88.8966 270.893 94.153C270.089 100.389 269.168 106.609 268.315 112.838C267.612 117.975 266.938 123.116 266.242 128.254C266.116 129.184 265.999 130.12 265.78 131.031C264.906 134.679 261.766 136.875 258.033 136.525C253.803 136.13 249.586 135.615 245.361 135.191C242.436 134.897 239.503 134.681 236.578 134.376C232.029 133.903 227.479 133.434 222.929 132.974C218.5 132.526 214.069 132.097 209.64 131.648C208.625 131.545 207.615 131.388 206.602 131.264C203.161 130.844 200.715 127.434 201.108 124.002C201.595 119.743 202.251 115.504 202.839 111.257C203.455 106.808 204.078 102.36 204.696 97.9105C205.481 92.2481 206.268 86.5857 207.045 80.9223C207.351 78.6979 207.631 76.4699 207.925 74.2437C207.951 74.0414 207.988 73.8404 208.018 73.6385C208.076 73.246 208.261 73.0869 208.689 73.1653C209.209 73.2607 209.746 73.2656 210.272 73.3362C211.072 73.4433 211.151 73.5401 211.042 74.3733C210.737 76.7215 210.42 79.0681 210.099 81.4143C209.624 84.8938 209.134 88.3712 208.664 91.8514C207.834 98.0015 207.017 104.153 206.186 110.303C206.072 111.153 205.905 111.995 205.768 112.842C205.357 115.375 206.515 117.067 209.062 117.503C210.346 117.724 211.659 117.779 212.96 117.905C216.903 118.287 220.845 118.669 224.789 119.048C227.715 119.33 230.644 119.594 233.569 119.89C237.104 120.246 240.636 120.626 244.17 120.999C247.622 121.363 251.073 121.74 254.527 122.092C256.355 122.278 258.184 122.488 260.018 122.567C262.575 122.677 263.939 121.593 264.352 119.076C264.808 116.296 265.13 113.496 265.512 110.704C266.132 106.173 266.763 101.643 267.372 97.1103C267.927 92.9826 268.453 88.851 269.003 84.7225C269.342 82.1742 269.703 79.6289 270.052 77.0817C270.687 72.4413 271.397 67.8119 271.981 63.1637C272.514 58.915 273.177 54.6827 273.773 50.4417C274.301 46.6805 274.822 42.9183 275.333 39.1547C275.866 35.2301 276.382 31.303 276.91 27.3778C277.172 25.4349 277.467 23.4965 277.708 21.5511C278 19.1921 276.912 17.7053 274.534 17.2928C273.331 17.0841 272.101 17.0294 270.882 16.9163C266.164 16.4786 261.445 16.0571 256.729 15.6066C253.111 15.2611 249.497 14.882 245.881 14.5152C245.635 14.4903 245.393 14.4684 245.162 14.5848C244.539 14.4211 244.141 13.9499 243.689 13.5384C241.21 11.2822 237.784 9.95329 234.528 11.9135C234.043 12.2056 233.537 12.2134 233 12.0326C232.267 11.7858 231.526 11.5548 230.778 11.3602C229.248 10.9623 227.788 10.9619 226.573 12.1971C226.435 12.3381 226.236 12.42 226.066 12.5294L226.066 12.5296ZM238.085 127.085C238.099 124.36 236.25 122.371 233.699 122.364C231.055 122.358 229.053 124.296 229.053 126.863C229.053 129.525 231.042 131.596 233.627 131.624C236.097 131.652 238.072 129.641 238.085 127.085V127.085ZM257.059 10.9437C257.058 10.954 257.057 10.9642 257.056 10.9745C257.301 10.9745 257.546 10.9862 257.789 10.9714C258.061 10.9549 258.252 10.81 258.284 10.5293C258.317 10.2474 258.158 10.0435 257.902 9.98177C257.509 9.88663 257.105 9.8212 256.701 9.78405C254.958 9.62307 253.213 9.48541 251.469 9.32278C249.766 9.16407 248.066 8.97874 246.363 8.82023C245.919 8.77875 245.467 8.7674 245.022 8.79258C244.768 8.80682 244.564 8.97853 244.559 9.26768C244.556 9.49656 244.708 9.66166 244.912 9.70975C245.307 9.80283 245.71 9.87362 246.113 9.91614C246.842 9.99271 247.574 10.0342 248.304 10.1035C251.223 10.3809 254.141 10.6633 257.059 10.9437H257.059ZM241.127 9.67095C241.536 9.64577 241.922 9.14859 241.857 8.69289C241.788 8.21511 241.488 7.98045 241.006 8.00625C240.51 8.03287 240.272 8.32099 240.277 8.80372C240.281 9.27552 240.705 9.69675 241.127 9.67075L241.127 9.67095Z" fill="#08D9C4"></path><path d="M221.534 64.2323C221.26 64.0918 221.133 64.0596 221.052 63.9804C218.98 61.9446 217.038 59.7986 215.389 57.3958C214.98 56.8002 214.973 56.3319 215.41 55.7481C217.661 52.741 219.784 49.6316 222.38 46.8993C223.624 45.5906 225.031 44.4687 226.635 43.6238C228.3 42.7468 230.026 42.01 231.835 41.4763C233.059 41.115 233.138 41.1424 233.791 42.2073C235.072 44.297 236.893 44.9607 239.243 44.2693C240.714 43.8372 241.901 42.9988 242.852 41.8476C243.406 41.1763 243.999 41.1193 244.796 41.2159C247.786 41.5781 250.672 42.2738 253.291 43.8008C255.173 44.8982 256.834 46.2787 258.079 48.1032C260.599 51.7937 262.812 55.6457 264.279 59.8898C264.333 60.0444 264.388 60.1983 264.439 60.3535C264.77 61.3593 264.731 61.5099 263.81 62.0242C261.272 63.4394 258.616 64.6073 255.948 65.7478C255.274 66.0364 254.496 65.9862 253.837 66.3513C253.494 66.542 253.307 66.3336 253.16 66.0599C252.947 65.664 252.72 65.2742 252.533 64.8664C251.561 62.7495 250.306 60.774 249.411 58.6183C249.333 58.4317 249.227 58.2515 249.104 58.0909C248.906 57.8323 248.63 57.7514 248.348 57.923C248.104 58.0707 248.11 58.3405 248.178 58.5824C248.244 58.8166 248.334 59.0488 248.445 59.2655C249.917 62.1363 251.155 65.1303 252.921 67.848C253.198 68.2746 253.313 68.7291 253.314 69.2376C253.317 71.28 253.269 73.3251 253.532 75.3579C253.644 76.2155 253.37 76.9314 252.888 77.6457C251.15 80.2183 249.436 82.8076 247.77 85.4266C247.23 86.2741 246.635 86.667 245.585 86.5855C241.263 86.2499 236.927 86.3954 232.598 86.2957C230.311 86.2431 228.025 86.1544 225.739 86.0644C224.392 86.0113 224.132 85.7426 224.117 84.3386C224.102 82.8687 224.125 81.4003 224.206 79.9292C224.304 78.1351 224.242 76.3327 224.286 74.5349C224.37 71.0633 224.416 67.5886 224.604 64.1221C224.719 62.0075 224.846 59.8855 225.184 57.7838C225.269 57.2551 225.667 56.3769 224.902 56.2079C224.241 56.062 224.224 56.9851 224.035 57.4834C223.195 59.6937 222.389 61.9169 221.535 64.2328L221.534 64.2323Z" fill="#423DF9"></path><path d="M246.592 16.1264C246.542 15.6092 246.904 15.772 247.161 15.7926C248.709 15.9165 250.257 16.0335 251.803 16.1788C258.638 16.8202 265.472 17.4691 272.305 18.1202C272.956 18.1822 273.604 18.2746 274.252 18.3596C275.685 18.5475 276.923 19.3249 276.626 21.3768C276.13 24.8127 275.715 28.2606 275.245 31.7004C274.471 37.3656 273.683 43.0293 272.895 48.6927C272.113 54.3148 271.313 59.9345 270.542 65.5583C270.077 68.9572 269.728 72.3739 269.193 75.7615C268.288 81.4914 267.655 87.2568 266.824 92.9961C265.922 99.2211 265.133 105.462 264.295 111.697C263.973 114.085 263.667 116.476 263.328 118.862C263.063 120.725 262.001 121.59 260.139 121.505C259.813 121.49 259.488 121.411 259.163 121.416C258.583 121.423 258.429 121.136 258.373 120.591C258.098 117.909 257.771 115.232 257.471 112.552C257.011 108.451 256.56 104.349 256.102 100.248C255.771 97.2842 255.444 94.3195 255.091 91.358C255.03 90.8489 255.194 90.5077 255.554 90.18C258.947 87.0914 261.868 83.5596 264.986 80.2114C267.614 77.3899 268.23 74.1903 267.687 70.5804C267.309 68.0704 266.65 65.6301 265.809 63.2366C265.706 62.9429 265.438 62.6216 265.707 62.3192C266.264 61.6949 265.946 61.0894 265.711 60.4905C264.578 57.6112 263.378 54.7759 261.786 52.0958C261.108 50.9536 260.459 49.7729 259.774 48.6256C257.601 44.9897 254.4 42.6596 250.413 41.341C248.544 40.7231 246.642 40.274 244.676 40.139C244.22 40.1079 243.879 40.014 243.821 39.4846C243.604 37.4996 243.042 35.5517 243.177 33.5283C245.016 32.2442 246.472 30.6251 247.472 28.6081C248.535 26.4619 249.175 24.1844 249.267 21.8019C249.357 19.4935 248.699 17.4447 246.593 16.1266L246.592 16.1264Z" fill="#FBFBFB"></path><path d="M254.048 91.6753C255.171 101.606 256.27 111.334 257.385 121.194C256.511 121.147 255.67 121.141 254.839 121.049C250.335 120.553 245.814 120.207 241.321 119.604C240.364 119.476 240.326 119.477 240.116 118.54C239.177 114.357 238.318 110.158 237.586 105.933C237.509 105.491 237.422 105.05 237.33 104.611C237.254 104.244 237.156 103.795 236.682 103.898C236.196 104.003 236.346 104.48 236.382 104.829C236.433 105.316 236.493 105.805 236.6 106.281C236.988 108.001 236.577 109.703 236.469 111.405C236.329 113.604 236.049 115.794 235.832 117.988C235.739 118.925 235.738 118.972 234.812 118.904C232.613 118.745 230.416 118.555 228.221 118.344C226.148 118.146 224.079 117.907 222.009 117.681C221.223 117.595 221.159 117.535 221.243 116.785C221.672 112.971 222.118 109.159 222.546 105.345C222.902 102.18 223.251 99.0151 223.584 95.848C223.857 93.2492 224.235 90.6619 224.403 88.0513C224.466 87.0731 224.564 87.0388 225.536 87.135C226.064 87.1872 226.594 87.2312 227.124 87.2431C231.781 87.3474 236.438 87.451 241.095 87.5379C242.559 87.5651 244.018 87.6526 245.66 87.7996C244.451 88.7068 243.216 89.1487 241.926 89.4769C240.885 89.7414 239.899 90.116 239.121 90.8986C238.805 91.2161 238.404 91.5203 238.623 92.0441C238.815 92.5045 239.24 92.67 239.712 92.7179C240.235 92.771 240.758 92.8217 241.479 92.8931C240.647 93.7643 239.929 94.5087 239.219 95.2606C238.771 95.7349 238.281 96.1732 237.939 96.7406C237.28 97.833 237.315 98.6678 238.052 99.696C239.451 101.651 241.092 102.327 243.869 101.397C245.828 100.742 247.348 99.4481 248.608 97.842C249.54 96.6529 250.447 95.4432 251.363 94.2404C252.06 93.3243 252.924 92.5848 254.048 91.6753H254.048Z" fill="#08D9C4"></path><path d="M223.073 77.053C223.073 79.8417 223.069 82.4572 223.077 85.0729C223.079 85.5464 222.964 86.0438 223.415 86.4342C223.655 86.6423 223.508 86.9686 223.477 87.2495C222.932 92.1614 222.396 97.0742 221.85 101.986C221.309 106.857 220.749 111.727 220.224 116.6C220.142 117.364 220.204 117.51 219.281 117.419C215.866 117.085 212.449 116.775 209.037 116.409C207.452 116.239 206.661 115.245 206.842 113.609C207.105 111.214 207.46 108.829 207.78 106.441C208.468 101.301 209.154 96.1597 209.852 91.0205C210.544 85.9216 211.249 80.8245 211.95 75.7266C212.049 75.0011 211.956 74.1535 212.31 73.5847C212.674 72.998 213.617 73.0694 214.298 72.8355C216.721 72.0024 218.619 70.4004 220.496 68.7551C220.803 68.4858 221.083 68.1789 221.413 67.9438C221.71 67.7329 221.898 67.1073 222.38 67.4609C222.843 67.8006 223.402 68.1157 223.344 68.8944C223.259 70.0339 223.287 71.1816 223.25 72.3251C223.197 73.9587 223.129 75.5916 223.073 77.0532L223.073 77.053Z" fill="#FBFBFB"></path><path d="M262.941 137.015C262.98 136.626 263.136 136.557 263.266 136.47C265.686 134.856 266.872 132.468 267.186 129.697C267.723 124.952 268.422 120.23 269.028 115.496C269.811 109.387 270.746 103.297 271.592 97.1947C272.208 92.7494 272.781 88.2979 273.384 83.8507C273.838 80.4955 274.313 77.143 274.77 73.7882C275.288 69.9884 275.786 66.1858 276.311 62.3871C276.853 58.4668 277.428 54.5512 277.968 50.631C278.497 46.7914 278.993 42.947 279.517 39.1068C280.123 34.6609 280.779 30.2211 281.35 25.7706C281.833 22.0068 282.427 18.2586 282.901 14.495C283.206 12.065 282.63 9.78818 281.136 7.78748C280.947 7.53425 280.679 7.31899 280.59 6.83398C281.475 6.77062 282.288 6.98712 283.029 7.33364C285.402 8.44296 286.776 10.2899 286.946 12.9521C287.037 14.3885 286.824 15.8043 286.626 17.2197C285.76 23.4032 284.878 29.5846 284.029 35.7704C283.324 40.9034 282.688 46.0461 281.961 51.176C281.441 54.8511 280.909 58.5262 280.408 62.2028C279.851 66.2842 279.187 70.3523 278.76 74.4532C278.506 76.886 278.085 79.3011 277.752 81.7262C277.187 85.8487 276.636 89.9731 276.072 94.0959C275.575 97.7332 275.063 101.369 274.567 105.006C274.103 108.401 273.658 111.798 273.192 115.192C272.753 118.385 272.282 121.574 271.852 124.768C271.574 126.829 271.349 128.898 270.951 130.942C270.384 133.846 268.778 135.824 265.888 136.654C264.948 136.924 263.977 136.98 262.942 137.017L262.941 137.015Z" fill="#423DF9"></path><path d="M254.989 67.326C258.114 66.1306 261.009 64.7503 263.808 63.1643C264.206 62.9383 264.557 62.853 264.749 63.4086C265.791 66.4249 266.623 69.4842 266.81 72.6943C266.947 75.0628 266.194 77.0449 264.666 78.8728C260.678 83.6457 256.384 88.1137 251.764 92.2738C250.572 93.3472 249.712 94.7026 248.716 95.9427C247.721 97.1823 246.796 98.4778 245.491 99.4443C244.242 100.369 242.841 100.675 241.339 100.634C240.113 100.6 239.311 99.8622 238.709 98.8792C238.375 98.3323 238.497 97.7802 238.837 97.2673C239.336 96.5119 239.977 95.8835 240.636 95.2712C241.355 94.6041 242.071 93.9348 242.661 93.145C243.339 92.2375 243.198 91.9032 242.05 91.7515C241.727 91.7087 241.397 91.7236 241.072 91.6929C240.759 91.6631 240.43 91.7494 240.06 91.5385C240.35 91.0209 240.885 90.9084 241.348 90.7449C242.154 90.4603 242.986 90.2498 243.804 89.9951C245.619 89.4292 247.028 88.3748 248.126 86.7809C250.79 82.9149 253.303 78.9506 255.912 75.0489C256.138 74.7111 256.305 74.3346 256.507 73.9803C257.141 72.8674 257.129 71.7249 256.668 70.5625C256.233 69.4639 255.627 68.451 254.989 67.326Z" fill="#FBFBFB"></path><path d="M228.497 20.7809C227.806 24.0764 227.593 27.4038 227.895 30.7565C227.956 31.4421 228.109 32.1337 228.323 32.7888C229.048 35.0093 230.362 36.6828 232.74 37.2909C233.148 37.3951 233.418 37.5429 233.268 38.0413C233.08 38.666 233.401 39.447 232.975 39.9351C232.591 40.3747 231.847 40.3039 231.265 40.4682C226.24 41.8866 222.27 44.8086 219.132 48.9324C217.827 50.6479 216.503 52.3489 215.027 54.0188C215.224 52.5598 215.419 51.1009 215.617 49.6422C216.325 44.4231 217.025 39.2028 217.745 33.9854C218.51 28.4446 219.294 22.9064 220.071 17.3671C220.172 16.6396 220.249 15.9065 220.395 15.1874C220.634 14.0009 221.307 13.4288 222.53 13.4294C223.549 13.4299 224.567 13.5316 225.586 13.5886C225.716 13.8307 225.603 14.0694 225.563 14.3035C225.148 16.7968 225.938 18.7825 228.023 20.242C228.214 20.3753 228.341 20.5991 228.497 20.7809Z" fill="#FBFBFB"></path><path d="M188.817 50.0168C189.651 50.8945 190.259 51.6875 190.71 52.5956C191.293 53.7666 191.818 54.9684 192.118 56.2409C192.276 56.9094 192.561 57.2815 193.234 57.5116C197.901 59.1084 202.543 60.7802 207.215 62.3623C210.476 63.4667 210.087 62.9375 211.706 61.1735C212.506 60.3009 213.31 59.4319 214.109 58.5584C214.395 58.2464 214.631 58.2396 214.881 58.6144C216.748 61.416 219.192 63.6978 221.645 66.0758C221.175 66.5406 220.728 67.0023 220.261 67.4423C219.069 68.5634 217.77 69.5544 216.462 70.531C213.709 72.5862 210.637 72.6424 207.469 71.8744C205.077 71.2944 202.877 70.2027 200.665 69.1565C197.375 67.6006 194.294 65.6787 191.235 63.7222C190.465 63.2295 189.641 62.9183 188.764 62.6973C187.463 62.3695 186.168 62.0158 184.9 61.6806C184.754 61.1919 185.134 61.0534 185.339 60.8396C186.611 59.514 187.881 58.1853 189.189 56.8948C189.753 56.3375 189.88 55.7425 189.665 55.0113C189.389 54.0726 189.122 53.1305 188.886 52.1813C188.73 51.5539 188.573 50.915 188.816 50.0164L188.817 50.0168Z" fill="#FBFBFB"></path><path d="M228.498 20.7808C228.341 20.5989 228.215 20.3752 228.024 20.2419C225.939 18.7823 225.148 16.7967 225.564 14.3034C225.603 14.0691 225.716 13.8306 225.586 13.5885C225.746 13.2355 225.906 12.8826 226.066 12.5297C226.236 12.4203 226.434 12.3384 226.573 12.1974C227.788 10.9622 229.248 10.9626 230.778 11.3605C231.526 11.5552 232.267 11.7863 233 12.0329C233.537 12.2137 234.043 12.2059 234.528 11.9139C237.784 9.95361 241.21 11.2825 243.689 13.5387C244.141 13.9503 244.539 14.4214 245.162 14.5851C245.496 15.2323 246.134 15.5974 246.594 16.1266C248.701 17.4448 249.358 19.4936 249.268 21.802C249.176 24.1845 248.536 26.4619 247.473 28.6081C246.473 30.6251 245.017 32.244 243.178 33.5284C242.867 33.5294 242.547 33.5537 242.461 33.1335C242.417 32.9189 242.255 32.8235 242.047 32.7965C242.039 32.3076 242.061 31.816 242.017 31.3306C241.925 30.322 242.29 29.6219 243.226 29.1683C243.892 28.8455 244.436 28.3353 244.784 27.6567C245.161 26.9232 245.059 26.0729 244.548 25.6228C243.986 25.127 243.236 25.1097 242.517 25.5869C242.176 25.8135 241.86 26.0673 241.675 26.4539C241.518 26.781 241.387 27.1783 240.913 27.1156C240.471 27.0569 240.203 26.7527 240.027 26.3569C239.858 25.9786 239.76 25.5842 239.76 25.1714C239.759 24.3558 239.778 23.5399 239.772 22.7245C239.765 21.7613 239.705 21.7023 238.74 21.6195C238.496 21.5987 238.25 21.6061 238.005 21.5925C235.28 21.4406 232.528 21.6546 229.841 20.983C229.733 20.956 229.604 21.015 229.484 21.034C229.227 20.6702 228.835 20.8328 228.498 20.7812L228.498 20.7808Z" fill="#040405"></path><path d="M229.485 21.0338C229.604 21.0148 229.733 20.9558 229.841 20.9828C232.528 21.6544 235.28 21.4404 238.005 21.5923C238.25 21.6059 238.496 21.5984 238.74 21.6193C239.705 21.7021 239.765 21.7613 239.772 22.7243C239.778 23.5399 239.759 24.3555 239.76 25.1712C239.76 25.5842 239.858 25.9784 240.027 26.3567C240.204 26.7525 240.471 27.0569 240.913 27.1153C241.387 27.1781 241.519 26.7808 241.675 26.4537C241.86 26.0671 242.175 25.8132 242.517 25.5866C243.236 25.1093 243.986 25.1268 244.548 25.6225C245.059 26.0727 245.161 26.923 244.785 27.6565C244.437 28.3353 243.893 28.8455 243.226 29.168C242.29 29.6217 241.925 30.3217 242.017 31.3303C242.061 31.816 242.039 32.3076 242.047 32.7963C241.897 34.8508 242.282 36.8625 242.634 38.8624C242.824 39.9426 242.613 40.6591 241.789 41.4137C240.466 42.6247 239.072 43.4447 237.214 43.364C235.718 43.299 234.51 41.7969 234.228 40.5242C234.124 40.0511 234.428 39.7839 234.77 39.5213C235.741 38.7771 236.705 38.0244 237.649 37.2468C238.056 36.9116 238.424 36.5234 238.774 36.1275C239.092 35.7674 239.513 35.3588 239.063 34.8568C238.667 34.415 238.243 34.7375 237.857 34.9637C237.01 35.4601 236.128 35.8588 235.162 36.083C232.684 36.6577 230.936 35.8694 229.839 33.5719C228.863 31.5268 228.736 29.3362 228.86 27.1141C228.973 25.0773 229.206 23.053 229.485 21.0336V21.0338ZM242.562 27.5312C242.711 27.4893 242.825 27.4478 242.942 27.4261C243.338 27.3535 243.75 27.3099 243.905 26.8462C243.961 26.6803 243.929 26.5094 243.753 26.4516C243.291 26.2995 242.891 26.4821 242.52 26.7399C242.424 26.8064 242.337 26.8972 242.273 26.9942C242.177 27.1382 242.198 27.2969 242.284 27.4422C242.359 27.5679 242.48 27.5454 242.563 27.5312H242.562Z" fill="#FBFBFB"></path><path d="M191.575 51.7391C191.121 51.0991 190.738 50.5301 190.325 49.985C189.718 49.1867 188.997 48.6437 187.736 49.2195C187.997 48.1672 188.043 47.2834 188.024 46.3976C187.912 41.2819 182.971 37.884 178.215 39.7819C176.258 40.5627 174.675 41.8053 173.311 43.3462C170.685 46.3142 167.876 49.1077 165.154 51.9832C164.782 52.3758 164.408 52.5473 163.854 52.3877C162.718 52.0608 161.564 51.7954 160.421 51.4902C159.736 51.3073 159.703 51.176 160.185 50.6207C160.612 50.1276 161.036 49.6294 161.492 49.1626C165.029 45.5378 168.535 41.8825 172.127 38.3137C174.568 35.8893 177.511 34.7389 181.037 34.6297C186.293 34.4669 191.957 38.9985 192.537 44.7921C192.74 46.8228 192.581 48.7764 192.11 50.7321C192.053 50.968 191.951 51.1942 191.857 51.4192C191.827 51.4891 191.753 51.5405 191.575 51.7391H191.575Z" fill="#423DF9"></path><path d="M187.486 50.2288C187.724 51.8609 187.993 53.3461 188.403 54.7974C188.618 55.5552 188.446 56.1027 187.886 56.6573C185.68 58.8415 183.503 61.0547 181.333 63.2742C179.194 65.4627 177.085 67.6814 174.944 69.8686C173.316 71.5317 171.434 72.7725 169.134 73.3378C164.079 74.5804 159.36 72.7652 156.424 68.8507C156.375 68.7853 156.321 68.7236 156.275 68.6557C155.447 67.418 155.529 66.2051 156.489 65.4809C157.59 64.6494 159.114 64.8318 159.975 65.9746C160.572 66.7662 161.214 67.4851 162.044 68.033C164.272 69.5027 167.961 69.4831 170.176 67.9883C170.924 67.483 171.597 66.8833 172.219 66.2406C174.233 64.1573 176.228 62.0545 178.202 59.9318C178.784 59.3052 179.415 58.8861 180.287 58.8078C181.133 58.7319 181.819 58.3016 182.405 57.6884C184.162 55.8474 185.783 53.9184 186.66 51.4719C186.806 51.0659 186.961 50.6327 187.486 50.2292V50.2288Z" fill="#423DF9"></path><path d="M179.68 57.7724C178.541 57.7829 178.272 57.448 178.712 56.4406C179.705 54.1667 181.25 52.2966 183.132 50.6982C183.314 50.5434 183.538 50.4171 183.764 50.3382C184.709 50.008 185.378 50.5136 185.358 51.5074C185.35 51.9305 185.229 52.3164 185.006 52.6582C184.003 54.192 182.919 55.6638 181.578 56.9258C181.028 57.4426 180.404 57.7984 179.68 57.7724H179.68Z" fill="#FBFBFB"></path><path d="M237.459 112.022C238.32 114.379 238.666 116.818 239.216 119.229C239.065 119.274 238.945 119.352 238.84 119.336C236.467 118.971 236.781 119.577 236.93 117.067C237.03 115.381 237.277 113.703 237.459 112.022Z" fill="#FBFBFB"></path><path d="M254.57 68.9243C256.545 72.2306 256.233 72.3253 254.615 75.1066C254.363 72.9174 254.522 70.9215 254.57 68.9243Z" fill="#FBFBFB"></path><path d="M65.1282 45.5598C64.7911 47.065 64.959 48.5316 65.4727 49.9693C65.5813 50.2729 65.7372 50.5612 65.7244 50.8963C64.0373 51.2352 62.3113 51.1735 60.6122 51.4045C58.9855 51.6255 58.2514 52.425 58.243 54.0802C58.237 55.2273 58.3978 56.3598 58.5121 57.4959C58.8598 60.9465 59.2193 64.396 59.5783 67.8453C60.0512 72.3897 60.5299 76.9337 61.003 81.4781C61.3706 85.0083 61.7273 88.5395 62.1003 92.0691C62.4475 95.3552 62.8199 98.6386 63.1629 101.925C63.6206 106.307 64.0623 110.691 64.5077 115.075C64.9612 119.539 65.411 124.003 65.8618 128.468C66.2674 132.485 66.6588 136.505 67.0842 140.52C67.2541 142.124 68.1495 142.917 69.7817 142.908C70.758 142.902 71.7338 142.777 72.7097 142.706C73.8006 142.975 74.8864 142.701 75.9643 142.625C82.0366 142.199 88.1053 141.718 94.1752 141.254C98.8598 140.896 103.545 140.541 108.228 140.172C109.814 140.047 111.397 139.881 112.981 139.734C114.151 139.552 115.331 139.49 116.513 139.477C117.047 139.471 117.572 139.418 118.083 139.268C119.108 138.967 119.763 138.217 119.818 137.155C119.854 136.467 119.801 135.769 119.73 135.083C119.442 132.33 119.131 129.579 118.83 126.828C118.533 124.117 118.217 121.408 117.948 118.694C117.72 116.386 117.364 114.089 117.341 111.762C118.332 111.16 119.483 111.013 120.554 110.638C120.896 110.518 121.102 110.637 121.16 111.002C121.185 111.163 121.233 111.322 121.251 111.484C121.508 113.838 121.762 116.192 122.014 118.547C122.401 122.16 122.78 125.774 123.172 129.386C123.701 134.257 124.242 139.127 124.774 143.997C124.938 145.498 125.177 146.998 125.227 148.504C125.338 151.905 122.861 154.665 119.471 154.952C114.996 155.332 110.516 155.655 106.038 156.012C100.421 156.458 94.8052 156.924 89.1871 157.361C86.5405 157.567 83.8897 157.719 81.2417 157.912C78.35 158.123 75.4604 158.359 72.5687 158.571C71.6745 158.636 70.7797 158.709 69.8847 158.515C67.4529 157.987 65.9312 156.402 64.9102 154.246C64.3946 153.157 64.3034 151.963 64.181 150.786C63.6953 146.116 63.2205 141.445 62.7427 136.774C62.3812 133.24 62.0272 129.706 61.6592 126.173C61.2108 121.868 60.7443 117.566 60.2993 113.262C59.9383 109.769 59.6091 106.273 59.2441 102.78C58.8792 99.2885 58.4779 95.8004 58.1096 92.3087C57.7412 88.8171 57.3925 85.3234 57.0377 81.8304C56.6707 78.2151 56.3155 74.5986 55.939 70.9842C55.5753 67.492 55.1942 64.0016 54.8148 60.511C54.5324 57.9136 54.2284 55.3188 53.9559 52.7204C53.6822 50.1113 54.531 47.9896 56.7233 46.4572C57.4891 45.9221 58.3613 45.6994 59.2526 45.61C60.9177 45.4432 62.5912 45.3594 64.2609 45.2375C64.6025 45.2125 64.915 45.2472 65.128 45.5594L65.1282 45.5598ZM99.4718 149.08C99.4708 146.572 97.4725 144.556 94.9825 144.551C92.5478 144.546 90.5103 146.532 90.4783 148.941C90.4448 151.461 92.5604 153.589 95.1357 153.626C97.451 153.66 99.4731 151.54 99.4718 149.08V149.08Z" fill="#08D9C4"></path><path d="M72.7091 142.706C71.7331 142.777 70.7574 142.902 69.781 142.908C68.1487 142.917 67.2535 142.124 67.0836 140.52C66.6582 136.505 66.2668 132.486 65.8612 128.468C65.4104 124.003 64.9606 119.539 64.5071 115.075C64.0619 110.691 63.6199 106.307 63.1623 101.925C62.8192 98.6387 62.4469 95.3553 62.0997 92.0693C61.7267 88.5397 61.3698 85.0084 61.0024 81.4782C60.5292 76.9338 60.0506 72.3898 59.5777 67.8454C59.2187 64.3959 58.8591 60.9466 58.5115 57.4961C58.3972 56.3599 58.2364 55.2275 58.2423 54.0804C58.2508 52.4252 58.9848 51.6258 60.6116 51.4046C62.3104 51.1737 64.0367 51.2352 65.7237 50.8965C67.1944 53.4486 69.3467 55.0533 72.2742 55.5257C73.0288 55.6475 73.8089 55.6122 74.6581 55.653C74.297 57.4242 74.2289 59.148 74.449 60.8934C75.0812 65.9114 78.4644 69.5935 83.4281 70.6098C83.7045 70.6663 83.973 70.7604 84.2453 70.8372C84.3316 72.272 84.0544 73.6866 84.0108 75.1135C83.9935 75.6823 83.7959 75.9459 83.182 76.0864C81.5933 76.4496 80.073 77.0382 78.5519 77.638C74.2489 79.3343 71.7214 83.8776 71.9245 88.3878C71.9965 89.9871 72.2649 91.5531 72.7111 93.0839C73.9777 97.4279 75.2986 101.756 76.5416 106.107C77.4639 109.335 78.0776 112.614 77.9133 116.004C77.8536 117.234 77.5704 118.423 77.4117 119.633C76.019 123.537 74.5348 127.415 73.5806 131.457C72.8503 134.551 72.2341 137.669 72.5635 140.884C72.6257 141.49 72.6614 142.099 72.7093 142.707L72.7091 142.706Z" fill="#FBFBFB"></path><path d="M72.7096 142.706C72.6617 142.098 72.626 141.49 72.5638 140.884C72.2342 137.669 72.8503 134.55 73.5808 131.456C74.5351 127.414 76.019 123.537 77.4119 119.633C77.805 119.639 78.198 119.645 78.5912 119.652C80.4929 119.909 82.3988 120.104 84.3205 120.146C87.9627 120.226 91.5932 119.99 95.2028 119.577C98.2402 119.23 101.259 118.691 104.169 117.688C104.491 117.599 104.813 117.511 105.135 117.422C105.134 117.584 105.076 117.776 105.141 117.904C105.739 119.066 106.003 120.345 106.44 121.563C108.615 127.622 111.069 133.581 112.981 139.735C111.397 139.882 109.814 140.047 108.229 140.172C103.545 140.541 98.8599 140.896 94.1753 141.254C88.1054 141.718 82.0369 142.199 75.9643 142.626C74.8864 142.701 73.8007 142.976 72.7098 142.706L72.7096 142.706Z" fill="#040405"></path><path d="M98.723 59.794C98.7854 59.4785 98.8172 59.1534 98.9146 58.849C100.104 55.1332 99.6081 51.7409 97.0017 48.746C100.58 48.4608 104.159 48.1764 107.737 47.8901C109.201 47.7729 110.187 48.4699 110.525 49.8762C110.592 50.1536 110.648 50.4361 110.678 50.7195C111.028 53.9228 111.374 57.1267 111.716 60.3308C112.08 63.7382 112.438 67.1463 112.802 70.5535C113.27 74.9338 113.739 79.3137 114.213 83.6934C114.59 87.1811 114.982 90.6674 115.353 94.1559C115.638 96.8331 115.899 99.5126 116.171 102.191C112.776 102.552 109.373 102.816 105.887 103.023C105.947 101.717 106.228 100.574 106.468 99.4327C106.712 98.2718 106.866 97.1026 107.007 95.9289C107.279 93.6665 106.789 91.5451 105.767 89.5393C105.082 88.1963 104.374 86.8627 103.617 85.5591C102.935 84.3836 102.381 83.1725 102.169 81.8225C101.841 79.7242 100.659 78.2692 98.813 77.2885C97.6205 76.6549 96.3953 76.0918 95.0924 75.7534C94.5222 75.6052 94.2566 75.3045 94.1241 74.803C93.9251 74.0507 93.8344 73.2811 93.788 72.5053C93.7688 72.1864 93.8404 71.9439 94.1942 71.8638C97.6571 71.0804 98.7474 68.4727 99.1231 65.3666C99.3497 63.4935 99.2564 61.6228 98.7228 59.794H98.723Z" fill="#FBFBFB"></path><path d="M101.867 103.269C101.827 103.269 101.785 103.263 101.745 103.27C100.09 103.561 98.9076 102.983 97.8615 101.615C96.6523 100.033 95.1603 98.6687 93.8036 97.1988C93.4533 96.8195 93.0638 96.4769 93.1713 95.8274C93.2446 95.3843 92.9011 94.9829 92.6524 94.6132C90.8248 91.8976 88.7792 89.3533 86.5501 86.9582C86.2805 86.6684 85.9735 86.0796 85.4812 86.5225C84.9904 86.9642 85.5229 87.3214 85.7925 87.644C87.598 89.8057 89.4758 91.91 91.1152 94.2046C92.0267 95.4803 91.9669 95.4691 90.9271 96.5786C89.1579 98.4664 87.0678 99.9792 85.1058 101.64C83.9946 102.58 82.7743 103.391 81.6006 104.258C80.9244 104.757 80.9056 104.766 80.4643 104.141C78.6119 101.519 76.7839 98.8798 75.1868 96.092C73.7813 93.6387 72.9866 90.9885 72.9883 88.1559C72.9899 85.3631 73.9238 82.8747 75.76 80.746C76.2187 80.2142 76.7556 79.7655 77.3711 79.4423C79.1094 78.5294 80.9122 77.7706 82.8034 77.2226C83.5521 77.0057 84.1075 77.1714 84.6737 77.7235C86.6368 79.6379 88.8114 81.2993 91.0879 82.8214C92.2111 83.5722 93.4235 84.1786 94.7328 84.534C96.3377 84.9697 96.7367 84.638 96.7609 82.9956C96.7737 82.1263 96.6011 81.289 96.3609 80.4655C96.1782 79.8394 95.9197 79.2355 95.7331 78.6103C95.5913 78.1352 94.9706 77.5968 95.4526 77.1962C95.8494 76.8664 96.4463 77.3423 96.9165 77.5617C97.5073 77.8374 98.0846 78.1478 98.6451 78.4813C99.813 79.1767 100.675 80.1291 100.973 81.4948C101.547 84.1299 102.844 86.4426 104.16 88.7511C105.076 90.359 105.771 92.0375 105.98 93.9097C106.152 95.4476 105.78 96.9144 105.549 98.3979C105.347 99.6862 104.977 100.948 104.867 102.253C104.811 102.921 104.456 103.172 103.827 103.183C103.173 103.193 102.521 103.239 101.868 103.269H101.867Z" fill="#08D9C4"></path><path d="M129.632 107.944C127.454 107.587 125.257 108.091 123.038 108.761C117.611 110.398 112.216 112.168 106.658 113.333C103.985 113.893 101.32 114.501 98.5523 114.477C96.6462 114.46 94.8904 113.998 93.352 112.93C90.0258 110.621 86.8319 108.143 84.2108 105.012C83.5251 104.192 83.496 104.17 84.3229 103.541C86.8606 101.611 89.3277 99.5978 91.6183 97.3775C92.0223 96.986 92.2297 97.0745 92.5833 97.4619C94.3732 99.4221 96.2235 101.327 98.0038 103.296C98.7517 104.123 99.5916 104.478 100.703 104.417C104.741 104.196 108.775 103.927 112.805 103.596C115.491 103.375 118.181 103.199 120.868 102.994C121.682 102.931 122.492 102.812 123.307 102.769C124.075 102.728 124.725 102.446 125.329 101.993C126.635 101.012 127.937 100.024 129.269 99.0791C129.948 98.5968 130.687 98.1983 131.403 97.7673C131.54 97.6846 131.687 97.5987 131.84 97.5667C132.035 97.5261 132.278 97.5085 132.379 97.718C132.481 97.9308 132.316 98.1163 132.163 98.2439C131.788 98.5555 131.426 98.8698 131.122 99.2591C130.751 99.7338 130.525 100.216 130.813 100.806C131.084 101.364 131.601 101.469 132.15 101.492C133.88 101.563 135.563 101.206 137.247 100.892C137.975 100.756 138.703 100.668 139.438 100.713C140.753 100.794 141.281 101.627 140.676 102.809C139.555 105 137.876 106.606 135.481 107.361C133.622 107.947 131.701 107.957 129.633 107.944L129.632 107.944Z" fill="#FBFBFB"></path><path d="M55.1649 45.8467C55.18 46.3286 54.9031 46.5379 54.6837 46.7676C53.394 48.1186 52.9537 49.7868 52.8714 51.5879C52.77 53.8067 53.2514 55.9765 53.4479 58.1703C53.6335 60.2425 53.8859 62.3086 54.1086 64.3774C54.5803 68.7585 55.0642 73.1382 55.5187 77.521C55.8134 80.3631 56.0481 83.2112 56.3413 86.0536C56.6051 88.6107 56.9219 91.162 57.1964 93.7181C57.4885 96.4366 57.7554 99.158 58.0384 101.878C58.41 105.449 58.7908 109.02 59.1595 112.593C59.4487 115.394 59.6867 118.201 60.0169 120.996C60.5148 125.211 60.8525 129.442 61.3974 133.652C61.7483 136.363 61.9294 139.096 62.195 141.818C62.536 145.311 62.8366 148.809 63.25 152.293C63.4872 154.292 64.3756 156.036 65.8337 157.459C66.2111 157.827 66.5991 158.184 66.9715 158.536C66.8553 158.876 66.5855 158.847 66.3531 158.84C62.5602 158.722 59.9189 156.343 59.4939 152.919C59.0967 149.72 58.8269 146.506 58.4878 143.3C58.1144 139.769 57.7203 136.241 57.3459 132.71C56.9758 129.22 56.623 125.729 56.2552 122.238C55.8789 118.668 55.4861 115.099 55.1143 111.527C54.7595 108.118 54.4319 104.705 54.0748 101.296C53.7943 98.6175 53.4793 95.9427 53.194 93.2649C52.9044 90.5464 52.6363 87.8258 52.352 85.1069C51.9745 81.4947 51.5873 77.8838 51.2106 74.2717C50.9395 71.6741 50.6844 69.0749 50.4121 66.4775C50.1099 63.596 49.7617 60.7188 49.5004 57.8337C49.3348 56.0064 49.0265 54.1824 49.1493 52.3379C49.314 49.865 50.2848 47.8532 52.5085 46.5655C53.3373 46.0857 54.224 45.9247 55.1645 45.8467H55.1649Z" fill="#423DF9"></path><path d="M116.171 102.191C115.899 99.5125 115.637 96.8328 115.353 94.1558C114.982 90.6673 114.589 87.1812 114.212 83.6933C113.738 79.3136 113.269 74.9335 112.801 70.5534C112.437 67.146 112.08 63.738 111.716 60.3307C111.373 57.1266 111.027 53.9227 110.678 50.7194C110.647 50.436 110.591 50.1537 110.524 49.8761C110.186 48.4698 109.201 47.7728 107.737 47.8901C104.158 48.1763 100.58 48.4609 97.0011 48.7459C95.9347 48.0886 94.9574 47.2969 93.8122 46.7556C91.7234 45.7682 89.5717 45.12 87.2306 45.2995C85.9646 45.3965 84.781 45.8665 83.5483 46.1145C83.2702 46.1705 82.9992 46.2602 82.7218 46.3205C82.2745 46.4179 82.0408 46.2584 81.9977 45.7738C81.9473 45.2093 81.8377 44.65 81.7539 44.0887C83.1918 43.7275 84.6755 43.7962 86.1353 43.6575C88.8567 43.3991 91.5938 43.3098 94.321 43.1054C98.0243 42.8283 101.724 42.5071 105.426 42.2093C106.606 42.1144 107.796 41.9792 108.968 42.2033C112.007 42.7845 113.965 44.8987 114.435 48.1707C114.737 50.2701 114.931 52.3851 115.159 54.4946C115.539 58.0244 115.906 61.5556 116.28 65.0861C116.651 68.5756 117.022 72.0652 117.397 75.5545C117.776 79.0843 118.161 82.6135 118.54 86.1435C118.896 89.4707 119.253 92.798 119.598 96.1264C119.762 97.7089 120.09 99.2723 120.133 100.869C120.162 101.933 120.171 101.952 119.098 101.999C118.121 102.042 117.157 102.295 116.171 102.191L116.171 102.191Z" fill="#08D9C4"></path><path d="M112.981 139.735C111.069 133.581 108.616 127.622 106.44 121.563C106.003 120.345 105.739 119.066 105.142 117.903C105.076 117.776 105.134 117.584 105.135 117.422C105.218 116.724 105.023 116.046 104.984 115.357C104.967 115.05 105.001 114.794 105.382 114.729C109.326 114.053 113.098 112.701 116.977 111.766C117.092 111.738 117.22 111.763 117.342 111.763C117.364 114.089 117.72 116.386 117.948 118.694C118.217 121.408 118.533 124.117 118.83 126.828C119.132 129.579 119.443 132.33 119.73 135.083C119.802 135.77 119.854 136.467 119.819 137.155C119.763 138.217 119.109 138.967 118.083 139.268C117.572 139.418 117.048 139.471 116.514 139.477C115.331 139.49 114.152 139.552 112.981 139.734L112.981 139.735Z" fill="#FBFBFB"></path><path d="M85.2641 70.8281C85.4476 69.7229 85.2612 68.6254 85.1399 67.5357C85.0371 66.6117 84.4531 65.9791 83.5655 65.6823C82.9444 65.4747 82.3241 65.2696 81.7825 64.8958C80.8984 64.2857 80.6513 63.3851 81.0807 62.4283C81.4582 61.587 82.244 61.1103 83.2094 61.5334C84.6213 62.1523 85.7525 61.6508 86.8876 61.0023C88.3053 60.1925 89.6812 59.3059 90.7889 58.077C92.1999 56.5114 93.367 54.8139 93.5235 52.4272C95.105 53.5816 96.1673 54.8717 96.7446 56.519C97.1484 57.6713 97.4479 58.8601 97.794 60.0327C97.8913 61.0451 98.018 62.0557 98.0785 63.0703C98.1689 64.5864 98.0832 66.0889 97.5201 67.527C96.5025 70.1266 94.6681 71.211 91.9374 70.7289C90.8204 70.5318 89.6829 70.3456 88.6502 69.8148C88.3961 69.6841 88.1286 69.5242 87.8883 69.8358C87.6001 70.2094 87.9065 70.4475 88.1197 70.6698C89.139 71.7331 90.2297 72.7248 91.4826 73.5016C92.4451 74.0985 93.1129 74.7839 93.4663 75.9516C93.9107 77.4203 94.6873 78.7886 95.1618 80.2678C95.4262 81.0919 95.5563 81.9337 95.6487 82.7842C95.734 83.5689 95.5961 83.6863 94.8646 83.4533C93.6903 83.0796 92.6254 82.4656 91.586 81.8235C89.4622 80.5115 87.5737 78.886 85.6592 77.2952C85.177 76.8944 84.9576 76.4705 85.0261 75.8241C85.1636 74.5272 85.2332 73.2226 85.3149 71.9201C85.3376 71.5573 85.3948 71.1864 85.2643 70.8279L85.2641 70.8281ZM82.9601 62.66C82.6851 62.6772 82.377 62.6817 82.3398 63.0625C82.3006 63.4658 82.5594 63.6323 82.9139 63.6938C83.4452 63.7861 84.2071 63.4451 84.1102 63.1434C83.9581 62.6683 83.4708 62.7517 83.0914 62.6749C83.0522 62.6668 83.0115 62.6656 82.9601 62.66Z" fill="#FBFBFB"></path><path d="M104.17 117.688C101.26 118.691 98.2408 119.23 95.2034 119.577C91.5938 119.99 87.9633 120.226 84.3211 120.146C82.3996 120.103 80.4937 119.909 78.5918 119.652C78.6938 118.885 78.7945 118.117 78.8981 117.351C79.3892 113.716 78.5955 110.209 77.8214 106.704C77.4167 104.871 76.797 103.098 76.2355 101.309C76.0863 100.834 75.8264 100.354 76.0066 99.6729C76.9919 100.607 77.5211 101.712 78.2066 102.697C78.8802 103.665 79.5413 104.642 80.1868 105.629C80.5404 106.169 80.9414 106.169 81.4158 105.822C81.4816 105.773 81.5485 105.727 81.6146 105.679C82.7207 104.877 82.7395 104.861 83.6498 105.936C86.4734 109.271 89.8328 111.963 93.5349 114.251C94.7751 115.017 96.1193 115.436 97.5774 115.514C99.419 115.613 101.245 115.54 103.055 115.151C103.899 114.969 103.923 114.992 104.032 115.858C104.109 116.464 104.126 117.078 104.17 117.688Z" fill="#08D9C4"></path><path d="M75.8702 99.4184C75.8489 99.4413 75.8274 99.464 75.8061 99.487C75.7887 99.4609 75.756 99.4339 75.7579 99.4095C75.7597 99.3851 75.7963 99.3634 75.8176 99.3406C75.835 99.3667 75.8526 99.3925 75.8699 99.4186L75.8702 99.4184Z" fill="#08D9C4"></path><path d="M165.352 78.9087C165.362 79.2586 165.145 79.4041 164.981 79.5743C161.118 83.5706 157.278 87.5903 153.375 91.5467C151.749 93.1947 149.821 94.4353 147.516 94.9515C139.025 96.8527 132.197 90.5749 132.629 82.6216C132.809 79.3116 134.382 76.6131 136.612 74.2849C140.401 70.3297 144.253 66.4354 148.056 62.4939C149.191 61.3169 150.297 60.1097 151.563 59.0716C155.829 55.5722 162.014 54.8771 166.784 58.3852C168.003 59.2819 169.139 60.3048 169.701 61.7819C170.205 63.1093 169.694 64.3068 168.443 64.8031C167.701 65.0972 167.014 64.991 166.344 64.5654C165.776 64.2046 165.405 63.6608 164.96 63.1855C162.305 60.3489 157.949 59.9527 154.813 62.2543C153.751 63.0342 152.869 64.0018 151.954 64.9338C148.804 68.1414 145.663 71.3573 142.527 74.5784C141.444 75.691 140.374 76.8172 139.319 77.9557C136.587 80.901 136.172 86.3908 140.46 89.3526C142.755 90.9377 145.207 90.91 147.697 89.8824C149.198 89.2631 150.399 88.2008 151.512 87.0502C154.211 84.2591 156.912 81.4692 159.561 78.6312C160.282 77.8593 160.937 77.4867 161.998 77.9299C163.077 78.38 164.289 78.4479 165.352 78.9087H165.352Z" fill="#08D9C4"></path><path d="M130.469 123.827C131.589 123.913 132.624 123.974 133.655 124.077C136.548 124.365 139.433 124.303 142.335 124.094C146.655 123.783 150.775 122.661 154.847 121.297C159.993 119.573 164.717 116.989 169.301 114.123C171.173 112.952 172.972 111.681 174.749 110.375C175.684 109.689 175.746 109.429 175.115 108.46C174.134 106.954 173.116 105.473 172.132 103.969C171.68 103.279 171.761 103.117 172.57 103.134C175.754 103.2 178.933 103.41 182.114 103.558C185.214 103.703 188.31 103.977 191.418 103.965C192.11 103.962 192.802 104.053 193.494 104.107C193.932 104.141 194.031 104.413 193.939 104.792C193.901 104.95 193.842 105.103 193.781 105.254C191.54 110.866 189.301 116.479 187.053 122.088C186.601 123.214 186.11 124.326 185.639 125.44C185.204 125.406 185.173 125.071 185.048 124.845C184.179 123.272 183.326 121.689 182.456 120.117C181.979 119.255 181.798 119.183 180.905 119.602C180.203 119.931 179.529 120.32 178.853 120.701C174.244 123.305 169.384 125.328 164.287 126.725C159.106 128.145 153.818 128.986 148.427 128.693C142.507 128.371 136.784 127.125 131.398 124.555C131.074 124.4 130.734 124.257 130.469 123.827H130.469Z" fill="#423DF9"></path><path d="M122.242 39.929C125.109 32.7503 127.893 25.7809 130.658 18.8577C131.159 18.8049 131.214 19.1473 131.345 19.3763C132.196 20.866 133.045 22.3574 133.876 23.8582C134.593 25.1524 134.666 25.1954 135.926 24.5141C138.983 22.8609 142.104 21.3537 145.35 20.0952C150.977 17.9133 156.741 16.3441 162.774 15.8017C167.45 15.3813 172.086 15.5462 176.66 16.6077C179.327 17.2264 181.93 18.0885 184.426 19.2333C185.111 19.5474 185.752 19.9583 186.587 20.4213C186.131 20.5833 185.834 20.5084 185.55 20.4557C177.968 19.0494 170.593 19.9408 163.338 22.3811C156.779 24.5871 150.806 27.9337 145.004 31.6284C143.867 32.3526 142.738 33.0921 141.632 33.8615C140.608 34.5729 140.587 34.701 141.26 35.7125C142.256 37.2092 143.285 38.6841 144.287 40.1766C144.505 40.5011 144.83 40.7898 144.788 41.3448C137.32 40.8759 129.881 40.4088 122.242 39.9292V39.929Z" fill="#08D9C4"></path><path d="M238.086 127.085C238.074 129.641 236.098 131.652 233.628 131.625C231.043 131.596 229.055 129.525 229.055 126.863C229.055 124.296 231.056 122.358 233.7 122.365C236.251 122.371 238.1 124.361 238.086 127.085V127.085ZM237.102 126.978C237.089 124.962 235.517 123.384 233.536 123.399C231.686 123.413 230.106 125.077 230.109 127.007C230.113 128.955 231.659 130.569 233.547 130.595C235.429 130.622 237.114 128.907 237.102 126.978H237.102Z" fill="#120E78"></path><path d="M257.058 10.9439C254.14 10.6635 251.222 10.3809 248.303 10.1037C247.574 10.0344 246.842 9.99291 246.113 9.91634C245.709 9.87383 245.306 9.80304 244.911 9.70996C244.707 9.66187 244.555 9.49655 244.559 9.26788C244.563 8.97853 244.767 8.80702 245.021 8.79278C245.466 8.7676 245.918 8.77916 246.363 8.82044C248.065 8.97894 249.766 9.16427 251.469 9.32298C253.212 9.48541 254.957 9.62327 256.701 9.78426C257.104 9.8214 257.508 9.88703 257.901 9.98197C258.157 10.0437 258.316 10.2476 258.284 10.5295C258.251 10.81 258.061 10.9549 257.788 10.9716C257.545 10.9864 257.3 10.9747 257.056 10.9747C257.057 10.9644 257.057 10.9543 257.058 10.9439H257.058Z" fill="#120E78"></path><path d="M241.127 9.67105C240.706 9.69706 240.282 9.27582 240.277 8.80403C240.273 8.32129 240.511 8.03297 241.007 8.00656C241.488 7.98076 241.789 8.21542 241.858 8.6932C241.923 9.1489 241.537 9.64608 241.128 9.67126L241.127 9.67105Z" fill="#120E78"></path><path d="M242.564 27.531C242.481 27.5452 242.36 27.5677 242.285 27.442C242.199 27.2967 242.179 27.1378 242.274 26.994C242.338 26.8967 242.425 26.8059 242.52 26.7397C242.892 26.4819 243.292 26.2993 243.754 26.4514C243.93 26.5094 243.962 26.6802 243.906 26.846C243.751 27.3099 243.339 27.3533 242.943 27.4259C242.826 27.4476 242.712 27.4891 242.563 27.531H242.564Z" fill="#120E78"></path><path d="M99.4705 149.08C99.4716 151.54 97.4497 153.66 95.1343 153.626C92.5591 153.589 90.4437 151.461 90.4769 148.941C90.5089 146.532 92.5465 144.546 94.9812 144.551C97.4712 144.556 99.4695 146.572 99.4705 149.08V149.08ZM94.9797 145.628C93.0997 145.623 91.5765 147.073 91.56 148.883C91.5417 150.911 93.0945 152.526 95.0493 152.514C96.81 152.502 98.425 150.905 98.4463 149.155C98.4696 147.217 96.912 145.632 94.9797 145.628V145.628Z" fill="#120E78"></path><path d="M82.9602 62.6599C83.0113 62.6655 83.052 62.6669 83.0914 62.6748C83.4708 62.7515 83.9582 62.668 84.1103 63.1433C84.2069 63.445 83.445 63.7859 82.9139 63.6937C82.5595 63.6322 82.3006 63.4656 82.3399 63.0624C82.377 62.6814 82.6852 62.677 82.9602 62.6599Z" fill="#120E78"></path><path d="M237.102 126.978C237.114 128.907 235.429 130.622 233.547 130.595C231.659 130.569 230.113 128.955 230.109 127.007C230.106 125.077 231.687 123.413 233.537 123.399C235.517 123.384 237.089 124.962 237.102 126.978H237.102Z" fill="#FBFBFB"></path><path d="M94.9824 145.628C96.9146 145.632 98.4723 147.217 98.4489 149.155C98.4279 150.905 96.8127 152.502 95.0519 152.513C93.0972 152.526 91.5443 150.91 91.5627 148.883C91.579 147.073 93.1023 145.623 94.9824 145.627V145.628Z" fill="#FBFBFB"></path></g><defs><clipPath id="clip0_668_1845"><rect width="314" height="160" fill="white"></rect></clipPath></defs></svg>