<svg xmlns="http://www.w3.org/2000/svg" width="56" height="56" viewBox="0 0 56 56" fill="none"><circle cx="28" cy="28" r="28" fill="white"></circle><path d="M15.4938 12.6186L15.3125 12.7998V16.3373C15.3125 18.4311 15.3375 19.9311 15.375 20.0248C15.5063 20.3811 15.9125 20.4623 16.1875 20.1873C16.3063 20.0686 16.3125 19.9623 16.3125 16.7498V13.4373H19.625H22.9437L23.0938 13.2811C23.3 13.0811 23.3 12.7936 23.0938 12.5936L22.9437 12.4373H19.3125H15.675L15.4938 12.6186Z" fill="#423DF9"></path><path d="M32.9063 12.5937C32.8063 12.6874 32.75 12.8187 32.75 12.9374C32.75 13.0562 32.8063 13.1874 32.9063 13.2812L33.0563 13.4374H36.375H39.6875V16.7437C39.6875 19.7999 39.6938 20.0562 39.8 20.1812C39.975 20.3937 40.2563 20.4124 40.475 20.2312L40.6563 20.0749L40.675 16.4374L40.6875 12.8062L40.5063 12.6187L40.325 12.4374H36.6875H33.0563L32.9063 12.5937Z" fill="#423DF9"></path><path d="M26.5374 14.8748C24.2499 15.231 22.3499 16.1998 20.7186 17.8373C19.1999 19.356 18.3249 20.981 17.8686 23.1248C17.7499 23.681 17.7249 23.981 17.7249 25.0623C17.7186 26.4873 17.8249 27.206 18.1936 28.331C19.3624 31.856 22.4624 34.5873 26.0124 35.2248C26.3311 35.281 26.6311 35.3373 26.6749 35.3498C26.7311 35.3623 26.7499 35.5748 26.7499 36.1185V36.8623L26.2436 36.8873C25.7811 36.906 25.7249 36.9248 25.5874 37.081L25.4374 37.256V40.131C25.4374 43.281 25.4436 43.3498 25.7936 43.4935C25.9249 43.5498 26.5436 43.5623 28.1186 43.5498L30.2624 43.531L30.4124 43.356L30.5624 43.181V40.2998C30.5624 37.1748 30.5561 37.0998 30.2124 36.9435C30.1249 36.906 29.8749 36.8748 29.6561 36.8748H29.2499V36.1248C29.2499 35.5748 29.2686 35.3623 29.3311 35.3498C29.3686 35.3373 29.6749 35.281 29.9999 35.2248C31.2061 35.006 32.6186 34.431 33.6999 33.706C36.0186 32.156 37.5749 29.8185 38.1436 27.0373C38.2624 26.4435 38.2811 26.156 38.2749 25.0623C38.2749 23.981 38.2499 23.681 38.1311 23.1248C37.6561 20.8873 36.6936 19.1623 35.0436 17.5873C33.7311 16.331 32.0811 15.456 30.2186 15.0248C29.5499 14.8748 29.3249 14.8498 28.1874 14.8373C27.4811 14.831 26.7436 14.8435 26.5374 14.8748ZM29.8561 16.2435C33.5124 17.0498 36.1999 19.8248 36.9186 23.531C37.0686 24.3123 37.0624 25.9498 36.9124 26.7185C36.6936 27.8248 36.2811 28.9185 35.7499 29.781C34.3561 32.056 32.1374 33.5685 29.4811 34.0373C28.7374 34.1685 27.2249 34.1685 26.4999 34.0373C24.2499 33.631 22.2499 32.4435 20.9061 30.7185C19.9624 29.506 19.3874 28.2435 19.0874 26.7185C18.9374 25.9498 18.9311 24.3123 19.0811 23.531C19.6374 20.6498 21.3749 18.3248 23.9124 17.0373C24.8686 16.5623 25.5811 16.3248 26.6561 16.1498C27.3874 16.031 29.1124 16.081 29.8561 16.2435Z" fill="#423DF9"></path><path d="M27.4433 18.9437C26.6433 19.1 25.837 19.7125 25.4745 20.4437C24.9058 21.5812 25.0995 22.8625 25.9808 23.7437C27.637 25.3937 30.4058 24.5 30.8183 22.1812C31.1558 20.2937 29.362 18.5687 27.4433 18.9437Z" fill="#423DF9"></path><path d="M25.9061 25.1686C24.7311 25.3061 23.8561 25.5373 23.3748 25.8311C22.9998 26.0623 22.5561 26.5123 22.3873 26.8436C22.0936 27.4248 22.0498 27.6998 22.0186 29.1248L21.9873 30.4748L22.5123 30.9686C22.9873 31.4186 23.7623 31.9998 24.0248 32.0998C24.1123 32.1311 24.1248 32.0248 24.1248 31.0311V29.9248L24.3061 29.7436C24.4061 29.6436 24.5373 29.5623 24.5936 29.5623C24.6748 29.5623 25.0248 29.7123 25.0748 29.7686C25.0811 29.7748 25.1061 30.4248 25.1248 31.2186L25.1561 32.6498L25.6186 32.7936C27.0623 33.2498 28.9373 33.2498 30.3811 32.7936L30.8436 32.6498L30.8748 31.2186C30.8936 30.4248 30.9186 29.7748 30.9248 29.7686C30.9748 29.7123 31.3248 29.5623 31.4061 29.5623C31.4623 29.5623 31.5936 29.6436 31.6936 29.7436L31.8748 29.9248V31.0311C31.8748 32.0373 31.8873 32.1373 31.9811 32.0998C32.2436 31.9936 32.9936 31.4373 33.4686 30.9873L33.9998 30.4873V29.3436C33.9998 28.0561 33.9123 27.4561 33.6561 26.9061C33.1998 25.9436 32.1061 25.3873 30.2998 25.1936C29.7498 25.1311 26.3623 25.1123 25.9061 25.1686ZM28.5311 26.7686L28.9248 27.5998L29.6311 27.6811C30.5998 27.7873 30.6811 27.8123 30.7561 27.9498C30.8123 28.0623 30.7373 28.1561 30.1561 28.7123L29.4811 29.3498L29.6498 30.2123C29.8186 31.0873 29.8123 31.2498 29.5936 31.2498C29.5436 31.2498 29.1686 31.0623 28.7561 30.8373L27.9998 30.4248L27.2436 30.8373C26.8311 31.0623 26.4561 31.2498 26.4061 31.2498C26.1873 31.2498 26.1811 31.0873 26.3436 30.2061L26.5123 29.3436L25.8436 28.7061C25.2623 28.1561 25.1873 28.0623 25.2436 27.9498C25.3186 27.8123 25.3998 27.7873 26.3686 27.6811L27.0748 27.5998L27.4686 26.7686C27.7936 26.0811 27.8873 25.9373 27.9998 25.9373C28.1123 25.9373 28.2061 26.0811 28.5311 26.7686Z" fill="#423DF9"></path><path d="M15.4938 29.9938L15.3438 30.1125V33.8125V37.5125L15.4938 37.6313C15.6312 37.7437 15.7875 37.75 19.3125 37.75H22.9938L23.1188 37.5875C23.2938 37.3688 23.2812 37.1687 23.1 36.9563L22.95 36.7812L19.6312 36.7625L16.3125 36.7437V33.4437V30.1437L16.1687 30.0125C15.9875 29.8438 15.6875 29.8375 15.4938 29.9938Z" fill="#423DF9"></path><path d="M39.8251 30.0188L39.6876 30.1625V33.4563V36.7438L36.3688 36.7625L33.0501 36.7813L32.9001 36.9563C32.7188 37.1688 32.7063 37.3688 32.8813 37.5875L33.0063 37.75H36.6876C40.2126 37.75 40.3688 37.7438 40.5063 37.6313L40.6563 37.5125L40.6751 33.9563C40.6813 32.0063 40.6751 30.3438 40.6563 30.2625C40.5626 29.8813 40.0813 29.7438 39.8251 30.0188Z" fill="#423DF9"></path></svg>