<svg xmlns="http://www.w3.org/2000/svg" width="61" height="67" viewBox="0 0 61 67" fill="none"><circle cx="43" cy="18" r="18" fill="#08D9C4" fill-opacity="0.2"></circle><path d="M15.3562 13.4501C14.9187 13.647 14.6562 14.0188 14.6562 14.4563C14.6562 14.686 15.3891 16.3048 16.7781 19.1485L18.9 23.5016L18.3969 24.2235C16.8984 26.4001 16.1328 29.3095 16.3953 31.836C16.9422 37.0532 20.4531 41.0454 25.55 42.2376C26.2063 42.4016 26.8078 42.4454 28.1094 42.4345C29.575 42.4235 29.9578 42.3798 30.8984 42.1282C37.2641 40.4438 41.0156 33.9032 39.2 27.647C38.8609 26.4657 38.2484 25.1641 37.6031 24.2235L37.1 23.5016L39.2219 19.1485C40.6437 16.2282 41.3438 14.686 41.3438 14.4454C41.3438 13.9751 40.9937 13.5485 40.4906 13.4063C40.2172 13.3188 38.325 13.297 34.7047 13.3188L29.3344 13.3516L29.0719 13.5923C28.9297 13.7345 28.6453 14.1829 28.4375 14.6095C28.2297 15.0251 28.0328 15.3751 28 15.3751C27.9672 15.3751 27.7703 15.0251 27.5625 14.6095C27.3547 14.1829 27.0703 13.7345 26.9281 13.5923L26.6656 13.3516L21.1859 13.3298C16.7234 13.3079 15.6297 13.3298 15.3562 13.4501ZM21.4484 18.0876L22.5969 20.472L21.6234 21.0954C21.0875 21.4454 20.6281 21.7079 20.6172 21.697C20.5625 21.6204 17.7188 15.7798 17.7188 15.747C17.7188 15.7251 18.2984 15.7032 19.0094 15.7032H20.3L21.4484 18.0876ZM26.2937 17.4095C26.7531 18.361 27.1141 19.1376 27.1031 19.1485C27.0594 19.1704 24.7734 19.6188 24.7625 19.597C24.7516 19.586 24.325 18.711 23.8109 17.6391L22.8703 15.7032H24.1609H25.4625L26.2937 17.4095ZM32.1672 17.661L31.1828 19.6188L30.5156 19.4548C29.8812 19.2907 29.8375 19.2579 29.5859 18.7548L29.3125 18.2407L29.925 16.972L30.5375 15.7032H31.8391H33.1406L32.1672 17.661ZM38.2812 15.747C38.2812 15.7798 35.4266 21.6313 35.3719 21.697C35.3609 21.7188 35.0656 21.5438 34.7047 21.3032C34.3547 21.0735 33.9172 20.7891 33.7312 20.6798L33.3922 20.4829L34.5516 18.0985L35.7 15.7032H36.9906C37.7016 15.7032 38.2812 15.7251 38.2812 15.747ZM29.3016 21.6095C32.8344 22.0579 35.9625 24.7813 36.9688 28.2813C37.3078 29.4407 37.3844 31.4532 37.1437 32.6345C36.75 34.5704 36.0172 35.9048 34.5078 37.4141C33.5344 38.3985 33.2828 38.5845 32.2656 39.0876C30.6797 39.886 29.7063 40.1157 28 40.1157C26.3922 40.1157 25.3859 39.897 23.975 39.2188C21.5469 38.0595 19.7531 35.9048 18.9656 33.2032C18.6484 32.1095 18.6703 29.5173 19.0094 28.347C19.6984 25.9735 21.3937 23.8298 23.5156 22.6704C25.3203 21.686 27.1687 21.347 29.3016 21.6095Z" fill="#08D9C4"></path><path d="M27.3001 23.1516C27.0705 23.3266 26.8845 23.786 26.3486 25.4485L25.6814 27.5157H23.5486C21.7767 27.5157 21.3501 27.5485 21.033 27.7016C20.508 27.9422 20.2783 28.4891 20.4423 29.0579C20.5517 29.3969 20.8033 29.6266 22.3455 30.7422C23.3189 31.4532 24.1283 32.0438 24.1392 32.0547C24.1501 32.0547 23.8658 32.9625 23.5158 34.0563C23.1548 35.15 22.8595 36.1672 22.8595 36.3204C22.8595 37.1735 23.7892 37.7422 24.522 37.3485C24.6533 37.2829 25.4626 36.7141 26.3158 36.0907C27.1798 35.4672 27.9455 34.9532 28.0111 34.9532C28.0767 34.9532 28.8314 35.4563 29.6736 36.0797C31.4564 37.3813 31.5986 37.4688 31.9923 37.4688C32.6486 37.4688 33.1408 36.9547 33.1408 36.2875C33.1408 36.1235 32.8455 35.1063 32.4845 34.0235C32.1236 32.9516 31.8392 32.0657 31.8611 32.0547C32.4517 31.6719 35.2189 29.6047 35.3501 29.4407C35.6236 29.1125 35.6017 28.3797 35.3283 28.0297C34.9892 27.6032 34.4861 27.5157 32.3095 27.5157H30.3189L30.0455 26.6079C29.8923 26.1157 29.608 25.1969 29.4111 24.5735C28.9955 23.2172 28.7548 22.9219 28.0548 22.9219C27.7486 22.9219 27.497 22.9985 27.3001 23.1516ZM28.3173 28.7188C28.6236 29.6813 28.8423 29.8344 29.958 29.9219L30.7892 29.9766L30.2751 30.3266C29.2689 31.0266 29.1486 31.3875 29.5314 32.4922C29.6517 32.8422 29.7392 33.1485 29.7173 33.1594C29.6955 33.1813 29.3892 32.9844 29.0392 32.7329C28.1751 32.1204 27.8251 32.1204 26.972 32.7438C26.6111 32.9954 26.3048 33.1922 26.283 33.1704C26.2611 33.1485 26.3486 32.8422 26.4689 32.4922C26.5892 32.1422 26.6876 31.7157 26.6876 31.5516C26.6876 31.1907 26.3267 30.7313 25.6923 30.2938L25.222 29.9766L26.0533 29.9219C27.158 29.8344 27.3767 29.6813 27.683 28.7188C27.8251 28.3032 27.9673 27.9532 28.0001 27.9532C28.033 27.9532 28.1751 28.3032 28.3173 28.7188Z" fill="#08D9C4"></path><path d="M44.1547 25.9297C42.9079 26.2031 42.0329 26.4547 41.9016 26.575C41.5954 26.8484 41.4204 27.3516 41.4969 27.6906C41.6172 28.1391 42.1422 28.6094 42.536 28.6094C42.9297 28.6094 46.1563 27.8984 46.6376 27.7125C46.9985 27.5703 47.3594 27.0344 47.3594 26.6406C47.3594 26.4109 46.9985 25.6562 46.9001 25.6562C46.8782 25.6562 46.7141 25.6125 46.5391 25.5578C46.2876 25.4922 45.7079 25.5797 44.1547 25.9297Z" fill="#08D9C4"></path><path d="M9.0783 25.8422C8.4658 26.3891 8.53143 27.2313 9.22049 27.6688C9.50486 27.8547 12.7861 28.6313 13.3549 28.6532C14.1971 28.675 14.7549 27.8219 14.3939 27.0672C14.2955 26.8594 14.1205 26.6297 14.0111 26.5641C13.7596 26.411 10.1064 25.5469 9.6908 25.5469C9.53768 25.5469 9.26424 25.6782 9.0783 25.8422Z" fill="#08D9C4"></path><path d="M10.9922 33.4766C8.76094 34.0125 8.53125 34.1547 8.53125 34.975C8.53125 35.325 8.60781 35.4891 8.90312 35.7844C9.12187 36.0031 9.38437 36.1562 9.5375 36.1562C9.89844 36.1562 13.5078 35.325 13.7703 35.1719C14.7 34.6797 14.3828 33.1594 13.3438 33.0391C13.125 33.0172 12.1297 33.2031 10.9922 33.4766Z" fill="#08D9C4"></path><path d="M41.9892 33.4111C41.4314 33.9798 41.5954 34.9751 42.2954 35.2704C42.4595 35.3361 43.4548 35.5876 44.5048 35.8173C46.222 36.2111 46.4408 36.2439 46.7579 36.1126C47.5126 35.7954 47.7095 34.8986 47.1736 34.297C46.9001 34.0017 46.6704 33.9251 44.9642 33.5314C42.6454 32.9954 42.4158 32.9845 41.9892 33.4111Z" fill="#08D9C4"></path><path d="M46.4844 38.6938C45.9375 38.9016 45.4125 39.3828 40.5781 44.2063L35.2625 49.5H33.2828H31.3031L31.4125 49.0844C31.7844 47.7609 31.0078 46.0547 29.6953 45.2891C28.8859 44.8188 28.4594 44.7969 21.0656 44.7969H14.0328L13.9563 44.3375C13.7922 43.2875 13.125 42.3359 12.1953 41.7891C11.5281 41.3953 10.5984 41.2641 8.89219 41.3188C7.4375 41.3516 7.33906 41.3734 6.63906 41.7125C5.79688 42.1281 5.23906 42.7406 4.91094 43.5938C4.71406 44.1187 4.70312 44.5234 4.70312 53C4.70312 61.6734 4.70312 61.8594 4.93281 62.45C5.21719 63.2156 5.93906 63.9703 6.75937 64.3531C7.36094 64.6375 7.44844 64.6484 9.24219 64.6484C11.4844 64.6484 11.9437 64.5281 12.8406 63.7078C13.4531 63.15 13.825 62.4609 13.9563 61.6625L14.0219 61.2031L23.5594 61.1813L33.0859 61.1484L33.5781 60.8859C35.1859 60.0328 36.8812 58.5781 40.6328 54.8156C43.8156 51.6219 45.325 50.0141 48.9234 45.9563C51.1766 43.4188 51.3516 43.1016 51.275 41.7344C51.2094 40.7063 50.8703 39.9953 50.1156 39.3062C49.1641 38.4641 47.7422 38.2234 46.4844 38.6938ZM48.5516 41.0344C48.9234 41.3516 49.0875 41.9422 48.9125 42.3359C48.7047 42.7953 44.1656 47.7938 40.2281 51.9172C37.1328 55.1547 34.475 57.6594 33.1734 58.5563L32.8344 58.7969H23.4172H14V53V47.2031H21.2078C28.2625 47.2031 28.4156 47.2031 28.6891 47.4219C29.1047 47.75 29.2578 48.2969 29.05 48.7672C28.7547 49.4891 28.6781 49.5 24.4016 49.5H20.5625L20.2125 49.8172C19.9062 50.0906 19.8516 50.2109 19.8516 50.6484C19.8516 51.0859 19.9062 51.2063 20.2125 51.4797L20.5625 51.7969H28.4047H36.2578L41.6719 46.3938C44.6469 43.4297 47.1844 40.9359 47.3047 40.8813C47.6875 40.6625 48.1906 40.7281 48.5516 41.0344ZM11.1453 43.8781C11.7031 44.2719 11.7031 44.1734 11.7031 53C11.7031 61.8266 11.7031 61.7281 11.1453 62.1219C10.9375 62.2641 10.5984 62.2969 9.38438 62.2969C7.75469 62.2969 7.45937 62.2203 7.18594 61.75C7.02187 61.4656 7 60.6781 7 53C7 45.3109 7.01094 44.5344 7.18594 44.25C7.28437 44.075 7.47031 43.8891 7.59063 43.8234C7.72187 43.7688 8.50937 43.7141 9.35156 43.7141C10.6094 43.7031 10.9375 43.7359 11.1453 43.8781Z" fill="#08D9C4"></path></svg>