<svg xmlns="http://www.w3.org/2000/svg" width="56" height="56" viewBox="0 0 56 56" fill="none"><circle cx="28" cy="28" r="28" fill="#423DF9"></circle><path d="M17.3627 15.1063C17.1252 15.2563 16.9877 15.5438 17.0127 15.8375C17.0314 16.075 17.0377 16.0813 17.8314 16.5375C18.5002 16.9188 18.6814 17 18.9127 17H19.1877L18.7502 16.125C18.4064 15.4438 18.2627 15.2188 18.1064 15.125C17.8627 14.975 17.5877 14.9688 17.3627 15.1063Z" fill="white"></path><path d="M21.8938 15.125C21.7375 15.2188 21.5938 15.4438 21.25 16.125L20.8125 17L21.1063 16.9937C21.3625 16.9937 21.525 16.925 22.1875 16.5437C22.95 16.1 22.9688 16.0813 22.9875 15.8562C23.0438 15.2125 22.425 14.8 21.8938 15.125Z" fill="white"></path><path d="M14.1562 16.0875C13.925 16.1937 13.6562 16.475 13.5688 16.7062C13.525 16.8125 13.5 17.4937 13.5 18.4438V20H15.75H18V18.8875V17.7812L16.5438 16.9562C15.75 16.5062 15.0125 16.1 14.9188 16.0687C14.6812 15.975 14.3875 15.9875 14.1562 16.0875Z" fill="white"></path><path d="M24.925 16.1437C24.7687 16.2188 24.0438 16.6187 23.3188 17.0312L22 17.7812V18.8875V20H24.25H26.5V18.4375C26.5 16.7313 26.4813 16.6125 26.15 16.3C25.7938 15.9688 25.3937 15.9187 24.925 16.1437Z" fill="white"></path><path d="M19 19V20H20H21V19V18H20H19V19Z" fill="white"></path><path d="M27.5 20.25C27.5 21.3562 27.4875 21.55 27.3688 21.8938C26.9688 23.075 25.7312 23.75 24.5938 23.4062C24.425 23.3562 24.275 23.325 24.2625 23.3375C24.25 23.35 24.2875 23.5375 24.3438 23.75C24.8875 25.8562 23.9375 28.1 22.0062 29.275C21.5813 29.5375 21.3625 29.5562 21.1688 29.3625C21.0438 29.2375 20.9625 28.8563 20.5312 26.3875C20.2563 24.8375 20.0187 23.5625 20 23.5625C19.9813 23.5625 19.7375 24.8375 19.4688 26.3875C19.0375 28.85 18.95 29.2375 18.8313 29.3625C18.625 29.5687 18.3938 29.5375 17.9188 29.225L17.5 28.95V30.475V32H28H38.5L38.4875 25.8187C38.4688 19.6812 38.4688 19.6312 38.3375 19.4625C38.2688 19.3687 38.1313 19.2312 38.0375 19.1625C37.8687 19.0312 37.8062 19.0312 32.6813 19.0125L27.5 19V20.25Z" fill="white"></path><path d="M13.5 21.1624C13.5 22.0936 14.5125 22.7624 15.3438 22.3811C15.5625 22.2811 17.0625 21.0999 17.0625 21.0249C17.0625 21.0124 16.2625 20.9999 15.2812 20.9999H13.5V21.1624Z" fill="white"></path><path d="M18.0308 21.5376L17.4058 22.0688L17.0496 22.8688C16.3558 24.4376 16.3246 25.4938 16.9433 26.7438C17.2246 27.3126 17.9996 28.2126 18.1121 28.0938C18.1621 28.0376 19.3746 21.2938 19.3746 21.0751C19.3746 21.0251 19.2621 21.0001 19.0183 21.0063C18.6558 21.0063 18.6558 21.0126 18.0308 21.5376Z" fill="white"></path><path d="M20.625 21.0748C20.625 21.2998 21.8375 28.0436 21.8875 28.0936C21.925 28.1311 22.1 27.9936 22.3812 27.6998C23.325 26.6936 23.6937 25.3436 23.3875 24.0623C23.325 23.8061 23.1187 23.2498 22.9312 22.8248L22.5937 22.0561L21.9562 21.5248C21.3312 21.0061 21.3187 20.9998 20.975 20.9998C20.7375 20.9998 20.625 21.0248 20.625 21.0748Z" fill="white"></path><path d="M22.9375 21.025C22.9375 21.0937 24.3813 22.2375 24.6187 22.3562C25.45 22.7812 26.5 22.1125 26.5 21.1625V21H24.7188C23.7375 21 22.9375 21.0125 22.9375 21.025Z" fill="white"></path><path d="M15.5813 35.9875L13.875 38.9688L20.9375 38.9875C24.825 38.9938 31.175 38.9938 35.0625 38.9875L42.125 38.9688L40.4188 35.9875L38.7188 33H28H17.2812L15.5813 35.9875ZM31.7563 35.0625C31.9062 35.1437 33 37.3125 33 37.5312C33 37.6187 32.9312 37.7625 32.8438 37.8438L32.6938 38H28.0125H23.3313L23.1625 37.8438C23.0688 37.7563 23 37.625 23 37.5312C23 37.325 24.0875 35.1562 24.2312 35.0687C24.3875 34.9812 31.5875 34.975 31.7563 35.0625Z" fill="white"></path><path d="M24.5625 36.5L24.3125 37H28H31.6875L31.4375 36.5L31.1875 36H28H24.8125L24.5625 36.5Z" fill="white"></path><path d="M13.625 40.0312C13.625 40.2812 14.1813 40.8187 14.5563 40.925C14.7313 40.9812 18.1688 41 28.0375 41C41.225 41 41.2812 40.9937 41.5625 40.8687C41.8813 40.725 42.1562 40.4875 42.2875 40.2375C42.3375 40.1438 42.375 40.0562 42.375 40.0312C42.375 40.0125 35.9062 40 28 40C20.0938 40 13.625 40.0125 13.625 40.0312Z" fill="white"></path></svg>