<svg xmlns="http://www.w3.org/2000/svg" width="56" height="56" viewBox="0 0 56 56" fill="none"><circle cx="28" cy="28" r="28" fill="#423DF9"></circle><path d="M29.1559 15.45C29.1371 15.4938 29.1309 17.15 29.1371 19.125L29.1559 22.7188L35.5809 22.7375L41.9996 22.75V19.0625V15.375H35.5934C30.5246 15.375 29.1746 15.3937 29.1559 15.45ZM36.4309 16.3063C36.9559 16.4688 37.2871 16.6813 37.6746 17.0875C38.2996 17.7438 38.5934 18.675 38.4496 19.5187C38.1746 21.1 36.6746 22.2063 35.1496 21.95C34.3309 21.8125 33.4684 21.2437 33.0809 20.575C32.1371 18.9688 32.9246 16.8688 34.6871 16.3063C35.1559 16.1562 35.9434 16.1562 36.4309 16.3063ZM32.0059 18.7438C32.1809 18.9625 32.1621 19.275 31.9621 19.4312C31.8121 19.55 31.7121 19.5625 30.9746 19.5625C30.0934 19.5562 29.9934 19.525 29.8809 19.2313C29.7996 19.025 29.8746 18.8 30.0746 18.6562C30.1934 18.575 30.3559 18.5563 31.0496 18.575C31.8434 18.5938 31.8934 18.6 32.0059 18.7438ZM41.2121 18.6937C41.4246 18.8625 41.4371 19.2062 41.2371 19.4188C41.1121 19.5562 41.0621 19.5625 40.2559 19.5625C39.4746 19.5625 39.4059 19.55 39.2684 19.425C39.0621 19.2313 39.0684 18.8625 39.2871 18.6937C39.4371 18.575 39.5371 18.5625 40.2496 18.5625C40.9621 18.5625 41.0621 18.575 41.2121 18.6937Z" fill="white"></path><path d="M34.8754 17.2939C34.4692 17.4439 33.9254 18.0001 33.7817 18.4314C33.5442 19.1564 33.7754 20.0689 34.3067 20.5064C34.7067 20.8376 35.0504 20.9626 35.5629 20.9626C35.9504 20.9689 36.0942 20.9376 36.3879 20.7939C37.0817 20.4564 37.4629 19.8439 37.4629 19.0626C37.4692 18.3064 37.1067 17.7189 36.4254 17.3814C36.1004 17.2189 35.9754 17.1876 35.6004 17.1939C35.3567 17.1939 35.0317 17.2439 34.8754 17.2939Z" fill="white"></path><path d="M20.2812 21.7687C20.1188 21.9062 20.1 22.0187 19.65 24.7812C19.4 26.3625 19.1875 27.675 19.1875 27.7C19.1875 27.7312 20.7375 27.75 22.625 27.75H26.0625V27.325C26.0625 26.25 26.6375 25.2313 27.5875 24.6125C28.6687 23.9125 30.1188 23.9312 31.2125 24.65C32.0875 25.2375 32.6875 26.3562 32.6875 27.4187V27.75H33.3125C33.6938 27.75 33.9375 27.725 33.9375 27.6875C33.9375 27.6125 33.3813 24.0938 33.3438 23.8875L33.3125 23.75H31.1562C28.9313 23.75 28.7812 23.7375 28.5125 23.4812C28.2375 23.225 28.1687 23.0062 28.1375 22.2937L28.1062 21.625H24.275H20.4438L20.2812 21.7687Z" fill="white"></path><path d="M28.8439 25.15C27.8064 25.4125 27.1377 26.2125 27.0752 27.2563L27.0439 27.75L29.3502 27.7375L31.6564 27.7188L31.6752 27.5C31.7377 26.9125 31.4127 26.1625 30.8939 25.6875C30.3502 25.1938 29.5189 24.975 28.8439 25.15Z" fill="white"></path><path d="M17.1687 28.8499C15.9875 29.1374 14.95 29.9999 14.4 31.1561C13.4312 33.1811 14.3062 35.6499 16.3437 36.6561C17.2125 37.0811 16.6312 37.0624 26.6 37.0624H35.6125L36.1 36.9186C37.425 36.5374 38.4687 35.5374 38.9125 34.2374C39.075 33.7686 39.0937 33.6436 39.0937 32.9061C39.0875 32.1936 39.0687 32.0311 38.9187 31.5936C38.5125 30.3686 37.5625 29.4061 36.3 28.9499L35.8437 28.7811L26.6875 28.7686C19 28.7624 17.475 28.7749 17.1687 28.8499ZM19.1812 30.1374C21.2375 30.8374 21.825 33.4374 20.275 34.9874C19.1187 36.1436 17.3125 36.1374 16.15 34.9749C14.4437 33.2686 15.3937 30.3811 17.7812 29.9999C18.1937 29.9374 18.7625 29.9874 19.1812 30.1374ZM35.7187 30.0749C37.0687 30.4124 38.0562 31.9436 37.825 33.3436C37.5312 35.1374 35.7437 36.2436 34.0312 35.7061C33.2437 35.4624 32.6375 34.9186 32.2562 34.1249C32.0375 33.6686 32.0312 33.6374 32.0312 32.9061C32.0312 32.1686 32.0375 32.1499 32.2625 31.6686C32.8875 30.3624 34.2937 29.7124 35.7187 30.0749ZM30.475 31.2686C30.7062 31.4749 30.7062 31.7749 30.475 31.9811L30.3062 32.1249H26.5562H22.8062L22.6562 31.9686C22.4375 31.7561 22.4437 31.4311 22.6625 31.2561C22.825 31.1249 22.8812 31.1249 26.5687 31.1249H30.3062L30.475 31.2686ZM30.4687 33.8249C30.6875 34.0124 30.7 34.3186 30.5 34.5311L30.3562 34.6874H26.5937C22.8812 34.6874 22.825 34.6874 22.6625 34.5561C22.4437 34.3811 22.4375 34.0561 22.6562 33.8436L22.8062 33.6874H26.5562H30.3062L30.4687 33.8249Z" fill="white"></path><path d="M17.8316 30.9999C17.2503 31.1187 16.6816 31.5874 16.4316 32.1562C16.2316 32.6062 16.2378 33.2374 16.4503 33.6874C17.1628 35.2249 19.2816 35.2249 19.9878 33.6937C20.6316 32.2999 19.3503 30.6937 17.8316 30.9999Z" fill="white"></path><path d="M34.4438 31.0373C34.0063 31.1561 33.75 31.3186 33.4438 31.6623C33.1375 32.0061 33 32.3998 33 32.9061C33 33.4248 33.1438 33.8123 33.475 34.1811C33.875 34.6248 34.325 34.8311 34.9 34.8373C36.2 34.8498 37.1313 33.6373 36.7813 32.3998C36.5 31.3811 35.4375 30.7623 34.4438 31.0373Z" fill="white"></path><path d="M17 39.125C17 40.3063 17 40.3187 17.1562 40.4688L17.3062 40.625H19.0937H20.8812L21.0375 40.4688C21.1875 40.3125 21.1875 40.3125 21.175 39.2062L21.1562 38.0938L19.1562 38.0625C18.0562 38.0438 17.1187 38.0062 17.0812 37.9813C17.0187 37.9437 17 38.1812 17 39.125Z" fill="white"></path><path d="M36.0438 37.9813C36.0125 38.0062 35.0875 38.0438 33.9813 38.0625L31.9688 38.0938V39.2375C31.9688 40.3688 31.9688 40.3875 32.1188 40.5063C32.2563 40.6187 32.3875 40.625 34.0375 40.625C35.7813 40.625 35.8063 40.625 35.9688 40.4813L36.1313 40.3438L36.1125 39.1375C36.1 38.4688 36.0688 37.95 36.0438 37.9813Z" fill="white"></path></svg>