<svg xmlns="http://www.w3.org/2000/svg" width="65" height="67" viewBox="0 0 65 67" fill="none"><path d="M9.39014 48.1753C13.1828 55.9119 21.4826 60.507 30.063 59.6431V59.6421C30.7903 59.5655 31.2531 59.4956 31.5688 59.4087C31.799 59.3453 31.9406 59.2758 32.0444 59.1938L32.1382 59.1069C32.3853 58.8405 32.4469 58.6235 32.397 58.4009C32.3403 58.1488 32.1302 57.8333 31.689 57.4136L31.687 57.4116C31.4917 57.2219 31.2851 57.0078 31.1118 56.8149C30.9435 56.6276 30.7921 56.4453 30.7183 56.3247C30.6319 56.1844 30.5744 56.1065 30.5083 56.0513C30.4475 56.0005 30.3633 55.9564 30.2046 55.9214C29.9498 55.8652 29.5574 55.8419 28.8823 55.8296L28.1069 55.8198C26.4065 55.8088 25.7207 55.7543 24.8228 55.5747H24.8218C21.5073 54.8874 18.7187 53.4327 16.3647 51.1567C13.9726 48.8582 12.4169 46.1853 11.6284 43.0259L11.481 42.3882C11.1258 40.7376 11.0742 38.1347 11.3354 36.3921L11.3921 36.0552C11.8248 33.7256 12.7128 31.529 14.022 29.5542V29.5532C14.4943 28.8447 15.2781 27.9456 16.1118 27.1118C16.9457 26.278 17.8456 25.4944 18.5542 25.022V25.021C24.3581 21.1703 31.6418 21.1704 37.4458 25.021L37.4468 25.022C38.1553 25.4944 39.0544 26.2781 39.8882 27.1118C40.722 27.9457 41.5066 28.8446 41.979 29.5532V29.5542C43.6988 32.1506 44.6648 35.0701 44.8423 38.1655V38.1675C44.8584 38.4903 44.8854 38.8132 44.9136 39.0708C44.9277 39.1998 44.9415 39.3114 44.9546 39.397C44.9611 39.4397 44.9678 39.4746 44.9731 39.5015C44.9758 39.5149 44.9781 39.5258 44.98 39.5337C44.9818 39.5411 44.9829 39.5444 44.9829 39.5444C44.9786 39.5315 44.9822 39.5463 45.022 39.5952C45.0562 39.6372 45.1046 39.6895 45.1655 39.7485C45.2875 39.8667 45.4481 40.0015 45.6138 40.1206C45.9732 40.379 46.4941 40.8115 46.7817 41.0659L46.7856 41.0698C47.1605 41.4183 47.4454 41.5635 47.6753 41.5825C47.8896 41.6002 48.1147 41.5122 48.3862 41.2407V41.2397L48.3892 41.2368C48.5065 41.1242 48.556 41.0552 48.5942 40.9302C48.617 40.8556 48.6361 40.7613 48.6538 40.6313L48.7075 40.1157C48.8034 38.9069 48.6202 36.3846 48.3179 34.894C47.0613 28.7683 43.137 23.5459 37.6665 20.6714L37.1323 20.4009C33.5527 18.6599 29.5211 17.9369 25.7319 18.3687H25.731C21.1926 18.8766 16.8902 20.9085 13.5825 24.0864C7.0992 30.3214 5.40204 40.0584 9.39014 48.1753Z" fill="#08D9C4" stroke="#423DF9" stroke-width="0.5"></path><path d="M26.2705 28.6028L26.1279 28.6711L25.2305 29.0979C22.682 30.3259 21.3343 33.4345 22.2207 36.0208C22.5008 36.8403 22.9358 37.4854 23.667 38.1848C24.4406 38.9271 25.136 39.317 26.6689 39.8352H26.6709C28.7381 40.5462 29.8156 41.1823 30.3584 42.1096C30.4821 42.3177 30.5701 42.4926 30.6133 42.679C30.6462 42.8215 30.6508 42.9595 30.6387 43.1106L30.6211 43.2659C30.5689 43.7214 30.4033 44.1074 30.123 44.4055C29.8428 44.7034 29.4637 44.8974 29.0127 44.9973C28.1196 45.1951 26.9081 45.0341 25.4707 44.5422C25.1623 44.4394 24.8549 44.3441 24.6094 44.2756C24.4865 44.2414 24.381 44.2149 24.2998 44.1965C24.2593 44.1874 24.2267 44.1802 24.2021 44.176C24.1851 44.1732 24.1753 44.1725 24.1719 44.1721C23.968 44.1721 23.8215 44.2237 23.6553 44.3899C23.5172 44.528 23.3683 44.7429 23.1826 45.0745L22.9834 45.4475C22.7199 45.961 22.5563 46.3532 22.4941 46.6672C22.434 46.9711 22.4726 47.1803 22.5928 47.3557C22.722 47.5443 22.9692 47.729 23.4023 47.9241C23.832 48.1176 24.4144 48.3085 25.1807 48.5266H25.1826L26.0469 48.7786L26.2188 48.8284L26.2266 49.0071L26.2812 50.2317C26.3091 50.8222 26.3281 51.1027 26.3691 51.2737C26.3874 51.35 26.4081 51.3946 26.4326 51.4319C26.4602 51.4738 26.4987 51.5165 26.5693 51.5872C26.6448 51.6626 26.6854 51.701 26.7266 51.7278C26.7616 51.7506 26.8053 51.7705 26.8867 51.7874C27.0708 51.8254 27.3811 51.8361 28.0498 51.8528H28.0508C28.566 51.8664 28.9541 51.8609 29.25 51.8186C29.5452 51.7764 29.7207 51.7015 29.835 51.6008C29.9462 51.5028 30.0295 51.3535 30.083 51.0959C30.1374 50.834 30.1562 50.485 30.1562 50.0139V48.8215L30.3076 48.7561L30.8652 48.5159L30.8682 48.5139C33.4209 47.4562 34.9172 44.6929 34.4277 42.0569L34.374 41.803C33.7998 39.4025 31.7895 37.526 28.3447 36.3381C27.6116 36.0865 27.0993 35.8825 26.7363 35.6741C26.3695 35.4634 26.1428 35.2402 25.9902 34.9475C25.889 34.7732 25.8151 34.6207 25.7988 34.4456C25.783 34.2755 25.8242 34.1102 25.8779 33.9221L25.8799 33.9172C26.0724 33.2916 26.565 32.689 27.1162 32.4583L27.1201 32.4573C27.2645 32.3996 27.4866 32.3622 27.7217 32.3372C27.9653 32.3112 28.2508 32.2954 28.5381 32.2913C28.8254 32.2871 29.1184 32.2943 29.3779 32.3137C29.629 32.3325 29.8647 32.3653 30.0342 32.4163L30.0352 32.4153C30.2337 32.4699 30.4603 32.5024 30.668 32.51C30.8681 32.5173 31.0278 32.4994 31.123 32.47C31.1239 32.4693 31.125 32.4688 31.126 32.468C31.1425 32.4546 31.1666 32.4333 31.1973 32.4036C31.2583 32.3445 31.3376 32.2606 31.4307 32.1575C31.6164 31.9516 31.8484 31.6772 32.0811 31.385L32.082 31.384C32.4385 30.9398 32.6431 30.6661 32.7598 30.468C32.8701 30.2805 32.8906 30.1782 32.8906 30.0745C32.8906 29.8774 32.8663 29.7282 32.8184 29.6077C32.7718 29.4908 32.6983 29.3877 32.5781 29.2893C32.3871 29.133 32.0865 28.9929 31.6152 28.842L31.085 28.6868L30.3428 28.4905L30.1562 28.4407V27.6028C30.1562 26.9409 29.9782 26.5279 29.7334 26.3323L29.625 26.262L29.6191 26.2581C29.6192 26.2581 29.6089 26.253 29.583 26.2454C29.5577 26.2379 29.5238 26.2301 29.4814 26.2219C29.3965 26.2055 29.287 26.1909 29.1582 26.178C28.9008 26.1522 28.5806 26.1355 28.2559 26.1301C27.9312 26.1247 27.6062 26.1301 27.3398 26.1467C27.2065 26.155 27.0906 26.1658 26.998 26.179C26.9492 26.1859 26.9112 26.1931 26.8828 26.1995L26.8252 26.2161C26.6211 26.2986 26.4978 26.4122 26.415 26.5959C26.3474 26.7462 26.3025 26.952 26.2822 27.2424L26.2705 27.5618V28.6028Z" fill="#08D9C4" stroke="#423DF9" stroke-width="0.5"></path><path d="M43.9575 62.4607C44.0126 62.3381 44.0867 62.1651 44.1753 61.9539L44.8306 60.3445C45.6712 58.2238 46.0236 57.4936 46.6118 56.8542L46.8804 56.5818C47.696 55.8006 48.209 55.534 50.5825 54.6042C51.7052 54.164 52.3227 53.9047 52.644 53.7126C52.8022 53.6181 52.8508 53.5597 52.8647 53.5359C52.8397 53.5211 52.8069 53.5012 52.7651 53.4792C52.6448 53.4159 52.4708 53.332 52.2534 53.2332C52.0362 53.1344 51.7784 53.0217 51.4937 52.9011L50.5698 52.5212C48.0327 51.526 47.1876 51.0358 46.4204 50.071H46.4194C46.0216 49.5694 45.7803 49.1402 45.3208 48.0183L44.7749 46.6375C44.5455 46.0502 44.3616 45.5951 44.2085 45.2517C44.0537 44.9045 43.9373 44.6876 43.8462 44.5642C43.8245 44.5349 43.8057 44.5155 43.7925 44.5017C43.7819 44.5131 43.7685 44.5257 43.7554 44.5427L43.6978 44.6267L43.689 44.6423C43.6823 44.6552 43.6745 44.6722 43.6646 44.6931C43.6443 44.7355 43.6188 44.7918 43.5884 44.8601C43.5277 44.9967 43.4495 45.179 43.3589 45.3943L42.7134 46.9685C42.0064 48.7415 41.5413 49.7762 40.7827 50.5349C40.0238 51.2938 38.9882 51.7592 37.2144 52.4666C36.5868 52.7176 36.0006 52.9575 35.562 53.1414C35.3427 53.2333 35.1607 53.3112 35.0298 53.3689C34.9643 53.3978 34.9122 53.4208 34.8755 53.4382C34.8675 53.442 34.8605 53.4453 34.855 53.448C34.8508 53.4562 34.8456 53.4679 34.8413 53.4822C34.8302 53.5193 34.8262 53.5623 34.8315 53.5994L34.8325 53.6003C34.834 53.6112 34.8319 53.6124 34.8472 53.6277C34.8759 53.6565 34.942 53.7047 35.0933 53.782C35.3933 53.9353 35.9407 54.1602 36.9517 54.5613H36.9526C38.2868 55.095 38.9894 55.3796 39.4478 55.613C39.9224 55.8548 40.1439 56.0472 40.5151 56.3796H40.5161C41.4494 57.2207 41.8165 57.8945 42.7905 60.3679C43.1799 61.3551 43.4112 61.9156 43.5708 62.2361C43.6508 62.3966 43.7048 62.4807 43.7427 62.5251C43.7599 62.5453 43.7705 62.5532 43.7739 62.5554C43.7759 62.5567 43.7762 62.557 43.7778 62.5574L43.7856 62.5593C43.8297 62.5719 43.8712 62.576 43.9028 62.5759C43.9172 62.5461 43.9362 62.5081 43.9575 62.4607Z" fill="#08D9C4" stroke="#423DF9" stroke-width="0.5"></path><circle cx="47" cy="18" r="18" fill="#08D9C4" fill-opacity="0.2"></circle></svg>