<svg xmlns="http://www.w3.org/2000/svg" width="64" height="59" viewBox="0 0 64 59" fill="none"><circle cx="46" cy="18" r="18" fill="#423DF9" fill-opacity="0.1"></circle><g clip-path="url(#clip0_419_688)"><path d="M7.54612 7.15184C5.73831 7.63934 4.44846 9.06121 4.13362 10.9096C3.63596 13.8346 6.39846 16.5667 9.34377 16.0589C11.7914 15.6425 13.5383 13.2659 13.1321 10.9096C12.675 8.2284 10.0649 6.48152 7.54612 7.15184Z" fill="#423DF9"></path><path d="M42.2805 7.15184C40.4727 7.63934 39.1828 9.06121 38.868 10.9096C38.3703 13.8346 41.1328 16.5667 44.0781 16.0589C46.0281 15.7237 47.5211 14.2104 47.8664 12.23C48.1711 10.4323 47.1656 8.44168 45.5305 7.58855C44.4133 7.00965 43.3571 6.86746 42.2805 7.15184Z" fill="#423DF9"></path><path d="M2.54922 17.6836C0.873437 19.3594 0 21.5531 0 24.0922C0 25.2703 0.213281 25.7781 0.853125 26.0828C1.25937 26.2859 1.4625 26.2961 4.49922 26.2961H7.70859L8.64297 28.1344C9.52656 29.8813 9.5875 29.9828 9.99375 30.1656C10.5219 30.3992 10.8062 30.3992 11.3344 30.1656C11.7812 29.9625 12.1875 29.3227 12.1875 28.8148C12.1875 28.6727 11.9336 28.0531 11.6289 27.4234L11.0805 26.2961H13.5281C15.8031 26.2961 16.0164 26.2758 16.4125 26.0828C17.0523 25.7781 17.2656 25.2703 17.2656 24.0922C17.2656 22.2234 16.7781 20.4867 15.8742 19.1055C15.4172 18.425 14.1781 17.0539 14.0055 17.0539C13.9648 17.0539 13.7516 17.2063 13.5281 17.3891C11.6289 18.9734 9.01875 19.5625 6.65234 18.9328C5.76875 18.6992 4.49922 18.0391 3.88984 17.5109C3.60547 17.257 3.33125 17.0539 3.27031 17.0539C3.21953 17.0539 2.89453 17.3383 2.54922 17.6836Z" fill="#423DF9"></path><path d="M37.2836 17.6843C35.6078 19.3601 34.7344 21.5538 34.7344 24.0929C34.7344 25.271 34.9477 25.7788 35.5875 26.0835C35.9836 26.2765 36.1969 26.2968 38.4719 26.2968H40.9195L40.3711 27.4241C40.0664 28.0538 39.8125 28.6734 39.8125 28.8155C39.8125 29.3234 40.2188 29.9632 40.6656 30.1663C41.2039 30.4101 41.4781 30.4101 42.0164 30.146C42.4328 29.9429 42.4937 29.8515 43.3672 28.1148L44.2914 26.2968H47.5008C50.5375 26.2968 50.7406 26.2866 51.1469 26.0835C51.7867 25.7788 52 25.271 52 24.0929C52 22.2241 51.5125 20.4874 50.6086 19.1062C50.1516 18.4257 48.9125 17.0546 48.7398 17.0546C48.6992 17.0546 48.4859 17.207 48.2625 17.3898C46.3633 18.9741 43.7531 19.5632 41.3867 18.9335C40.5031 18.6999 39.2336 18.0398 38.6242 17.5116C38.3398 17.2577 38.0656 17.0546 38.0047 17.0546C37.9539 17.0546 37.6289 17.339 37.2836 17.6843Z" fill="#423DF9"></path><path d="M21.2773 24.6714C21.0437 24.7831 20.7797 25.0065 20.6883 25.1792C20.5359 25.4331 20.1195 27.0276 20.1094 27.3831C20.1094 27.4847 21.3586 27.5151 26 27.5151C30.6414 27.5151 31.8906 27.4847 31.8906 27.3831C31.8805 27.0276 31.4641 25.4331 31.3117 25.169C31.2102 25.0065 30.9461 24.7831 30.7227 24.6714C30.3266 24.4784 30.0828 24.4683 25.9898 24.4683C21.8867 24.4683 21.6633 24.4784 21.2773 24.6714Z" fill="#423DF9"></path><path d="M16.8086 30.6641C16.25 30.7758 15.3664 31.1211 14.8992 31.4055C14.2391 31.8117 13.3352 32.7766 12.9695 33.4977C12.675 34.0563 11.1719 38.7383 11.1719 39.0938C11.1719 39.1648 15.8133 39.1953 26 39.1953C36.1867 39.1953 40.8281 39.1648 40.8281 39.0938C40.8281 38.7383 39.325 34.0563 39.0305 33.4977C38.6445 32.7359 37.7609 31.8016 37.0906 31.3953C36.8367 31.2531 36.3391 31.0195 35.9633 30.8773L35.293 30.6133L26.2539 30.593C21.2875 30.593 17.032 30.6234 16.8086 30.6641Z" fill="#423DF9"></path><path d="M10.2578 42.3844C8.80547 42.7906 7.73906 43.8672 7.35312 45.3297C7.25156 45.7055 7.21094 46.5789 7.21094 48.4781C7.21094 50.9359 7.22109 51.1492 7.42422 51.5453C7.57656 51.8602 7.74922 52.0328 8.06406 52.1852C8.49062 52.3984 8.53125 52.3984 26 52.3984C43.4688 52.3984 43.5094 52.3984 43.9359 52.1852C44.2508 52.0328 44.4234 51.8602 44.5758 51.5453C44.7789 51.1492 44.7891 50.9359 44.7891 48.5594C44.7891 47.0563 44.7383 45.7867 44.6773 45.4719C44.3523 43.9586 43.2352 42.7906 41.7016 42.3844C40.9703 42.1914 10.9586 42.1914 10.2578 42.3844ZM15.7117 46.0813C16.1484 46.3859 16.382 46.9445 16.3211 47.4828C16.2297 48.3359 15.5086 48.9148 14.6656 48.8133C12.7156 48.6 12.9797 45.6648 14.9398 45.8273C15.2039 45.8477 15.5492 45.9594 15.7117 46.0813ZM31.7484 45.9594C32.2867 46.2133 32.5508 46.6602 32.5508 47.3203C32.5508 47.7367 32.4898 47.9602 32.3273 48.1938C31.85 48.8539 31.9719 48.8438 26 48.8438C20.0281 48.8438 20.15 48.8539 19.6727 48.1938C19.3578 47.757 19.3578 46.8836 19.6727 46.4469C20.1398 45.7867 19.9977 45.7969 25.9797 45.7969C30.7734 45.7969 31.4437 45.8172 31.7484 45.9594ZM38.0555 46.0813C38.4922 46.3859 38.7258 46.9445 38.6648 47.4828C38.5734 48.3359 37.8523 48.9148 37.0094 48.8133C35.0594 48.6 35.3234 45.6648 37.2836 45.8273C37.5477 45.8477 37.893 45.9594 38.0555 46.0813Z" fill="#423DF9"></path><path d="M10.2578 56.1355C10.2578 57.3847 10.7148 58.2175 11.6391 58.6949C12.1266 58.9386 12.2078 58.9488 14.6047 58.9792C17.5398 59.0199 17.9359 58.9488 18.6367 58.2378C19.1648 57.7199 19.3984 57.0495 19.3984 56.0847V55.4449H14.8281H10.2578V56.1355Z" fill="#423DF9"></path><path d="M32.6016 56.1355C32.6016 57.3847 33.0586 58.2175 33.9828 58.6949C34.4703 58.9386 34.5516 58.9488 36.9484 58.9792C39.8836 59.0199 40.2797 58.9488 40.9805 58.2378C41.5086 57.7199 41.7422 57.0495 41.7422 56.0847V55.4449H37.1719H32.6016V56.1355Z" fill="#423DF9"></path></g><defs><clipPath id="clip0_419_688"><rect width="52" height="52" fill="white" transform="translate(0 7)"></rect></clipPath></defs></svg>