<svg xmlns="http://www.w3.org/2000/svg" width="63" height="58" viewBox="0 0 63 58" fill="none"><circle cx="45" cy="18" r="18" fill="#423DF9" fill-opacity="0.2"></circle><path d="M27.0266 6.05783C25.5937 6.34221 24.1828 7.45783 23.5047 8.83596C23.1437 9.57971 23.1328 9.64533 23.1328 10.925C23.1328 12.2156 23.1328 12.2485 23.5375 13.0578C24.6094 15.2235 26.9609 16.3172 29.2578 15.7266C30.6578 15.3547 31.8719 14.3266 32.5172 12.9703C32.8125 12.325 32.8672 12.0844 32.9 11.1328C32.9328 10.236 32.9 9.91877 32.7141 9.39377C31.8609 6.97658 29.4766 5.57658 27.0266 6.05783Z" fill="#423DF9"></path><path d="M21.1525 7.85166C18.4072 8.6501 15.29 10.3345 12.9822 12.2595L12.1182 12.9704L12.8947 13.1673C13.3213 13.2767 13.7588 13.4079 13.8682 13.4735C14.0322 13.561 14.2182 13.4735 14.8416 13.0032C16.5479 11.7126 18.6369 10.586 20.5182 9.91885C21.0979 9.71103 21.3713 9.54697 21.4369 9.39385C21.9072 8.15791 22.0822 7.64385 22.0604 7.62197C22.0494 7.61103 21.6447 7.72041 21.1525 7.85166Z" fill="#423DF9"></path><path d="M33.8947 7.73131C33.9713 7.81881 34.1682 8.27818 34.3322 8.74849L34.6276 9.60162L35.6119 9.96256C37.5479 10.6735 39.9979 12.0407 41.4963 13.2438C41.8354 13.5282 41.9557 13.5719 42.1197 13.4735C42.2401 13.4188 42.6885 13.2766 43.1151 13.1672L43.8916 12.9704L43.0822 12.2922C42.1526 11.5157 40.2057 10.2032 39.1119 9.61256C38.0401 9.03287 36.301 8.31099 35.0432 7.91724C33.8291 7.53443 33.7197 7.51256 33.8947 7.73131Z" fill="#423DF9"></path><path d="M10.3355 14.8406C9.04485 15.1578 7.87454 16.1094 7.30579 17.3016C6.69329 18.5922 6.76985 20.2875 7.50267 21.5344C8.37767 23.0328 10.3683 23.9625 12.0417 23.6672C14.4152 23.2516 15.9792 21.3047 15.837 18.9641C15.7605 17.8156 15.4214 17.0063 14.7105 16.2297C13.5292 14.9609 11.9105 14.4469 10.3355 14.8406Z" fill="#423DF9"></path><path d="M43.7719 14.8079C42.4484 15.0704 41.1469 16.0657 40.5453 17.3017C40.2172 17.9798 40.1953 18.0892 40.1953 19.2267C40.1953 20.3095 40.2281 20.4954 40.4906 21.0642C41.1031 22.3657 42.4484 23.4048 43.8703 23.6673C45.1938 23.9079 46.6594 23.4595 47.6766 22.5079C50.3781 19.9813 49.0547 15.486 45.3906 14.797C44.7344 14.6767 44.4391 14.6767 43.7719 14.8079Z" fill="#423DF9"></path><path d="M22.5312 15.5516C21.9297 15.7375 21.0656 16.2625 20.6281 16.7C19.6 17.7172 19.25 18.7453 19.25 20.6922C19.25 22.2234 19.4359 22.7375 20.1687 23.1641L20.6391 23.4375H28H35.3609L35.8312 23.1641C36.5641 22.7375 36.75 22.2234 36.75 20.6922C36.75 19.9156 36.6844 19.1937 36.575 18.7891C36.1812 17.2359 35.0656 16.0984 33.4469 15.5734C33.0422 15.4422 33.0203 15.4422 32.4625 15.9453C30.0125 18.1 26.1953 18.1328 23.6578 16.0219C23.2859 15.7047 22.9359 15.4531 22.8922 15.4641C22.8484 15.4641 22.6844 15.5078 22.5312 15.5516Z" fill="#423DF9"></path><path d="M5.72031 23.6125C4.94375 23.9953 4.29844 24.6734 3.89375 25.5156C3.56562 26.2047 3.55469 26.2703 3.55469 27.7797C3.55469 29.475 3.60938 29.6391 4.30937 30.1531C4.60469 30.3828 4.71406 30.3828 11.375 30.3828C18.0359 30.3828 18.1453 30.3828 18.4406 30.1531C19.1406 29.6391 19.1953 29.475 19.1953 27.7797C19.1953 26.3141 19.1734 26.1937 18.9 25.5922C18.7359 25.2422 18.4625 24.7938 18.3094 24.6078C17.9156 24.1375 17.1062 23.5687 16.6141 23.4156C16.2094 23.3063 16.1875 23.3172 15.6187 23.8094C14.4156 24.8594 12.9719 25.4062 11.375 25.4062C9.78906 25.4062 8.33437 24.8594 7.14219 23.8203C6.83594 23.5469 6.51875 23.3281 6.43125 23.3281C6.34375 23.3281 6.02656 23.4594 5.72031 23.6125Z" fill="#423DF9"></path><path d="M38.9703 23.6125C38.1938 23.9953 37.5484 24.6734 37.1437 25.5156C36.8156 26.2047 36.8047 26.2703 36.8047 27.7797C36.8047 29.475 36.8594 29.6391 37.5594 30.1531C37.8547 30.3828 37.9641 30.3828 44.625 30.3828C51.2859 30.3828 51.3953 30.3828 51.6906 30.1531C52.3906 29.6391 52.4453 29.475 52.4453 27.7797C52.4453 26.3141 52.4234 26.1937 52.15 25.5922C51.9859 25.2422 51.7125 24.7938 51.5594 24.6078C51.1656 24.1375 50.3562 23.5687 49.8641 23.4156C49.4594 23.3063 49.4375 23.3172 48.8687 23.8094C47.6656 24.8594 46.2219 25.4062 44.625 25.4062C43.0391 25.4062 41.5844 24.8594 40.3922 23.8203C40.0859 23.5469 39.7687 23.3281 39.6812 23.3281C39.5938 23.3281 39.2766 23.4594 38.9703 23.6125Z" fill="#423DF9"></path><path d="M22.728 31.6297C21.5358 32.0125 21.2295 32.2969 18.4295 35.5781C16.9749 37.2953 15.6624 38.8047 15.5202 38.9359C14.8639 39.5375 14.667 39.5594 10.6092 39.625L6.8358 39.6797L6.12486 40.0188C5.22798 40.4563 4.63736 40.9703 4.18892 41.7141C3.57642 42.7422 3.47798 43.3656 3.52173 46.1109C3.55455 48.3531 3.57642 48.5719 3.79517 48.9766C4.06861 49.4906 4.50611 49.9172 4.9983 50.1688C5.19517 50.2672 5.35923 50.3438 5.38111 50.3438C5.40298 50.3438 5.41392 49.9391 5.42486 49.4359C5.44673 46.1875 7.99517 43.5406 11.2655 43.3766C12.578 43.3 13.3217 43.4531 14.4592 44.0219C16.5592 45.0719 17.828 47.0844 17.8608 49.4359L17.8827 50.4531H27.9999H38.117L38.128 49.4906C38.2045 44.8094 42.9624 41.9656 47.217 44.0547C49.2624 45.0609 50.5311 47.0734 50.5639 49.3813C50.5749 49.9063 50.6186 50.3438 50.6514 50.3438C50.8483 50.3438 51.8108 49.5891 52.0295 49.2609C52.4342 48.6594 52.4999 48.2109 52.4999 45.8594C52.4999 43.3984 52.3905 42.6984 51.8764 41.8234C51.4389 41.0797 50.7061 40.4125 49.8967 40.0297C49.1967 39.7016 49.0874 39.6797 47.2499 39.6031C45.3249 39.5266 44.8108 39.45 44.3405 39.1328C44.2092 39.0453 42.853 37.525 41.3436 35.7531C39.8452 33.9813 38.467 32.4281 38.2811 32.2969C38.1061 32.1766 37.6795 31.9359 37.3295 31.7719L36.6952 31.4766L30.0233 31.4547C23.7999 31.4328 23.3077 31.4438 22.728 31.6297ZM28.9624 36.3656L28.9295 39.5703L23.1655 39.6031C19.9827 39.6141 17.3905 39.5922 17.4014 39.5484C17.4014 39.4938 18.4952 38.1813 19.8295 36.6172C21.9295 34.1563 22.3342 33.7297 22.8483 33.4672L23.4499 33.1719H26.217H28.9842L28.9624 36.3656ZM36.4327 33.3031C36.6405 33.3688 36.9467 33.5219 37.1217 33.6422C37.4389 33.8719 42.2186 39.3953 42.2186 39.5375C42.2186 39.5922 39.6374 39.625 36.4764 39.625H30.7342V36.3984V33.1719H33.403C35.1202 33.1719 36.192 33.2156 36.4327 33.3031Z" fill="#423DF9"></path><path d="M10.6418 45.2032C8.36676 45.6626 6.80269 47.9813 7.20738 50.3001C7.55738 52.2688 8.93551 53.636 10.9152 53.9641C14.5246 54.5657 17.2371 50.9235 15.6621 47.5766C14.8089 45.7501 12.7636 44.7876 10.6418 45.2032Z" fill="#423DF9"></path><path d="M43.3449 45.2032C41.1137 45.6517 39.5933 47.8939 39.9215 50.2345C40.348 53.2751 43.673 54.9376 46.5058 53.5048C48.1465 52.6735 49.109 50.7157 48.7808 48.8454C48.3324 46.2423 46.0027 44.6892 43.3449 45.2032Z" fill="#423DF9"></path></svg>