<svg xmlns="http://www.w3.org/2000/svg" width="63" height="58" viewBox="0 0 63 58" fill="none"><circle cx="45" cy="18" r="18" fill="#08D9C4" fill-opacity="0.2"></circle><path d="M25.5391 5.65313C25.1344 5.83906 24.7734 6.22187 24.6203 6.62656C24.5438 6.82344 24.5 8.14688 24.5 10.1922V13.4516L18.9 18.2531C15.8156 20.8891 13.1359 23.2625 12.9391 23.525C12.2063 24.4875 12.2391 23.7437 12.2719 38.5422L12.3047 51.9297L12.6 52.4875C13.0375 53.3188 13.3656 53.6578 14.1313 54.0734L14.8203 54.4453H23.4828C32.0578 54.4453 32.1453 54.4453 32.4406 54.2156C32.9219 53.8656 33.1625 53.4719 33.2172 52.9469C33.2938 52.3125 33.0531 51.7656 32.5281 51.3719L32.1234 51.0547L23.9313 51.0219L15.75 51V38.2688V25.5375L19.7641 22.1141C21.9625 20.2219 23.9313 18.5375 24.1391 18.3734L24.5 18.0672V19.6422V21.2281L24.1172 21.2938C23.6141 21.3922 23.0125 21.9281 22.8484 22.4203C22.575 23.2516 23.0234 24.2688 23.8 24.5969C24.3141 24.8156 28.1859 24.8156 28.6891 24.5969C29.4438 24.2906 29.8594 23.4594 29.6953 22.5953C29.5969 22.0703 28.9188 21.4031 28.3828 21.2938L28 21.2281V19.6422V18.0563L28.3609 18.3625C28.5469 18.5266 30.5156 20.2109 32.725 22.1031L36.7391 25.5375L36.7719 30.7L36.8047 35.8734L37.1219 36.2781C37.8656 37.2625 39.2 37.2188 39.9656 36.1906C40.1953 35.8953 40.1953 35.775 40.1953 30.35C40.1953 24.1047 40.2063 24.1922 39.3531 23.2625C39.1234 23.0109 36.4766 20.7031 33.4688 18.1219L28 13.4406V10.1813C28 6.53906 27.9781 6.39688 27.3 5.88281C26.8188 5.52188 26.0422 5.4125 25.5391 5.65313Z" fill="#08D9C4"></path><path d="M25.5391 28.4031C25.0906 28.6 24.6312 29.1578 24.5438 29.6063C24.4891 29.9453 24.4453 29.9891 23.975 30.0547C23.4062 30.1422 22.6078 30.5141 22.1266 30.9188C21.9516 31.0719 21.6344 31.4985 21.4266 31.8813L21.0547 32.5703V34.375V36.1797L21.4266 36.8688C21.8422 37.6344 22.1812 37.9625 23.0125 38.4C23.5594 38.6844 23.6359 38.6953 25.7906 38.7281L28 38.7719V39.625V40.4891L25.0578 40.5219C22.2797 40.5547 22.0938 40.5656 21.8094 40.7844C21.2406 41.211 21.0547 41.561 21.0547 42.2391C21.0547 42.7641 21.1094 42.9391 21.3719 43.2781C21.8094 43.8578 22.225 44 23.45 44H24.4781L24.5438 44.3828C24.6531 44.9188 25.3203 45.5969 25.8453 45.6953C26.7859 45.8703 27.6828 45.3563 27.9125 44.4813C28.0328 44.0438 28.0656 44.011 28.5359 43.9453C29.6078 43.7813 30.5922 43.0485 31.15 41.9985C31.4344 41.4406 31.4453 41.386 31.4453 39.625C31.4453 37.875 31.4344 37.7985 31.15 37.2625C30.7125 36.4313 30.3844 36.0922 29.6187 35.6766L28.9297 35.3047L26.7203 35.2719L24.5 35.2281V34.375V33.511L27.4422 33.4781C30.2203 33.4453 30.4062 33.4344 30.6906 33.2156C31.1719 32.8656 31.4125 32.4719 31.4672 31.9469C31.5437 31.3125 31.3031 30.7656 30.7781 30.3719C30.3953 30.0766 30.2969 30.0547 29.2141 30.0219L28.0547 29.9781L27.8906 29.475C27.5734 28.5235 26.425 27.9875 25.5391 28.4031Z" fill="#08D9C4"></path><path d="M37.8438 40.6203C37.3734 40.8172 37.1438 41.1016 35.2078 44.0219L33.3047 46.8766V47.511C33.3047 48.1891 33.4906 48.5391 34.0594 48.9657C34.3328 49.1735 34.5406 49.1954 36.5313 49.2282L38.7078 49.261L37.7563 50.6938C36.8375 52.0829 36.8047 52.1485 36.8047 52.761C36.8047 53.4391 36.9906 53.7891 37.5594 54.2157C37.9531 54.5219 38.9813 54.5329 39.4078 54.2485C39.8344 53.975 43.6078 48.2766 43.7063 47.7735C43.7938 47.3032 43.5313 46.5485 43.1703 46.2094C42.7438 45.8047 42.3719 45.75 40.3047 45.75H38.2922L39.2438 44.2954C40.1625 42.9063 40.1953 42.8297 40.1953 42.2282C40.1953 41.561 40.0094 41.2 39.4625 40.7954C39.1234 40.5438 38.2484 40.4453 37.8438 40.6203Z" fill="#08D9C4"></path></svg>